#N canvas -8 -8 1920 997 12;
#X obj 17 19 tgl 15 0 empty empty empty 17 7 0 10 -262144 -1 -1 0 1
;
#N canvas 1057 147 450 300 two_notes 0;
#X obj 104 60 inlet;
#X obj 104 84 metro 500;
#X obj 104 108 tgl 15 0 empty empty empty 17 7 0 10 -262144 -1 -1 0
1;
#X obj 104 128 sel 0 1;
#X msg 104 173 60;
#X msg 139 173 67;
#X floatatom 104 201 5 0 0 0 - - -;
#X obj 104 224 outlet;
#X connect 0 0 1 0;
#X connect 1 0 2 0;
#X connect 2 0 3 0;
#X connect 3 0 4 0;
#X connect 3 1 5 0;
#X connect 4 0 6 0;
#X connect 5 0 6 0;
#X connect 6 0 7 0;
#X restore 17 68 pd two_notes;
#X floatatom 17 92 5 0 0 0 - - -;
#X obj 17 123 mtof;
#X obj 17 205 osc~;
#X obj 17 333 dac~;
#X obj 17 67;
#X obj 17 291 *~ 0.1;
#N canvas 671 91 450 300 dsp_toggle 0;
#X obj 37 37 inlet;
#X obj 44 102 sel 0 1;
#X msg 4 150 \; pd dsp 0 \;;
#X msg 91 150 \; pd dsp 1 \;;
#X obj 37 61 tgl 15 0 empty empty empty 17 7 0 10 -262144 -1 -1 0 1
;
#X connect 0 0 4 0;
#X connect 1 0 2 0;
#X connect 1 1 3 0;
#X connect 4 0 1 0;
#X restore 47 42 pd dsp_toggle;
#X obj 81 205 osc~;
#X obj 147 208 osc~;
#X obj 81 180 * 1.015;
#X obj 148 181 * 2.015;
#X obj 248 23 tgl 15 0 empty empty empty 17 7 0 10 -262144 -1 -1 0
1;
#N canvas 1057 147 450 300 two_notes 0;
#X obj 104 60 inlet;
#X obj 104 84 metro 500;
#X obj 104 108 tgl 15 0 empty empty empty 17 7 0 10 -262144 -1 -1 1
1;
#X obj 104 128 sel 0 1;
#X msg 104 173 60;
#X msg 139 173 67;
#X floatatom 104 201 5 0 0 0 - - -;
#X obj 104 224 outlet;
#X connect 0 0 1 0;
#X connect 1 0 2 0;
#X connect 2 0 3 0;
#X connect 3 0 4 0;
#X connect 3 1 5 0;
#X connect 4 0 6 0;
#X connect 5 0 6 0;
#X connect 6 0 7 0;
#X restore 248 72 pd two_notes;
#X floatatom 248 96 5 0 0 0 - - -;
#X obj 248 127 mtof;
#X obj 248 209 osc~;
#X obj 248 337 dac~;
#X obj 248 71;
#X obj 248 295 *~ 0.1;
#N canvas 671 91 450 300 dsp_toggle 0;
#X obj 37 37 inlet;
#X obj 44 102 sel 0 1;
#X msg 4 150 \; pd dsp 0 \;;
#X msg 91 150 \; pd dsp 1 \;;
#X obj 37 61 tgl 15 0 empty empty empty 17 7 0 10 -262144 -1 -1 0 1
;
#X connect 0 0 4 0;
#X connect 1 0 2 0;
#X connect 1 1 3 0;
#X connect 4 0 1 0;
#X restore 278 46 pd dsp_toggle;
#X obj 312 209 osc~;
#X obj 378 212 osc~;
#X obj 312 184 * 0.667;
#X obj 379 185 * 1.334;
#X obj 457 21 tgl 15 0 empty empty empty 17 7 0 10 -262144 -1 -1 0
1;
#N canvas 1057 147 450 300 two_notes 0;
#X obj 104 60 inlet;
#X obj 104 84 metro 500;
#X obj 104 108 tgl 15 0 empty empty empty 17 7 0 10 -262144 -1 -1 1
1;
#X obj 104 128 sel 0 1;
#X msg 104 173 60;
#X msg 139 173 67;
#X floatatom 104 201 5 0 0 0 - - -;
#X obj 104 224 outlet;
#X connect 0 0 1 0;
#X connect 1 0 2 0;
#X connect 2 0 3 0;
#X connect 3 0 4 0;
#X connect 3 1 5 0;
#X connect 4 0 6 0;
#X connect 5 0 6 0;
#X connect 6 0 7 0;
#X restore 457 70 pd two_notes;
#X floatatom 457 94 5 0 0 0 - - -;
#X obj 457 125 mtof;
#X obj 457 207 osc~;
#X obj 457 335 dac~;
#X obj 457 69;
#X obj 457 293 *~ 0.1;
#N canvas 671 91 450 300 dsp_toggle 0;
#X obj 37 37 inlet;
#X obj 44 102 sel 0 1;
#X msg 4 150 \; pd dsp 0 \;;
#X msg 91 150 \; pd dsp 1 \;;
#X obj 37 61 tgl 15 0 empty empty empty 17 7 0 10 -262144 -1 -1 0 1
;
#X connect 0 0 4 0;
#X connect 1 0 2 0;
#X connect 1 1 3 0;
#X connect 4 0 1 0;
#X restore 487 44 pd dsp_toggle;
#X obj 521 207 osc~;
#X obj 587 210 osc~;
#X obj 588 183 * 1.334;
#X obj 522 182 * 0.5;
#X obj 17 229 *~ 0.33;
#X obj 81 229 *~ 0.33;
#X obj 148 232 *~ 0.33;
#X obj 248 233 *~ 0.33;
#X obj 312 233 *~ 0.33;
#X obj 378 236 *~ 0.33;
#X obj 457 231 *~ 0.33;
#X obj 521 231 *~ 0.33;
#X obj 587 234 *~ 0.33;
#X obj 707 27 tgl 15 0 empty empty empty 17 7 0 10 -262144 -1 -1 0
1;
#N canvas 1057 147 450 300 two_notes 0;
#X obj 104 60 inlet;
#X obj 104 84 metro 500;
#X obj 104 108 tgl 15 0 empty empty empty 17 7 0 10 -262144 -1 -1 0
1;
#X obj 104 128 sel 0 1;
#X msg 104 173 60;
#X msg 139 173 67;
#X floatatom 104 201 5 0 0 0 - - -;
#X obj 104 224 outlet;
#X connect 0 0 1 0;
#X connect 1 0 2 0;
#X connect 2 0 3 0;
#X connect 3 0 4 0;
#X connect 3 1 5 0;
#X connect 4 0 6 0;
#X connect 5 0 6 0;
#X connect 6 0 7 0;
#X restore 707 76 pd two_notes;
#X floatatom 707 100 5 0 0 0 - - -;
#X obj 707 131 mtof;
#X obj 707 213 osc~;
#X obj 707 376 dac~;
#X obj 707 75;
#X obj 707 334 *~ 0.1;
#N canvas 671 91 450 300 dsp_toggle 0;
#X obj 37 37 inlet;
#X obj 44 102 sel 0 1;
#X msg 4 150 \; pd dsp 0 \;;
#X msg 91 150 \; pd dsp 1 \;;
#X obj 37 61 tgl 15 0 empty empty empty 17 7 0 10 -262144 -1 -1 0 1
;
#X connect 0 0 4 0;
#X connect 1 0 2 0;
#X connect 1 1 3 0;
#X connect 4 0 1 0;
#X restore 737 50 pd dsp_toggle;
#X obj 771 213 osc~;
#X obj 871 217 osc~;
#X obj 771 188 * 1.015;
#X obj 872 190 * 2.015;
#X obj 707 237 *~ 0.33;
#X obj 771 237 *~ 0.33;
#X obj 872 241 *~ 0.33;
#X obj 1184 373 env~;
#X obj 823 277 vcf~ 2;
#X obj 919 282 vcf~ 2;
#X connect 0 0 1 0;
#X connect 0 0 6 0;
#X connect 0 0 8 0;
#X connect 1 0 2 0;
#X connect 2 0 3 0;
#X connect 3 0 4 0;
#X connect 3 0 11 0;
#X connect 3 0 12 0;
#X connect 4 0 39 0;
#X connect 7 0 5 0;
#X connect 7 0 5 1;
#X connect 9 0 40 0;
#X connect 10 0 41 0;
#X connect 11 0 9 0;
#X connect 12 0 10 0;
#X connect 13 0 14 0;
#X connect 13 0 19 0;
#X connect 13 0 21 0;
#X connect 14 0 15 0;
#X connect 15 0 16 0;
#X connect 16 0 17 0;
#X connect 16 0 24 0;
#X connect 16 0 25 0;
#X connect 17 0 42 0;
#X connect 20 0 18 0;
#X connect 20 0 18 1;
#X connect 22 0 43 0;
#X connect 23 0 44 0;
#X connect 24 0 22 0;
#X connect 25 0 23 0;
#X connect 26 0 27 0;
#X connect 26 0 32 0;
#X connect 26 0 34 0;
#X connect 27 0 28 0;
#X connect 28 0 29 0;
#X connect 29 0 30 0;
#X connect 29 0 37 0;
#X connect 29 0 38 0;
#X connect 30 0 45 0;
#X connect 33 0 31 0;
#X connect 33 0 31 1;
#X connect 35 0 46 0;
#X connect 36 0 47 0;
#X connect 37 0 36 0;
#X connect 38 0 35 0;
#X connect 39 0 7 0;
#X connect 40 0 7 0;
#X connect 41 0 7 0;
#X connect 42 0 20 0;
#X connect 43 0 20 0;
#X connect 44 0 20 0;
#X connect 45 0 33 0;
#X connect 46 0 33 0;
#X connect 47 0 33 0;
#X connect 48 0 49 0;
#X connect 48 0 54 0;
#X connect 48 0 56 0;
#X connect 49 0 50 0;
#X connect 50 0 51 0;
#X connect 51 0 52 0;
#X connect 51 0 59 0;
#X connect 51 0 60 0;
#X connect 52 0 61 0;
#X connect 55 0 53 0;
#X connect 55 0 53 1;
#X connect 57 0 62 0;
#X connect 58 0 63 0;
#X connect 59 0 57 0;
#X connect 59 0 65 1;
#X connect 60 0 58 0;
#X connect 60 0 66 1;
#X connect 61 0 55 0;
#X connect 62 0 65 0;
#X connect 63 0 66 0;
#X connect 65 1 55 0;
#X connect 66 1 55 0;
