#N canvas 459 75 921 670 12;
#X obj 91 46 tgl 15 0 empty empty empty 17 7 0 10 -262144 -1 -1 1 1
;
#X obj 89 91 tgl 15 0 empty empty empty 17 7 0 10 -262144 -1 -1 0 1
;
#X obj 89 111 sel 0 1;
#X obj 88 146 60;
#X obj 134 147 65;
#X obj 89 207 mtof;
#X obj 79 344 osc~;
#X obj 80 398 *~ 0.1;
#X obj 79 440 dac~;
#X obj 421 195 line~;
#X obj 419 66 bng 15 250 50 0 empty empty empty 17 7 0 10 -262144 -1
-1;
#X obj 222 204 *~;
#X obj 83 266 +~;
#X obj 225 272 *~;
#X floatatom 231 157 5 0 0 0 harmonicity - -;
#X obj 278 237 *~;
#X floatatom 333 189 5 0 0 0 mod.index - -;
#X obj 220 238 osc~;
#X obj 236 332 *~;
#X obj 505 347 line~;
#X obj 514 194 bng 15 250 50 0 empty empty empty 17 7 0 10 -262144
-1 -1;
#X obj 79 368 *~;
#X msg 575 283 0 325;
#X obj 482 102 delay 75;
#X obj 576 231 delay 275;
#X msg 509 282 1 125;
#X msg 415 154 1 25;
#X msg 480 155 0 25;
#X obj 307 159 + 0.05;
#X obj 316 22 metro 100;
#X obj 583 454 i 0;
#X obj 583 478 + 1;
#X obj 583 502 % 12;
#X floatatom 583 526 5 0 0 0 - - -;
#X obj 381 515 t f;
#X floatatom 488 505 5 0 0 0 - - -;
#X obj 583 549 sel 0 1 2 3 4 5 6 7 8 9 10 11;
#X obj 224 56 metro 50;
#X obj 510 624 makenote 100;
#X obj 464 618 bng 15 250 50 0 empty empty empty 17 7 0 10 -262144
-1 -1;
#X obj 477 568 i;
#X obj 548 588 i;
#X obj 529 529 + 3;
#X obj 89 67 metro 960;
#X connect 0 0 29 0;
#X connect 0 0 37 0;
#X connect 0 0 43 0;
#X connect 1 0 2 0;
#X connect 1 0 28 0;
#X connect 2 0 3 0;
#X connect 2 0 28 0;
#X connect 2 1 4 0;
#X connect 2 1 28 0;
#X connect 3 0 34 0;
#X connect 4 0 34 0;
#X connect 5 0 11 0;
#X connect 5 0 12 0;
#X connect 6 0 21 0;
#X connect 7 0 8 0;
#X connect 7 0 8 1;
#X connect 9 0 18 1;
#X connect 10 0 26 0;
#X connect 10 0 23 0;
#X connect 11 0 15 0;
#X connect 11 0 17 0;
#X connect 12 0 6 0;
#X connect 13 0 18 0;
#X connect 14 0 11 1;
#X connect 15 0 13 1;
#X connect 16 0 15 1;
#X connect 17 0 13 0;
#X connect 18 0 12 1;
#X connect 19 0 21 1;
#X connect 20 0 25 0;
#X connect 20 0 24 0;
#X connect 21 0 7 0;
#X connect 22 0 19 0;
#X connect 23 0 27 0;
#X connect 24 0 22 0;
#X connect 25 0 19 0;
#X connect 26 0 9 0;
#X connect 27 0 9 0;
#X connect 28 0 16 0;
#X connect 28 0 14 0;
#X connect 29 0 10 0;
#X connect 30 0 31 0;
#X connect 31 0 32 0;
#X connect 32 0 30 1;
#X connect 32 0 33 0;
#X connect 33 0 36 0;
#X connect 34 0 35 0;
#X connect 35 0 40 1;
#X connect 35 0 42 0;
#X connect 36 0 40 0;
#X connect 36 10 41 0;
#X connect 37 0 30 0;
#X connect 38 0 5 0;
#X connect 40 0 38 0;
#X connect 41 0 38 0;
#X connect 42 0 41 1;
#X connect 43 0 1 0;
#X connect 43 0 20 0;
#X connect 43 0 39 0;
