#N canvas -8 -8 1920 997 12;
#X obj 17 19 tgl 15 0 empty empty empty 17 7 0 10 -262144 -1 -1 0 1
;
#X obj 1077 497 mtof;
#X obj 1077 579 osc~;
#X obj 1077 707 dac~;
#X obj 1077 665 *~ 0.1;
#N canvas 671 91 450 300 dsp_toggle 0;
#X obj 37 37 inlet;
#X obj 44 102 sel 0 1;
#X msg 4 150 \; pd dsp 0 \;;
#X msg 91 150 \; pd dsp 1 \;;
#X obj 37 61 tgl 15 0 empty empty empty 17 7 0 10 -262144 -1 -1 0 1
;
#X connect 0 0 4 0;
#X connect 1 0 2 0;
#X connect 1 1 3 0;
#X connect 4 0 1 0;
#X restore 47 42 pd dsp_toggle;
#X obj 1141 579 osc~;
#X obj 1207 582 osc~;
#X obj 1141 554 * 1.015;
#X obj 1208 555 * 2.015;
#X floatatom 248 96 5 0 0 0 - - -;
#X obj 248 127 mtof;
#X obj 248 209 osc~;
#X obj 248 337 dac~;
#X obj 248 295 *~ 0.1;
#X obj 312 209 osc~;
#X obj 378 212 osc~;
#X obj 312 184 * 0.667;
#X obj 379 185 * 1.334;
#X floatatom 457 94 5 0 0 0 - - -;
#X obj 457 125 mtof;
#X obj 457 207 osc~;
#X obj 457 335 dac~;
#X obj 457 293 *~ 0.1;
#X obj 521 207 osc~;
#X obj 587 210 osc~;
#X obj 588 183 * 1.334;
#X obj 522 182 * 0.5;
#X obj 1077 603 *~ 0.33;
#X obj 1141 603 *~ 0.33;
#X obj 1208 606 *~ 0.33;
#X obj 248 233 *~ 0.33;
#X obj 312 233 *~ 0.33;
#X obj 378 236 *~ 0.33;
#X obj 457 231 *~ 0.33;
#X obj 521 231 *~ 0.33;
#X obj 587 234 *~ 0.33;
#X obj 20 366 tgl 15 0 empty empty empty 17 7 0 10 -262144 -1 -1 0
1;
#N canvas 1057 147 450 300 two_notes 0;
#X obj 104 60 inlet;
#X obj 104 84 metro 500;
#X obj 104 108 tgl 15 0 empty empty empty 17 7 0 10 -262144 -1 -1 1
1;
#X obj 104 128 sel 0 1;
#X msg 104 173 60;
#X msg 139 173 67;
#X floatatom 104 201 5 0 0 0 - - -;
#X obj 104 224 outlet;
#X connect 0 0 1 0;
#X connect 1 0 2 0;
#X connect 2 0 3 0;
#X connect 3 0 4 0;
#X connect 3 1 5 0;
#X connect 4 0 6 0;
#X connect 5 0 6 0;
#X connect 6 0 7 0;
#X restore 20 506 pd two_notes;
#X floatatom 20 530 5 0 0 0 - - -;
#X obj 20 561 mtof;
#X obj 20 643 osc~;
#X obj 20 806 dac~;
#X obj 20 505;
#X obj 20 764 *~ 0.1;
#N canvas 671 91 450 300 dsp_toggle 0;
#X obj 37 37 inlet;
#X obj 44 102 sel 0 1;
#X msg 4 150 \; pd dsp 0 \;;
#X msg 91 150 \; pd dsp 1 \;;
#X obj 37 61 tgl 15 0 empty empty empty 17 7 0 10 -262144 -1 -1 0 1
;
#X connect 0 0 4 0;
#X connect 1 0 2 0;
#X connect 1 1 3 0;
#X connect 4 0 1 0;
#X restore 50 389 pd dsp_toggle;
#X obj 84 618 * 1.015;
#X obj 185 620 * 2.015;
#X obj 84 643 phasor~;
#X obj 20 667 *~ 0.1;
#X obj 186 671 *~ 0.45;
#X obj 84 667 *~ 0.45;
#X obj 184 647 osc~;
#X obj 136 707 vcf~ 0.5;
#X obj 234 712 vcf~ 0.25;
#X obj 1058 24 tgl 15 0 empty empty empty 17 7 0 10 -262144 -1 -1 0
1;
#X obj 1007 126 bng 15 250 50 0 empty empty empty 17 7 0 10 -262144
-1 -1;
#X obj 1418 143 random 60;
#X floatatom 1418 167 5 0 0 0 - - -;
#X obj 1418 206 moses 12;
#X obj 1383 223 bng 15 250 50 0 empty empty empty 17 7 0 10 -262144
-1 -1;
#X obj 1059 109 metro;
#X msg 1509 46 1000;
#X obj 1509 86 / 2;
#X floatatom 1710 208 5 0 0 0 - - -;
#X obj 1608 84 / 4;
#X floatatom 1784 207 5 0 0 0 - - -;
#X text 1714 176 eight note;
#X text 1785 173 sixteenth note;
#X text 1560 171 quater note;
#X obj 1736 74 * 3;
#X obj 1736 98 / 4;
#X floatatom 1627 208 5 0 0 0 - - -;
#X text 1628 170 dotted quater note;
#X floatatom 1561 212 5 0 0 0 - - -;
#X obj 1420 280 bng 15 250 50 0 empty empty empty 17 7 0 10 -262144
-1 -1;
#X obj 1525 282 bng 15 250 50 0 empty empty empty 17 7 0 10 -262144
-1 -1;
#X obj 1447 263 moses 36;
#X text 1363 193 20%;
#X text 1408 262 40%;
#X text 1523 262 40%;
#X obj 1141 427 makenote;
#N canvas -8 -8 1920 997 notechooser 1;
#X obj 53 33 inlet;
#X obj 53 244 outlet;
#X msg 51 146 60;
#X msg 89 146 61;
#X msg 127 145 63;
#X msg 166 146 65;
#X msg 202 146 66;
#X msg 241 146 68;
#X msg 280 146 70;
#X msg 319 146 72;
#X text 359 147 C Locrian;
#X obj 142 66 % 8;
#X obj 142 90 sel 0 1 2 3 4 5 6 7;
#X floatatom 194 193 5 0 0 0 - - -;
#X connect 0 0 11 0;
#X connect 2 0 13 0;
#X connect 3 0 13 0;
#X connect 4 0 13 0;
#X connect 5 0 13 0;
#X connect 6 0 13 0;
#X connect 7 0 13 0;
#X connect 8 0 13 0;
#X connect 9 0 13 0;
#X connect 11 0 12 0;
#X connect 12 0 2 0;
#X connect 12 1 3 0;
#X connect 12 2 4 0;
#X connect 12 3 5 0;
#X connect 12 4 6 0;
#X connect 12 5 7 0;
#X connect 12 6 8 0;
#X connect 12 7 9 0;
#X connect 13 0 1 0;
#X restore 732 322 pd notechooser;
#X connect 0 0 5 0;
#X connect 1 0 2 0;
#X connect 1 0 8 0;
#X connect 1 0 9 0;
#X connect 2 0 28 0;
#X connect 4 0 3 0;
#X connect 4 0 3 1;
#X connect 6 0 29 0;
#X connect 7 0 30 0;
#X connect 8 0 6 0;
#X connect 9 0 7 0;
#X connect 10 0 11 0;
#X connect 11 0 12 0;
#X connect 11 0 17 0;
#X connect 11 0 18 0;
#X connect 12 0 31 0;
#X connect 14 0 13 0;
#X connect 14 0 13 1;
#X connect 15 0 32 0;
#X connect 16 0 33 0;
#X connect 17 0 15 0;
#X connect 18 0 16 0;
#X connect 19 0 20 0;
#X connect 20 0 21 0;
#X connect 20 0 26 0;
#X connect 20 0 27 0;
#X connect 21 0 34 0;
#X connect 23 0 22 0;
#X connect 23 0 22 1;
#X connect 24 0 35 0;
#X connect 25 0 36 0;
#X connect 26 0 25 0;
#X connect 27 0 24 0;
#X connect 28 0 4 0;
#X connect 29 0 4 0;
#X connect 30 0 4 0;
#X connect 31 0 14 0;
#X connect 32 0 14 0;
#X connect 33 0 14 0;
#X connect 34 0 23 0;
#X connect 35 0 23 0;
#X connect 36 0 23 0;
#X connect 37 0 38 0;
#X connect 37 0 43 0;
#X connect 37 0 45 0;
#X connect 38 0 39 0;
#X connect 39 0 40 0;
#X connect 40 0 41 0;
#X connect 40 0 46 0;
#X connect 40 0 47 0;
#X connect 41 0 49 0;
#X connect 44 0 42 0;
#X connect 44 0 42 1;
#X connect 46 0 48 0;
#X connect 46 0 53 1;
#X connect 47 0 52 0;
#X connect 47 0 54 1;
#X connect 48 0 51 0;
#X connect 50 0 54 0;
#X connect 51 0 53 0;
#X connect 52 0 50 0;
#X connect 53 1 44 0;
#X connect 54 1 44 0;
#X connect 55 0 61 0;
#X connect 55 0 62 0;
#X connect 57 0 58 0;
#X connect 58 0 59 0;
#X connect 59 0 60 0;
#X connect 59 1 77 0;
#X connect 61 0 56 0;
#X connect 61 0 57 0;
#X connect 62 0 61 1;
#X connect 62 0 63 0;
#X connect 62 0 65 0;
#X connect 62 0 70 0;
#X connect 62 0 74 0;
#X connect 63 0 64 0;
#X connect 65 0 66 0;
#X connect 70 0 71 0;
#X connect 71 0 72 0;
#X connect 77 0 75 0;
#X connect 77 1 76 0;
