#N canvas -8 -8 1920 997 12;
#X obj 17 19 tgl 15 0 empty empty empty 17 7 0 10 -262144 -1 -1 0 1
;
#N canvas 671 91 450 300 dsp_toggle 0;
#X obj 37 37 inlet;
#X obj 44 102 sel 0 1;
#X msg 4 150 \; pd dsp 0 \;;
#X msg 91 150 \; pd dsp 1 \;;
#X obj 37 61 tgl 15 0 empty empty empty 17 7 0 10 -262144 -1 -1 0 1
;
#X connect 0 0 4 0;
#X connect 1 0 2 0;
#X connect 1 1 3 0;
#X connect 4 0 1 0;
#X restore 47 42 pd dsp_toggle;
#X floatatom 830 414 5 0 0 0 - - -;
#X obj 830 445 mtof;
#X obj 830 527 osc~;
#X obj 894 527 osc~;
#X obj 960 530 osc~;
#X obj 894 502 * 0.667;
#X obj 961 503 * 1.334;
#X floatatom 302 437 5 0 0 0 - - -;
#X obj 302 468 mtof;
#X obj 302 550 osc~;
#X obj 366 550 osc~;
#X obj 432 553 osc~;
#X obj 433 526 * 1.334;
#X obj 367 525 * 0.5;
#X obj 830 551 *~ 0.33;
#X obj 894 551 *~ 0.33;
#X obj 960 554 *~ 0.33;
#X obj 302 574 *~ 0.33;
#X obj 366 574 *~ 0.33;
#X obj 432 577 *~ 0.33;
#X obj 1516 650 mtof;
#X obj 1516 732 osc~;
#X obj 1349 956 dac~;
#X obj 1580 707 * 1.015;
#X obj 1681 709 * 2.015;
#X obj 1580 732 phasor~;
#X obj 1058 25 tgl 15 0 empty empty empty 17 7 0 10 -262144 -1 -1 0
1;
#X obj 1007 126 bng 15 250 50 0 empty empty empty 17 7 0 10 -262144
-1 -1;
#X floatatom 1418 167 5 0 0 0 - - -;
#X obj 1331 217 bng 15 250 50 0 empty empty empty 17 7 0 10 -262144
-1 -1;
#X obj 1713 94 / 2;
#X floatatom 1710 208 5 0 0 0 - - -;
#X obj 1817 59 / 4;
#X floatatom 1784 207 5 0 0 0 - - -;
#X text 1695 183 eight note;
#X text 1777 158 sixteenth note;
#X text 1530 178 quater note;
#X obj 1626 75 * 3;
#X obj 1626 99 / 4;
#X floatatom 1627 208 5 0 0 0 - - -;
#X text 1602 155 dotted quater note;
#X floatatom 1561 212 5 0 0 0 - - -;
#X obj 1396 303 bng 15 250 50 0 empty empty empty 17 7 0 10 -262144
-1 -1;
#X obj 1546 265 bng 15 250 50 0 empty empty empty 17 7 0 10 -262144
-1 -1;
#X text 1381 235 20%;
#X text 1416 292 40%;
#X text 1523 296 40%;
#X obj 1373 416 makenote 100;
#N canvas -8 -8 1920 997 notechooser 0;
#X obj 53 33 inlet;
#X obj 53 244 outlet;
#X msg 51 146 60;
#X msg 89 146 61;
#X msg 127 145 63;
#X msg 166 146 65;
#X msg 202 146 66;
#X msg 241 146 68;
#X msg 280 146 70;
#X msg 319 146 72;
#X text 359 147 C Locrian;
#X obj 142 66 % 8;
#X obj 142 90 sel 0 1 2 3 4 5 6 7;
#X floatatom 194 193 5 0 0 0 - - -;
#X connect 0 0 11 0;
#X connect 2 0 13 0;
#X connect 3 0 13 0;
#X connect 4 0 13 0;
#X connect 5 0 13 0;
#X connect 6 0 13 0;
#X connect 7 0 13 0;
#X connect 8 0 13 0;
#X connect 9 0 13 0;
#X connect 11 0 12 0;
#X connect 12 0 2 0;
#X connect 12 1 3 0;
#X connect 12 2 4 0;
#X connect 12 3 5 0;
#X connect 12 4 6 0;
#X connect 12 5 7 0;
#X connect 12 6 8 0;
#X connect 12 7 9 0;
#X connect 13 0 1 0;
#X restore 1374 380 pd notechooser;
#X obj 1476 415 delay;
#X obj 1418 143 random 480;
#X obj 1418 206 moses 96;
#X obj 1447 263 moses 288;
#X obj 1399 529 makenote 100;
#X obj 1728 437 makenote 100;
#N canvas -8 -8 1920 997 notechooser 0;
#X obj 53 33 inlet;
#X obj 53 244 outlet;
#X msg 51 146 60;
#X msg 89 146 61;
#X msg 127 145 63;
#X msg 166 146 65;
#X msg 202 146 66;
#X msg 241 146 68;
#X msg 280 146 70;
#X msg 319 146 72;
#X text 359 147 C Locrian;
#X obj 142 66 % 8;
#X obj 142 90 sel 0 1 2 3 4 5 6 7;
#X floatatom 194 193 5 0 0 0 - - -;
#X connect 0 0 11 0;
#X connect 2 0 13 0;
#X connect 3 0 13 0;
#X connect 4 0 13 0;
#X connect 5 0 13 0;
#X connect 6 0 13 0;
#X connect 7 0 13 0;
#X connect 8 0 13 0;
#X connect 9 0 13 0;
#X connect 11 0 12 0;
#X connect 12 0 2 0;
#X connect 12 1 3 0;
#X connect 12 2 4 0;
#X connect 12 3 5 0;
#X connect 12 4 6 0;
#X connect 12 5 7 0;
#X connect 12 6 8 0;
#X connect 12 7 9 0;
#X connect 13 0 1 0;
#X restore 1729 401 pd notechooser;
#X obj 1831 436 delay;
#X obj 1773 530 makenote 100;
#X obj 1404 589 + 12;
#X obj 1667 450 bng 15 250 50 0 empty empty empty 17 7 0 10 -262144
-1 -1;
#X obj 1742 534 bng 15 250 50 0 empty empty empty 17 7 0 10 -262144
-1 -1;
#X obj 1338 435 bng 15 250 50 0 empty empty empty 17 7 0 10 -262144
-1 -1;
#X obj 1359 534 bng 15 250 50 0 empty empty empty 17 7 0 10 -262144
-1 -1;
#X obj 1516 756 *~ 0.33;
#X obj 1580 756 *~ 0.33;
#X obj 1682 760 *~ 0.33;
#X obj 1680 736 phasor~;
#X msg 1155 19 1000;
#X obj 1408 443 t f 0;
#X obj 1409 472 spigot;
#X obj 1767 465 t f 0;
#X obj 1767 497 spigot;
#N canvas -8 -8 1920 997 notechooser 0;
#X obj 53 33 inlet;
#X obj 53 244 outlet;
#X msg 51 146 60;
#X msg 89 146 61;
#X msg 127 145 63;
#X msg 166 146 65;
#X msg 202 146 66;
#X msg 241 146 68;
#X msg 280 146 70;
#X msg 319 146 72;
#X text 359 147 C Locrian;
#X obj 142 66 % 8;
#X obj 142 90 sel 0 1 2 3 4 5 6 7;
#X floatatom 194 193 5 0 0 0 - - -;
#X connect 0 0 11 0;
#X connect 2 0 13 0;
#X connect 3 0 13 0;
#X connect 4 0 13 0;
#X connect 5 0 13 0;
#X connect 6 0 13 0;
#X connect 7 0 13 0;
#X connect 8 0 13 0;
#X connect 9 0 13 0;
#X connect 11 0 12 0;
#X connect 12 0 2 0;
#X connect 12 1 3 0;
#X connect 12 2 4 0;
#X connect 12 3 5 0;
#X connect 12 4 6 0;
#X connect 12 5 7 0;
#X connect 12 6 8 0;
#X connect 12 7 9 0;
#X connect 13 0 1 0;
#X restore 820 291 pd notechooser;
#N canvas -8 -8 1920 997 notechooser 0;
#X obj 53 33 inlet;
#X obj 53 244 outlet;
#X msg 51 146 60;
#X msg 89 146 61;
#X msg 127 145 63;
#X msg 166 146 65;
#X msg 202 146 66;
#X msg 241 146 68;
#X msg 280 146 70;
#X msg 319 146 72;
#X text 359 147 C Locrian;
#X obj 142 66 % 8;
#X obj 142 90 sel 0 1 2 3 4 5 6 7;
#X floatatom 194 193 5 0 0 0 - - -;
#X connect 0 0 11 0;
#X connect 2 0 13 0;
#X connect 3 0 13 0;
#X connect 4 0 13 0;
#X connect 5 0 13 0;
#X connect 6 0 13 0;
#X connect 7 0 13 0;
#X connect 8 0 13 0;
#X connect 9 0 13 0;
#X connect 11 0 12 0;
#X connect 12 0 2 0;
#X connect 12 1 3 0;
#X connect 12 2 4 0;
#X connect 12 3 5 0;
#X connect 12 4 6 0;
#X connect 12 5 7 0;
#X connect 12 6 8 0;
#X connect 12 7 9 0;
#X connect 13 0 1 0;
#X restore 1253 371 pd notechooser;
#X obj 1344 312 + 1;
#N canvas -8 -8 1920 997 notechooser 0;
#X obj 53 33 inlet;
#X obj 53 244 outlet;
#X msg 51 146 60;
#X msg 89 146 61;
#X msg 127 145 63;
#X msg 166 146 65;
#X msg 202 146 66;
#X msg 241 146 68;
#X msg 280 146 70;
#X msg 319 146 72;
#X text 359 147 C Locrian;
#X obj 142 66 % 8;
#X obj 142 90 sel 0 1 2 3 4 5 6 7;
#X floatatom 194 193 5 0 0 0 - - -;
#X connect 0 0 11 0;
#X connect 2 0 13 0;
#X connect 3 0 13 0;
#X connect 4 0 13 0;
#X connect 5 0 13 0;
#X connect 6 0 13 0;
#X connect 7 0 13 0;
#X connect 8 0 13 0;
#X connect 9 0 13 0;
#X connect 11 0 12 0;
#X connect 12 0 2 0;
#X connect 12 1 3 0;
#X connect 12 2 4 0;
#X connect 12 3 5 0;
#X connect 12 4 6 0;
#X connect 12 5 7 0;
#X connect 12 6 8 0;
#X connect 12 7 9 0;
#X connect 13 0 1 0;
#X restore 1615 401 pd notechooser;
#X obj 1595 358 - 1;
#X obj 1730 801 vcf~ 1;
#X obj 1632 796 vcf~ 0.75;
#X obj 1714 116 - 1;
#X obj 1817 85 - 1;
#X obj 1626 123 - 1;
#X obj 1509 70 - 1;
#X text 1413 84 adjust by -1;
#X obj 461 404 - 12;
#X obj 830 575 *~;
#X obj 893 574 *~;
#X obj 960 578 *~;
#X obj 1113 592 line~;
#X obj 1154 484 / 2;
#X obj 1223 633 pack 0;
#X obj 1185 524 delay;
#X obj 1113 659 line~;
#X msg 1115 550 1 10;
#X msg 1115 617 1 20;
#X obj 1115 727 line~;
#X msg 1117 685 1 30;
#X obj 959 633 *~ 0.001;
#N canvas -8 -8 1920 997 notechooser 0;
#X obj 53 33 inlet;
#X obj 53 244 outlet;
#X msg 51 146 60;
#X msg 89 146 61;
#X msg 127 145 63;
#X msg 166 146 65;
#X msg 202 146 66;
#X msg 241 146 68;
#X msg 280 146 70;
#X msg 319 146 72;
#X text 359 147 C Locrian;
#X obj 142 66 % 8;
#X obj 142 90 sel 0 1 2 3 4 5 6 7;
#X floatatom 194 193 5 0 0 0 - - -;
#X connect 0 0 11 0;
#X connect 2 0 13 0;
#X connect 3 0 13 0;
#X connect 4 0 13 0;
#X connect 5 0 13 0;
#X connect 6 0 13 0;
#X connect 7 0 13 0;
#X connect 8 0 13 0;
#X connect 9 0 13 0;
#X connect 11 0 12 0;
#X connect 12 0 2 0;
#X connect 12 1 3 0;
#X connect 12 2 4 0;
#X connect 12 3 5 0;
#X connect 12 4 6 0;
#X connect 12 5 7 0;
#X connect 12 6 8 0;
#X connect 12 7 9 0;
#X connect 13 0 1 0;
#X restore 831 361 pd notechooser;
#X obj 1118 371 / 2;
#X obj 1149 411 delay;
#X obj 302 636 *~ 0.175;
#X obj 1516 853 *~ 0.125;
#X obj 893 8 cyclone/drunk 100;
#X floatatom 901 37 5 0 0 0 - - -;
#X obj 1059 109 metro 1000;
#X floatatom 1501 0 5 0 0 0 - - -;
#X obj 898 109 -;
#X connect 0 0 1 0;
#X connect 2 0 3 0;
#X connect 3 0 4 0;
#X connect 3 0 7 0;
#X connect 3 0 8 0;
#X connect 4 0 16 0;
#X connect 5 0 17 0;
#X connect 6 0 18 0;
#X connect 7 0 5 0;
#X connect 8 0 6 0;
#X connect 9 0 10 0;
#X connect 10 0 11 0;
#X connect 10 0 14 0;
#X connect 10 0 15 0;
#X connect 11 0 19 0;
#X connect 12 0 20 0;
#X connect 13 0 21 0;
#X connect 14 0 13 0;
#X connect 15 0 12 0;
#X connect 16 0 87 0;
#X connect 17 0 88 0;
#X connect 18 0 89 0;
#X connect 19 0 103 0;
#X connect 20 0 103 0;
#X connect 21 0 103 0;
#X connect 22 0 23 0;
#X connect 22 0 25 0;
#X connect 22 0 26 0;
#X connect 23 0 65 0;
#X connect 25 0 27 0;
#X connect 25 0 80 1;
#X connect 26 0 68 0;
#X connect 26 0 79 1;
#X connect 27 0 66 0;
#X connect 28 0 69 0;
#X connect 28 0 107 0;
#X connect 29 0 95 0;
#X connect 29 0 96 0;
#X connect 29 0 97 0;
#X connect 29 0 109 0;
#X connect 30 0 74 0;
#X connect 30 0 53 0;
#X connect 31 0 102 0;
#X connect 32 0 81 0;
#X connect 33 0 91 0;
#X connect 34 0 82 0;
#X connect 35 0 55 2;
#X connect 35 0 56 2;
#X connect 35 0 58 1;
#X connect 39 0 40 0;
#X connect 40 0 83 0;
#X connect 41 0 49 2;
#X connect 41 0 51 1;
#X connect 41 0 59 2;
#X connect 43 0 101 0;
#X connect 44 0 93 0;
#X connect 49 0 60 0;
#X connect 49 0 63 0;
#X connect 50 0 49 0;
#X connect 51 0 71 1;
#X connect 52 0 30 0;
#X connect 53 0 31 0;
#X connect 53 0 100 0;
#X connect 53 1 54 0;
#X connect 54 0 44 0;
#X connect 54 0 50 0;
#X connect 54 0 51 0;
#X connect 54 0 76 0;
#X connect 54 0 100 0;
#X connect 54 1 45 0;
#X connect 54 1 57 0;
#X connect 54 1 58 0;
#X connect 54 1 78 0;
#X connect 55 0 60 0;
#X connect 55 0 64 0;
#X connect 56 0 60 0;
#X connect 56 0 61 0;
#X connect 57 0 56 0;
#X connect 58 0 73 1;
#X connect 59 0 60 0;
#X connect 59 0 62 0;
#X connect 60 0 22 0;
#X connect 65 0 104 0;
#X connect 66 0 80 0;
#X connect 67 0 79 0;
#X connect 68 0 67 0;
#X connect 69 0 109 0;
#X connect 70 0 71 0;
#X connect 70 1 71 1;
#X connect 71 0 55 0;
#X connect 72 0 73 0;
#X connect 72 1 73 1;
#X connect 73 0 59 0;
#X connect 74 0 86 0;
#X connect 75 0 70 0;
#X connect 76 0 75 0;
#X connect 77 0 72 0;
#X connect 78 0 77 0;
#X connect 79 1 104 0;
#X connect 80 1 104 0;
#X connect 81 0 33 0;
#X connect 82 0 35 0;
#X connect 83 0 41 0;
#X connect 84 0 43 0;
#X connect 86 0 9 0;
#X connect 87 0 99 0;
#X connect 88 0 99 0;
#X connect 89 0 99 0;
#X connect 90 0 87 1;
#X connect 91 0 92 0;
#X connect 91 0 93 1;
#X connect 92 0 90 0;
#X connect 92 0 94 0;
#X connect 92 0 97 0;
#X connect 93 0 92 0;
#X connect 94 0 88 1;
#X connect 95 0 90 0;
#X connect 96 0 94 0;
#X connect 97 0 89 1;
#X connect 98 0 97 0;
#X connect 99 0 24 0;
#X connect 99 0 24 1;
#X connect 100 0 2 0;
#X connect 101 0 102 1;
#X connect 101 0 92 0;
#X connect 102 0 92 0;
#X connect 103 0 24 1;
#X connect 103 0 24 0;
#X connect 104 0 24 0;
#X connect 104 0 24 1;
#X connect 105 0 106 0;
#X connect 106 0 109 1;
#X connect 107 0 29 0;
#X connect 107 0 52 0;
#X connect 107 0 105 0;
#X connect 108 0 107 1;
#X connect 108 0 84 0;
#X connect 108 0 39 0;
#X connect 108 0 32 0;
#X connect 108 0 34 0;
#X connect 109 0 108 0;
