#N canvas -8 -8 1920 997 12;
#X obj 9 1 tgl 15 0 empty empty empty 17 7 0 10 -262144 -1 -1 0 1;
#X obj 968 580 mtof;
#X obj 954 834 osc~;
#X obj 77 977 dac~;
#X obj 1283 708 line~;
#X obj 1259 583 bng 15 250 50 0 empty empty empty 17 7 0 10 -262144
-1 -1;
#X obj 1094 620 *~;
#X obj 958 756 +~;
#X obj 1097 688 *~;
#X floatatom 1110 575 5 0 0 0 harm. - -;
#X obj 1151 653 *~;
#X floatatom 1189 578 5 0 0 0 mod.i - -;
#X obj 1097 736 *~;
#X obj 1026 859 line~;
#X obj 1037 792 bng 15 250 50 0 empty empty empty 17 7 0 10 -262144
-1 -1;
#X obj 954 858 *~;
#X msg 1327 628 0 25;
#X obj 1436 63 + 1;
#X floatatom 1436 111 5 0 0 0 - - -;
#X floatatom 191 69 5 0 0 0 - - -;
#X obj 195 91 metro;
#X obj 168 118 bng 15 250 50 0 empty empty empty 17 7 0 10 -262144
-1 -1;
#X floatatom 423 64 5 0 0 0 - - -;
#X obj 426 92 metro;
#X obj 406 97 bng 15 250 50 0 empty empty empty 17 7 0 10 -262144 -1
-1;
#X obj 414 36 / 4;
#X text 625 5 C# Phrygian;
#X floatatom 183 467 5 0 0 0 - - -;
#X msg 1262 626 1 50;
#X obj 77 552 mtof;
#X obj 85 823 osc~;
#X obj 414 697 line~;
#X obj 390 572 bng 15 250 50 0 empty empty empty 17 7 0 10 -262144
-1 -1;
#X obj 225 609 *~;
#X obj 89 745 +~;
#X obj 228 677 *~;
#X floatatom 241 566 5 0 0 0 harm. - -;
#X obj 282 642 *~;
#X floatatom 320 566 5 0 0 0 mod.i - -;
#X obj 225 644 osc~;
#X obj 225 707 *~;
#X obj 157 848 line~;
#X obj 168 781 bng 15 250 50 0 empty empty empty 17 7 0 10 -262144
-1 -1;
#X obj 86 853 *~;
#X msg 458 617 0 120;
#X obj 76 522 - 12;
#X floatatom 318 545 5 0 0 0 - - -;
#X obj 522 551 mtof;
#X obj 509 809 osc~;
#X obj 838 683 line~;
#X obj 814 558 bng 15 250 50 0 empty empty empty 17 7 0 10 -262144
-1 -1;
#X obj 649 595 *~;
#X obj 513 731 +~;
#X obj 652 663 *~;
#X floatatom 665 552 5 0 0 0 harm. - -;
#X obj 706 628 *~;
#X floatatom 744 552 5 0 0 0 mod.i - -;
#X obj 649 630 osc~;
#X obj 652 711 *~;
#X obj 581 834 line~;
#X obj 592 767 bng 15 250 50 0 empty empty empty 17 7 0 10 -262144
-1 -1;
#X obj 509 833 *~;
#X msg 882 603 0 25;
#X obj 656 368 i 0;
#X obj 658 392 + 1;
#X floatatom 658 440 5 0 0 0 - - -;
#X obj 658 416 % 2;
#X obj 659 465 sel 0 1;
#X msg 659 498 1.33;
#X obj 715 499 1.5;
#X msg 819 601 1 25;
#X msg 650 804 0 240;
#X msg 1095 829 0 96;
#X floatatom 17 100 5 0 0 0 - - -;
#X obj 21 127 -;
#X floatatom 21 151 5 0 0 0 - - -;
#X obj 1515 41 bng 15 250 50 0 empty empty empty 17 7 0 10 -262144
-1 -1;
#X obj 1515 85 tgl 15 0 empty empty empty 17 7 0 10 -262144 -1 -1 0
1;
#X floatatom 1569 55 5 0 0 0 - - -;
#X obj 1596 92 metro;
#X obj 1596 116 bng 15 250 50 0 empty empty empty 17 7 0 10 -262144
-1 -1;
#X obj 1483 26 bng 15 250 50 0 empty empty in 17 7 0 10 -262144 -1
-1;
#X obj 1515 61 delay;
#X obj 1507 140 bng 15 250 50 0 empty empty out 17 7 0 10 -262144 -1
-1;
#X obj 1436 39 i -1;
#X obj 1683 72 + 1;
#X floatatom 1683 120 5 0 0 0 - - -;
#X obj 1762 50 bng 15 250 50 0 empty empty empty 17 7 0 10 -262144
-1 -1;
#X obj 1762 94 tgl 15 0 empty empty empty 17 7 0 10 -262144 -1 -1 0
1;
#X floatatom 1816 64 5 0 0 0 - - -;
#X obj 1843 101 metro;
#X obj 1843 125 bng 15 250 50 0 empty empty empty 17 7 0 10 -262144
-1 -1;
#X obj 1727 37 bng 15 250 50 0 empty empty in 17 7 0 10 -262144 -1
-1;
#X obj 1762 70 delay;
#X obj 1742 149 bng 15 250 50 0 empty empty out 17 7 0 10 -262144 -1
-1;
#X obj 1683 48 i -1;
#X obj 1858 65 / 2;
#X obj 1683 96 % 2;
#X obj 1683 146 sel 0 1;
#X obj 1613 54 / 3;
#X obj 1436 87 % 3;
#X obj 1433 135 sel 0 1 2;
#X obj 967 545 + 12;
#N canvas 1053 110 450 300 note_sequence 0;
#X obj 51 19 inlet;
#X obj 135 18 table notes;
#X obj 54 52 i 0;
#X obj 54 76 + 1;
#X obj 54 100 % 8;
#X obj 54 124 tabread notes;
#X obj 54 148 outlet;
#X connect 0 0 2 0;
#X connect 2 0 3 0;
#X connect 3 0 4 0;
#X connect 4 0 2 1;
#X connect 4 0 5 0;
#X connect 5 0 6 0;
#X restore 59 174 pd note_sequence;
#X floatatom 59 200 5 0 0 0 - - -;
#X obj 206 124 s quaternote;
#X obj 1560 24 r quaternote;
#X obj 1796 33 r quaternote;
#X obj 78 106 s tg;
#X obj 239 503 r tg;
#X obj 1056 525 r tg;
#X msg 1072 555 2;
#X obj 74 146 random 480;
#X obj 19 334 moses 48;
#X obj 90 335 moses 144;
#X obj 166 335 moses 288;
#X obj 17 374 s p10;
#X obj 64 377 s p20;
#X obj 130 377 s p30;
#X obj 187 383 s p40;
#X floatatom 24 357 5 0 0 0 - - -;
#X floatatom 86 359 5 0 0 0 - - -;
#X floatatom 144 359 5 0 0 0 - - -;
#X floatatom 210 363 5 0 0 0 - - -;
#X obj 5 358 bng 15 250 50 0 empty empty empty 17 7 0 10 -262144 -1
-1;
#X obj 67 360 bng 15 250 50 0 empty empty empty 17 7 0 10 -262144 -1
-1;
#X obj 125 360 bng 15 250 50 0 empty empty empty 17 7 0 10 -262144
-1 -1;
#X obj 190 364 bng 15 250 50 0 empty empty empty 17 7 0 10 -262144
-1 -1;
#X obj 186 205 s n1;
#X obj 76 478 r n1;
#X obj 56 483 bng 15 250 50 0 empty empty empty 17 7 0 10 -262144 -1
-1;
#N canvas 1053 110 450 300 note_sequence 0;
#X obj 51 19 inlet;
#X obj 135 18 table notes;
#X obj 54 52 i 0;
#X obj 54 76 + 1;
#X obj 54 100 % 8;
#X obj 54 124 tabread notes;
#X obj 54 148 outlet;
#X connect 0 0 2 0;
#X connect 2 0 3 0;
#X connect 3 0 4 0;
#X connect 4 0 2 1;
#X connect 4 0 5 0;
#X connect 5 0 6 0;
#X restore 222 179 pd note_sequence;
#X floatatom 223 203 5 0 0 0 - - -;
#X obj 221 150 random 48;
#N canvas 1053 110 450 300 note_sequence 0;
#X obj 51 19 inlet;
#X obj 135 18 table notes;
#X obj 54 52 i 0;
#X obj 54 76 + 1;
#X obj 54 100 % 8;
#X obj 54 124 tabread notes;
#X obj 54 148 outlet;
#X connect 0 0 2 0;
#X connect 2 0 3 0;
#X connect 3 0 4 0;
#X connect 4 0 2 1;
#X connect 4 0 5 0;
#X connect 5 0 6 0;
#X restore 374 181 pd note_sequence;
#X floatatom 375 205 5 0 0 0 - - -;
#X obj 373 152 random 48;
#X obj 501 491 bng 15 250 50 0 empty empty empty 17 7 0 10 -262144
-1 -1;
#X obj 521 490 r n2;
#X obj 942 511 bng 15 250 50 0 empty empty empty 17 7 0 10 -262144
-1 -1;
#X obj 1692 269 + 1;
#X floatatom 1692 317 5 0 0 0 - - -;
#X obj 1771 247 bng 15 250 50 0 empty empty empty 17 7 0 10 -262144
-1 -1;
#X obj 1771 291 tgl 15 0 empty empty empty 17 7 0 10 -262144 -1 -1
0 1;
#X floatatom 1825 261 5 0 0 0 - - -;
#X obj 1852 298 metro;
#X obj 1852 322 bng 15 250 50 0 empty empty empty 17 7 0 10 -262144
-1 -1;
#X obj 1738 235 bng 15 250 50 0 empty empty in 17 7 0 10 -262144 -1
-1;
#X obj 1771 267 delay;
#X obj 1751 346 bng 15 250 50 0 empty empty out 17 7 0 10 -262144 -1
-1;
#X obj 1692 245 i -1;
#X obj 1867 262 / 2;
#X obj 1692 293 % 2;
#X obj 1692 343 sel 0 1;
#X obj 1805 230 r quaternote;
#X obj 1699 482 + 1;
#X floatatom 1699 530 5 0 0 0 - - -;
#X obj 1778 460 bng 15 250 50 0 empty empty empty 17 7 0 10 -262144
-1 -1;
#X obj 1778 504 tgl 15 0 empty empty empty 17 7 0 10 -262144 -1 -1
0 1;
#X floatatom 1832 474 5 0 0 0 - - -;
#X obj 1859 511 metro;
#X obj 1859 535 bng 15 250 50 0 empty empty empty 17 7 0 10 -262144
-1 -1;
#X obj 1745 445 bng 15 250 50 0 empty empty in 17 7 0 10 -262144 -1
-1;
#X obj 1778 480 delay;
#X obj 1758 559 bng 15 250 50 0 empty empty out 17 7 0 10 -262144 -1
-1;
#X obj 1699 458 i -1;
#X obj 1874 475 / 2;
#X obj 1699 506 % 2;
#X obj 1699 556 sel 0 1;
#X obj 1812 443 r quaternote;
#X obj 1450 264 + 1;
#X floatatom 1450 312 5 0 0 0 - - -;
#X obj 1529 242 bng 15 250 50 0 empty empty empty 17 7 0 10 -262144
-1 -1;
#X obj 1529 286 tgl 15 0 empty empty empty 17 7 0 10 -262144 -1 -1
0 1;
#X floatatom 1583 256 5 0 0 0 - - -;
#X obj 1610 293 metro;
#X obj 1610 317 bng 15 250 50 0 empty empty empty 17 7 0 10 -262144
-1 -1;
#X obj 1495 229 bng 15 250 50 0 empty empty in 17 7 0 10 -262144 -1
-1;
#X obj 1529 262 delay;
#X obj 1520 338 bng 15 250 50 0 empty empty out 17 7 0 10 -262144 -1
-1;
#X obj 1450 240 i -1;
#X obj 1627 255 / 3;
#X obj 1450 288 % 3;
#X obj 1447 336 sel 0 1 2;
#X obj 1574 225 r quaternote;
#X obj 1509 366 s voc_2_out;
#X obj 140 749 r voc_1_out;
#X obj 563 512 r voc_2_out;
#X obj 1008 496 r voc_3_out;
#X obj 1512 163 s voc_3_out;
#X obj 1726 588 s voc_1_out;
#X obj 1736 166 s voc_3_out;
#X obj 1709 373 s voc_2_out;
#X obj 1289 232 bng 15 250 50 0 empty empty thru 17 7 0 10 -262144
-1 -1;
#X obj 1289 252 s voc_2_out;
#X obj 1555 435 bng 15 250 50 0 empty empty thru 17 7 0 10 -262144
-1 -1;
#X obj 1555 455 s voc_1_out;
#X obj 934 103 s voc_3a_thru;
#X obj 829 102 s voc_3b_thru;
#X obj 722 101 s voc_3c_thru;
#X obj 1742 6 r voc_3a_thru;
#X obj 1518 1 r voc_3b_thru;
#X obj 722 73 r p20;
#X obj 829 76 r p30;
#X obj 933 72 r p40;
#X obj 726 150 s voc_2c_thru;
#X obj 832 149 s voc_2b_thru;
#X obj 938 148 s voc_2a_thru;
#X obj 1289 208 r voc_2c_thru;
#X obj 1462 205 r voc_2b_thru;
#X obj 1687 211 r voc_2a_thru;
#X obj 933 125 r p20;
#X obj 831 126 r p10;
#X obj 726 125 r p30;
#X obj 1715 416 r voc_1a_thru;
#X obj 1555 411 r voc_1b_thru;
#X obj 835 180 r p30;
#X obj 904 179 r p40;
#X obj 751 219 s voc_1b_thru;
#X obj 875 218 s voc_1a_thru;
#X msg 160 817 1 120;
#X msg 226 818 0 60;
#X msg 393 615 1 24;
#X obj 150 556 mtof;
#X obj 871 576 delay 24;
#X obj 446 590 delay 96;
#X obj 1318 594 delay 24;
#X obj 1093 798 delay 96;
#X obj 962 510 r n3;
#X obj 878 123 r p40;
#X msg 315 520 1;
#X msg 239 540 0.25;
#X obj 1303 67 bng 15 250 50 0 empty empty thru 17 7 0 10 -262144 -1
-1;
#X obj 1303 43 r voc_3c_thru;
#X obj 1303 87 s voc_3_out;
#X obj 149 526 - 12;
#X obj 1094 655 phasor~;
#X obj 183 426 r n3;
#X msg 1181 554 2;
#X msg 28 36 960;
#X obj 18 66 cyclone/drunk 48;
#X obj 226 787 delay 480;
#X obj 648 773 delay 48;
#X msg 1029 827 1 120;
#X msg 584 803 1 120;
#X obj 785 178 r p20;
#X obj 237 905 *~ 0.2;
#X obj 954 181 r p10;
#X obj 415 208 sel 61 73;
#X obj 261 206 sel 61 73;
#X obj 332 204 s n2;
#X obj 490 210 s n3;
#X obj 1445 561 + 1;
#X floatatom 1445 609 5 0 0 0 - - -;
#X obj 1524 539 bng 15 250 50 0 empty empty empty 17 7 0 10 -262144
-1 -1;
#X obj 1524 583 tgl 15 0 empty empty empty 17 7 0 10 -262144 -1 -1
0 1;
#X floatatom 1578 553 5 0 0 0 - - -;
#X obj 1605 590 metro;
#X obj 1605 614 bng 15 250 50 0 empty empty empty 17 7 0 10 -262144
-1 -1;
#X obj 1492 524 bng 15 250 50 0 empty empty in 17 7 0 10 -262144 -1
-1;
#X obj 1524 559 delay;
#X obj 1445 537 i -1;
#X obj 1622 552 / 3;
#X obj 1445 585 % 3;
#X obj 1442 634 sel 0 1 2;
#X obj 1569 522 r quaternote;
#X obj 1527 499 r phrase1;
#X floatatom 1524 628 5 0 0 0 - - -;
#X obj 97 292 s phrase1;
#X obj 103 201 sel 61 73;
#X obj 1442 668 i;
#X obj 1477 669 i;
#X obj 1513 668 i;
#X obj 1477 693 + 1;
#X floatatom 1434 715 5 0 0 0 - - -;
#X floatatom 1477 717 5 0 0 0 - - -;
#X floatatom 1518 711 5 0 0 0 - - -;
#X obj 507 90 tabread notes;
#X msg 509 67 0;
#X obj 608 85 tabread notes;
#X msg 610 62 7;
#X floatatom 507 114 5 0 0 0 - - -;
#X floatatom 608 109 5 0 0 0 - - -;
#X obj 507 137 s root;
#X obj 608 132 s oct;
#X obj 98 261 i;
#X obj 105 232 r root;
#X obj 141 258 i;
#X obj 156 234 r oct;
#X obj 1470 747 s n1;
#X obj 1251 792 + 1;
#X floatatom 1251 840 5 0 0 0 - - -;
#X obj 1330 770 bng 15 250 50 0 empty empty empty 17 7 0 10 -262144
-1 -1;
#X obj 1330 814 tgl 15 0 empty empty empty 17 7 0 10 -262144 -1 -1
0 1;
#X floatatom 1384 784 5 0 0 0 - - -;
#X obj 1411 821 metro;
#X obj 1411 845 bng 15 250 50 0 empty empty empty 17 7 0 10 -262144
-1 -1;
#X obj 1298 755 bng 15 250 50 0 empty empty in 17 7 0 10 -262144 -1
-1;
#X obj 1330 790 delay;
#X obj 1251 768 i -1;
#X obj 1428 783 / 3;
#X obj 1251 816 % 3;
#X obj 1248 865 sel 0 1 2;
#X obj 1375 753 r quaternote;
#X floatatom 1330 859 5 0 0 0 - - -;
#X obj 1248 899 i;
#X obj 1283 900 i;
#X obj 1319 899 i;
#X obj 1283 924 + 1;
#X floatatom 1240 946 5 0 0 0 - - -;
#X floatatom 1283 948 5 0 0 0 - - -;
#X floatatom 1324 942 5 0 0 0 - - -;
#X obj 1333 730 r phrase2;
#X obj 1276 978 s n2;
#X obj 1574 747 + 1;
#X floatatom 1574 795 5 0 0 0 - - -;
#X obj 1653 725 bng 15 250 50 0 empty empty empty 17 7 0 10 -262144
-1 -1;
#X obj 1653 769 tgl 15 0 empty empty empty 17 7 0 10 -262144 -1 -1
0 1;
#X floatatom 1707 739 5 0 0 0 - - -;
#X obj 1734 776 metro;
#X obj 1734 800 bng 15 250 50 0 empty empty empty 17 7 0 10 -262144
-1 -1;
#X obj 1621 710 bng 15 250 50 0 empty empty in 17 7 0 10 -262144 -1
-1;
#X obj 1653 745 delay;
#X obj 1574 723 i -1;
#X obj 1751 738 / 3;
#X obj 1574 771 % 3;
#X obj 1571 820 sel 0 1 2;
#X obj 1698 708 r quaternote;
#X floatatom 1653 814 5 0 0 0 - - -;
#X obj 1571 854 i;
#X obj 1606 855 i;
#X obj 1642 854 i;
#X obj 1606 879 + 1;
#X floatatom 1563 901 5 0 0 0 - - -;
#X floatatom 1606 903 5 0 0 0 - - -;
#X floatatom 1647 897 5 0 0 0 - - -;
#X obj 1656 685 r phrase3;
#X obj 1599 933 s n3;
#X obj 246 275 i;
#X obj 253 246 r root;
#X obj 289 272 i;
#X obj 304 248 r oct;
#X obj 413 280 i;
#X obj 420 251 r root;
#X obj 456 277 i;
#X obj 471 253 r oct;
#X obj 245 306 s phrase2;
#X obj 412 311 s phrase3;
#X msg 628 26 \; notes 0 61 62 64 66 68 69 71 73 61 73;
#X text 915 29 add a root and its octave at the end for higher probability
;
#X obj 161 903 *~ 0.45;
#X obj 89 902 *~ 0.15;
#X connect 0 0 20 0;
#X connect 0 0 239 0;
#X connect 0 0 23 0;
#X connect 0 0 348 0;
#X connect 0 0 108 0;
#X connect 0 0 278 0;
#X connect 0 0 280 0;
#X connect 1 0 7 0;
#X connect 1 0 6 0;
#X connect 2 0 15 0;
#X connect 4 0 12 1;
#X connect 5 0 28 0;
#X connect 5 0 226 0;
#X connect 6 0 10 0;
#X connect 6 0 236 0;
#X connect 7 0 2 0;
#X connect 8 0 12 0;
#X connect 9 0 6 1;
#X connect 10 0 8 1;
#X connect 11 0 10 1;
#X connect 12 0 7 1;
#X connect 13 0 15 1;
#X connect 14 0 243 0;
#X connect 14 0 227 0;
#X connect 15 0 246 0;
#X connect 16 0 4 0;
#X connect 17 0 100 0;
#X connect 18 0 101 0;
#X connect 19 0 20 1;
#X connect 19 0 105 0;
#X connect 20 0 21 0;
#X connect 20 0 240 0;
#X connect 21 0 239 0;
#X connect 21 0 112 0;
#X connect 21 0 133 0;
#X connect 21 0 136 0;
#X connect 22 0 23 1;
#X connect 23 0 24 0;
#X connect 24 0 63 0;
#X connect 24 0 32 0;
#X connect 24 0 27 0;
#X connect 25 0 22 0;
#X connect 27 0 235 0;
#X connect 28 0 4 0;
#X connect 29 0 34 0;
#X connect 30 0 43 0;
#X connect 31 0 40 1;
#X connect 32 0 222 0;
#X connect 32 0 225 0;
#X connect 33 0 37 0;
#X connect 33 0 39 0;
#X connect 34 0 30 0;
#X connect 35 0 40 0;
#X connect 36 0 33 1;
#X connect 37 0 35 1;
#X connect 38 0 37 1;
#X connect 39 0 35 0;
#X connect 40 0 34 1;
#X connect 41 0 43 1;
#X connect 42 0 220 0;
#X connect 42 0 241 0;
#X connect 43 0 351 0;
#X connect 44 0 31 0;
#X connect 45 0 29 0;
#X connect 46 0 38 0;
#X connect 47 0 52 0;
#X connect 47 0 51 0;
#X connect 48 0 61 0;
#X connect 49 0 58 1;
#X connect 50 0 70 0;
#X connect 50 0 224 0;
#X connect 51 0 55 0;
#X connect 51 0 57 0;
#X connect 52 0 48 0;
#X connect 53 0 58 0;
#X connect 54 0 51 1;
#X connect 55 0 53 1;
#X connect 56 0 55 1;
#X connect 57 0 53 0;
#X connect 58 0 52 1;
#X connect 59 0 61 1;
#X connect 60 0 244 0;
#X connect 60 0 242 0;
#X connect 61 0 350 0;
#X connect 62 0 49 0;
#X connect 63 0 64 0;
#X connect 64 0 66 0;
#X connect 65 0 67 0;
#X connect 66 0 63 1;
#X connect 66 0 65 0;
#X connect 67 0 68 0;
#X connect 67 1 69 0;
#X connect 68 0 54 0;
#X connect 68 0 56 0;
#X connect 69 0 54 0;
#X connect 69 0 56 0;
#X connect 70 0 49 0;
#X connect 71 0 59 0;
#X connect 72 0 13 0;
#X connect 73 0 74 1;
#X connect 74 0 75 0;
#X connect 75 0 19 0;
#X connect 76 0 82 0;
#X connect 77 0 79 0;
#X connect 78 0 82 1;
#X connect 78 0 99 0;
#X connect 79 0 80 0;
#X connect 80 0 84 0;
#X connect 81 0 76 0;
#X connect 81 0 77 0;
#X connect 82 0 77 0;
#X connect 83 0 189 0;
#X connect 84 0 17 0;
#X connect 85 0 97 0;
#X connect 86 0 98 0;
#X connect 87 0 93 0;
#X connect 88 0 90 0;
#X connect 89 0 93 1;
#X connect 89 0 96 0;
#X connect 90 0 91 0;
#X connect 91 0 95 0;
#X connect 92 0 87 0;
#X connect 92 0 88 0;
#X connect 93 0 88 0;
#X connect 94 0 191 0;
#X connect 95 0 85 0;
#X connect 96 0 90 1;
#X connect 97 0 86 0;
#X connect 97 0 95 1;
#X connect 98 0 94 0;
#X connect 98 1 94 0;
#X connect 99 0 79 1;
#X connect 100 0 18 0;
#X connect 100 0 84 1;
#X connect 101 0 83 0;
#X connect 101 1 83 0;
#X connect 101 2 83 0;
#X connect 102 0 1 0;
#X connect 103 0 104 0;
#X connect 104 0 269 0;
#X connect 106 0 78 0;
#X connect 107 0 89 0;
#X connect 109 0 231 0;
#X connect 109 0 230 0;
#X connect 110 0 238 0;
#X connect 110 0 111 0;
#X connect 111 0 9 0;
#X connect 112 0 113 0;
#X connect 112 0 103 0;
#X connect 113 0 116 0;
#X connect 113 0 120 0;
#X connect 113 0 124 0;
#X connect 113 1 114 0;
#X connect 114 0 117 0;
#X connect 114 0 121 0;
#X connect 114 0 125 0;
#X connect 114 1 115 0;
#X connect 115 0 118 0;
#X connect 115 0 122 0;
#X connect 115 0 126 0;
#X connect 115 1 119 0;
#X connect 115 1 123 0;
#X connect 115 1 127 0;
#X connect 129 0 45 0;
#X connect 129 0 130 0;
#X connect 131 0 132 0;
#X connect 132 0 249 0;
#X connect 133 0 131 0;
#X connect 134 0 135 0;
#X connect 135 0 248 0;
#X connect 136 0 134 0;
#X connect 138 0 137 0;
#X connect 138 0 47 0;
#X connect 140 0 152 0;
#X connect 141 0 153 0;
#X connect 142 0 148 0;
#X connect 143 0 145 0;
#X connect 144 0 148 1;
#X connect 144 0 151 0;
#X connect 145 0 146 0;
#X connect 146 0 150 0;
#X connect 147 0 142 0;
#X connect 147 0 143 0;
#X connect 148 0 143 0;
#X connect 149 0 192 0;
#X connect 150 0 140 0;
#X connect 151 0 145 1;
#X connect 152 0 141 0;
#X connect 152 0 150 1;
#X connect 153 0 149 0;
#X connect 153 1 149 0;
#X connect 154 0 144 0;
#X connect 155 0 167 0;
#X connect 156 0 168 0;
#X connect 157 0 163 0;
#X connect 158 0 160 0;
#X connect 159 0 163 1;
#X connect 159 0 166 0;
#X connect 160 0 161 0;
#X connect 161 0 165 0;
#X connect 162 0 157 0;
#X connect 162 0 158 0;
#X connect 163 0 158 0;
#X connect 164 0 190 0;
#X connect 165 0 155 0;
#X connect 166 0 160 1;
#X connect 167 0 156 0;
#X connect 167 0 165 1;
#X connect 168 0 164 0;
#X connect 168 1 164 0;
#X connect 169 0 159 0;
#X connect 170 0 182 0;
#X connect 171 0 183 0;
#X connect 172 0 178 0;
#X connect 173 0 175 0;
#X connect 174 0 178 1;
#X connect 174 0 181 0;
#X connect 175 0 176 0;
#X connect 176 0 180 0;
#X connect 177 0 172 0;
#X connect 177 0 173 0;
#X connect 178 0 173 0;
#X connect 179 0 185 0;
#X connect 180 0 170 0;
#X connect 181 0 175 1;
#X connect 182 0 171 0;
#X connect 182 0 180 1;
#X connect 183 0 179 0;
#X connect 183 1 179 0;
#X connect 183 2 179 0;
#X connect 184 0 174 0;
#X connect 186 0 42 0;
#X connect 187 0 50 0;
#X connect 187 0 60 0;
#X connect 188 0 5 0;
#X connect 188 0 14 0;
#X connect 193 0 194 0;
#X connect 195 0 196 0;
#X connect 200 0 92 0;
#X connect 201 0 81 0;
#X connect 202 0 199 0;
#X connect 203 0 198 0;
#X connect 204 0 197 0;
#X connect 208 0 193 0;
#X connect 209 0 177 0;
#X connect 210 0 147 0;
#X connect 211 0 207 0;
#X connect 212 0 206 0;
#X connect 213 0 205 0;
#X connect 214 0 162 0;
#X connect 215 0 195 0;
#X connect 216 0 218 0;
#X connect 217 0 219 0;
#X connect 220 0 41 0;
#X connect 221 0 41 0;
#X connect 222 0 31 0;
#X connect 223 0 33 0;
#X connect 224 0 62 0;
#X connect 225 0 44 0;
#X connect 226 0 16 0;
#X connect 227 0 72 0;
#X connect 228 0 139 0;
#X connect 228 0 102 0;
#X connect 229 0 206 0;
#X connect 231 0 36 0;
#X connect 232 0 234 0;
#X connect 233 0 232 0;
#X connect 235 0 223 0;
#X connect 236 0 8 0;
#X connect 237 0 27 0;
#X connect 238 0 11 0;
#X connect 239 0 19 0;
#X connect 239 0 25 0;
#X connect 239 0 74 0;
#X connect 240 0 73 0;
#X connect 241 0 221 0;
#X connect 242 0 71 0;
#X connect 243 0 13 0;
#X connect 244 0 59 0;
#X connect 245 0 218 0;
#X connect 246 0 3 0;
#X connect 246 0 3 1;
#X connect 247 0 219 0;
#X connect 248 0 342 0;
#X connect 248 1 344 0;
#X connect 248 2 251 0;
#X connect 249 0 338 0;
#X connect 249 1 340 0;
#X connect 249 2 250 0;
#X connect 252 0 263 0;
#X connect 253 0 264 0;
#X connect 254 0 260 0;
#X connect 255 0 257 0;
#X connect 256 0 260 1;
#X connect 256 0 262 0;
#X connect 257 0 258 0;
#X connect 258 0 261 0;
#X connect 259 0 254 0;
#X connect 259 0 255 0;
#X connect 260 0 255 0;
#X connect 261 0 252 0;
#X connect 262 0 257 1;
#X connect 263 0 253 0;
#X connect 263 0 261 1;
#X connect 264 0 267 0;
#X connect 264 0 270 0;
#X connect 264 1 271 0;
#X connect 264 2 267 0;
#X connect 264 2 272 0;
#X connect 265 0 256 0;
#X connect 266 0 259 0;
#X connect 266 0 267 0;
#X connect 267 0 270 1;
#X connect 267 0 271 1;
#X connect 267 0 272 1;
#X connect 269 0 285 0;
#X connect 269 1 287 0;
#X connect 269 2 128 0;
#X connect 270 0 274 0;
#X connect 271 0 273 0;
#X connect 272 0 276 0;
#X connect 273 0 275 0;
#X connect 274 0 289 0;
#X connect 275 0 289 0;
#X connect 276 0 289 0;
#X connect 277 0 281 0;
#X connect 278 0 277 0;
#X connect 279 0 282 0;
#X connect 280 0 279 0;
#X connect 281 0 283 0;
#X connect 282 0 284 0;
#X connect 285 0 268 0;
#X connect 286 0 285 1;
#X connect 287 0 268 0;
#X connect 288 0 287 1;
#X connect 290 0 301 0;
#X connect 291 0 302 0;
#X connect 292 0 298 0;
#X connect 293 0 295 0;
#X connect 294 0 298 1;
#X connect 294 0 300 0;
#X connect 295 0 296 0;
#X connect 296 0 299 0;
#X connect 297 0 292 0;
#X connect 297 0 293 0;
#X connect 298 0 293 0;
#X connect 299 0 290 0;
#X connect 300 0 295 1;
#X connect 301 0 291 0;
#X connect 301 0 299 1;
#X connect 302 0 304 0;
#X connect 302 0 305 0;
#X connect 302 1 306 0;
#X connect 302 2 304 0;
#X connect 302 2 307 0;
#X connect 303 0 294 0;
#X connect 304 0 305 1;
#X connect 304 0 306 1;
#X connect 304 0 307 1;
#X connect 305 0 309 0;
#X connect 306 0 308 0;
#X connect 307 0 311 0;
#X connect 308 0 310 0;
#X connect 309 0 313 0;
#X connect 310 0 313 0;
#X connect 311 0 313 0;
#X connect 312 0 297 0;
#X connect 312 0 304 0;
#X connect 314 0 325 0;
#X connect 315 0 326 0;
#X connect 316 0 322 0;
#X connect 317 0 319 0;
#X connect 318 0 322 1;
#X connect 318 0 324 0;
#X connect 319 0 320 0;
#X connect 320 0 323 0;
#X connect 321 0 316 0;
#X connect 321 0 317 0;
#X connect 322 0 317 0;
#X connect 323 0 314 0;
#X connect 324 0 319 1;
#X connect 325 0 315 0;
#X connect 325 0 323 1;
#X connect 326 0 328 0;
#X connect 326 0 329 0;
#X connect 326 1 330 0;
#X connect 326 2 328 0;
#X connect 326 2 331 0;
#X connect 327 0 318 0;
#X connect 328 0 329 1;
#X connect 328 0 330 1;
#X connect 328 0 331 1;
#X connect 329 0 333 0;
#X connect 330 0 332 0;
#X connect 331 0 335 0;
#X connect 332 0 334 0;
#X connect 333 0 337 0;
#X connect 334 0 337 0;
#X connect 335 0 337 0;
#X connect 336 0 321 0;
#X connect 336 0 328 0;
#X connect 338 0 346 0;
#X connect 339 0 338 1;
#X connect 340 0 346 0;
#X connect 341 0 340 1;
#X connect 342 0 347 0;
#X connect 343 0 342 1;
#X connect 344 0 347 0;
#X connect 345 0 344 1;
#X connect 350 0 3 0;
#X connect 350 0 3 1;
#X connect 351 0 3 0;
#X connect 351 0 3 1;
