#N canvas -8 -8 1920 997 12;
#X obj 11 -1 tgl 15 0 empty empty empty 17 7 0 10 -262144 -1 -1 0 1
;
#X floatatom 209 64 5 0 0 0 - - -;
#X obj 212 92 metro;
#X obj 185 119 bng 15 250 50 0 empty empty empty 17 7 0 10 -262144
-1 -1;
#X obj 263 181 s quaternote;
#X obj 129 36 table notes;
#X obj 171 145 s pulse;
#X obj 6 41 s tg;
#X text 311 71 B Dorian;
#X obj 960 1225 +~;
#X obj 960 1249 cos~;
#X floatatom 960 1139 5 0 0 0 - - -;
#X obj 1355 1178 line~;
#X obj 1366 1111 bng 15 250 50 0 empty empty empty 17 7 0 10 -262144
-1 -1;
#X obj 1012 1331 *~;
#X obj 961 1172 phasor~;
#X obj 1122 1166 phasor~;
#X floatatom 1130 1144 5 0 0 0 - - -;
#X floatatom 1026 1137 5 0 0 0 - - -;
#X obj 1052 1031 mtof;
#X obj 611 1420 dac~;
#X obj 1024 1232 *~;
#X obj 1024 1256 +~;
#X obj 1221 1352 line~;
#X obj 1269 1277 bng 15 250 50 0 empty empty empty 17 7 0 10 -262144
-1 -1;
#X obj 1325 1283 delay 100;
#X obj 1025 1171 phasor~;
#X msg 1424 1148 0 100;
#X obj 1026 1112 * 1;
#X obj 1514 1221 +~;
#X obj 1514 1245 cos~;
#X floatatom 1514 1135 5 0 0 0 - - -;
#X obj 1515 1482 *~;
#X obj 1515 1168 phasor~;
#X floatatom 1580 1133 5 0 0 0 - - -;
#X obj 1606 1027 mtof;
#X obj 1578 1228 *~;
#X obj 1578 1252 +~;
#X obj 1663 1265 +~;
#X obj 1812 1340 line~;
#X obj 1681 1005 bng 15 250 50 0 empty empty empty 17 7 0 10 -262144
-1 -1;
#X obj 1579 1167 phasor~;
#X obj 95 1083 +~;
#X obj 95 1107 cos~;
#X floatatom 95 997 5 0 0 0 - - -;
#X obj 96 1344 *~;
#X obj 96 1030 phasor~;
#X obj 257 1024 phasor~;
#X floatatom 265 1002 5 0 0 0 - - -;
#X floatatom 161 995 5 0 0 0 - - -;
#X obj 187 889 mtof;
#X obj 255 1094 *~;
#X obj 159 1090 *~;
#X obj 159 1114 +~;
#X obj 244 1127 +~;
#X obj 393 1202 line~;
#X obj 404 1135 bng 15 250 50 0 empty empty empty 17 7 0 10 -262144
-1 -1;
#X obj 160 1029 phasor~;
#X msg 462 1172 0 200;
#X obj 159 1138 cos~;
#X obj 161 970 * 0.5;
#X obj 235 1145 cos~;
#X msg 398 1168 1 10;
#X obj 160 1057 *~ 1.75;
#X obj 1399 996 r quaternote;
#X floatatom 1399 1044 5 0 0 0 - - -;
#X obj 1399 1078 metro;
#X obj 1331 1039 r tg;
#X obj 185 843 - 12;
#X floatatom 185 867 5 0 0 0 - - -;
#X floatatom 1615 993 5 0 0 0 - - -;
#X obj 1508 116 + 1;
#X floatatom 1508 164 5 0 0 0 - - -;
#X obj 1733 46 bng 15 250 50 0 empty empty empty 17 7 0 10 -262144
-1 -1;
#X obj 1733 90 tgl 15 0 empty empty empty 17 7 0 10 -262144 -1 -1 0
1;
#X floatatom 1787 60 5 0 0 0 - - -;
#X obj 1796 81 metro;
#X obj 1818 169 bng 15 250 50 0 empty empty empty 17 7 0 10 -262144
-1 -1;
#X obj 1658 20 bng 15 250 50 0 empty empty in 17 7 0 10 -262144 -1
-1;
#X obj 1733 66 delay;
#X obj 1508 92 i -1;
#X obj 1778 29 r quaternote;
#X floatatom 1717 184 5 0 0 0 - - -;
#X obj 1346 302 i;
#X floatatom 1338 334 5 0 0 0 - - -;
#X obj 1707 159 tabread notes;
#X obj 1337 362 s v3;
#X floatatom 602 92 5 0 0 0 - - -;
#X obj 602 115 tabread notes;
#X obj 602 139 sel 59 71;
#X obj 543 171 bng 15 250 50 0 empty empty empty 17 7 0 10 -262144
-1 -1;
#X obj 637 184 bng 15 250 50 0 empty empty empty 17 7 0 10 -262144
-1 -1;
#X obj 679 187 bng 15 250 50 0 empty empty empty 17 7 0 10 -262144
-1 -1;
#X obj 606 37 r pulse;
#X obj 1349 274 bng 15 250 50 0 empty empty empty 17 7 0 10 -262144
-1 -1;
#X obj 1736 118 random 8;
#X obj 1406 303 i;
#X floatatom 1398 335 5 0 0 0 - - -;
#X obj 1397 363 s v3;
#N canvas 0 50 450 300 pt 0;
#X obj 38 17 inlet;
#X obj 38 41 random 100;
#X obj 38 65 moses 66;
#X obj 38 89 outlet;
#X connect 0 0 1 0;
#X connect 1 0 2 0;
#X connect 2 0 3 0;
#X restore 1409 251 pd pt;
#X obj 1409 275 bng 15 250 50 0 empty empty empty 17 7 0 10 -262144
-1 -1;
#X obj 1463 303 i;
#X floatatom 1455 335 5 0 0 0 - - -;
#X obj 1454 363 s v3;
#N canvas 0 50 450 300 pt 0;
#X obj 38 17 inlet;
#X obj 38 41 random 100;
#X obj 38 65 moses 66;
#X obj 38 89 outlet;
#X connect 0 0 1 0;
#X connect 1 0 2 0;
#X connect 2 0 3 0;
#X restore 1466 251 pd pt;
#X obj 1466 275 bng 15 250 50 0 empty empty empty 17 7 0 10 -262144
-1 -1;
#X obj 1515 308 i;
#X floatatom 1507 340 5 0 0 0 - - -;
#X obj 1506 368 s v3;
#N canvas 0 50 450 300 pt 0;
#X obj 38 17 inlet;
#X obj 38 41 random 100;
#X obj 38 65 moses 66;
#X obj 38 89 outlet;
#X connect 0 0 1 0;
#X connect 1 0 2 0;
#X connect 2 0 3 0;
#X restore 1518 256 pd pt;
#X obj 1518 280 bng 15 250 50 0 empty empty empty 17 7 0 10 -262144
-1 -1;
#X obj 1577 305 i;
#X floatatom 1569 337 5 0 0 0 - - -;
#X obj 1568 365 s v3;
#N canvas 0 50 450 300 pt 0;
#X obj 38 17 inlet;
#X obj 38 41 random 100;
#X obj 38 65 moses 66;
#X obj 38 89 outlet;
#X connect 0 0 1 0;
#X connect 1 0 2 0;
#X connect 2 0 3 0;
#X restore 1580 253 pd pt;
#X obj 1580 277 bng 15 250 50 0 empty empty empty 17 7 0 10 -262144
-1 -1;
#X obj 1627 306 i;
#X floatatom 1619 338 5 0 0 0 - - -;
#X obj 1618 366 s v3;
#N canvas 0 50 450 300 pt 0;
#X obj 38 17 inlet;
#X obj 38 41 random 100;
#X obj 38 65 moses 66;
#X obj 38 89 outlet;
#X connect 0 0 1 0;
#X connect 1 0 2 0;
#X connect 2 0 3 0;
#X restore 1630 254 pd pt;
#X obj 1630 278 bng 15 250 50 0 empty empty empty 17 7 0 10 -262144
-1 -1;
#X obj 1051 107 + 1;
#X floatatom 1051 155 5 0 0 0 - - -;
#X obj 1276 37 bng 15 250 50 0 empty empty empty 17 7 0 10 -262144
-1 -1;
#X obj 1276 81 tgl 15 0 empty empty empty 17 7 0 10 -262144 -1 -1 0
1;
#X floatatom 1330 51 5 0 0 0 - - -;
#X obj 1339 72 metro;
#X obj 1361 160 bng 15 250 50 0 empty empty empty 17 7 0 10 -262144
-1 -1;
#X obj 1201 11 bng 15 250 50 0 empty empty in 17 7 0 10 -262144 -1
-1;
#X obj 1276 57 delay;
#X obj 1051 83 i -1;
#X obj 1321 20 r quaternote;
#X floatatom 1260 175 5 0 0 0 - - -;
#X obj 889 293 i;
#X floatatom 881 325 5 0 0 0 - - -;
#X obj 1250 150 tabread notes;
#X obj 880 353 s v3;
#X obj 892 265 bng 15 250 50 0 empty empty empty 17 7 0 10 -262144
-1 -1;
#X obj 949 294 i;
#X floatatom 941 326 5 0 0 0 - - -;
#X obj 940 354 s v3;
#N canvas 0 50 450 300 pt 0;
#X obj 38 17 inlet;
#X obj 38 41 random 100;
#X obj 38 65 moses 66;
#X obj 38 89 outlet;
#X connect 0 0 1 0;
#X connect 1 0 2 0;
#X connect 2 0 3 0;
#X restore 952 242 pd pt;
#X obj 952 266 bng 15 250 50 0 empty empty empty 17 7 0 10 -262144
-1 -1;
#X obj 1006 294 i;
#X floatatom 998 326 5 0 0 0 - - -;
#X obj 997 354 s v3;
#N canvas 0 50 450 300 pt 0;
#X obj 38 17 inlet;
#X obj 38 41 random 100;
#X obj 38 65 moses 66;
#X obj 38 89 outlet;
#X connect 0 0 1 0;
#X connect 1 0 2 0;
#X connect 2 0 3 0;
#X restore 1009 242 pd pt;
#X obj 1009 266 bng 15 250 50 0 empty empty empty 17 7 0 10 -262144
-1 -1;
#X obj 1058 299 i;
#X floatatom 1050 331 5 0 0 0 - - -;
#X obj 1049 359 s v3;
#N canvas 0 50 450 300 pt 0;
#X obj 38 17 inlet;
#X obj 38 41 random 100;
#X obj 38 65 moses 66;
#X obj 38 89 outlet;
#X connect 0 0 1 0;
#X connect 1 0 2 0;
#X connect 2 0 3 0;
#X restore 1061 247 pd pt;
#X obj 1061 271 bng 15 250 50 0 empty empty empty 17 7 0 10 -262144
-1 -1;
#X obj 1120 296 i;
#X floatatom 1112 328 5 0 0 0 - - -;
#X obj 1111 356 s v3;
#N canvas 0 50 450 300 pt 0;
#X obj 38 17 inlet;
#X obj 38 41 random 100;
#X obj 38 65 moses 66;
#X obj 38 89 outlet;
#X connect 0 0 1 0;
#X connect 1 0 2 0;
#X connect 2 0 3 0;
#X restore 1123 244 pd pt;
#X obj 1123 268 bng 15 250 50 0 empty empty empty 17 7 0 10 -262144
-1 -1;
#X obj 1170 297 i;
#X floatatom 1162 329 5 0 0 0 - - -;
#X obj 1161 357 s v3;
#N canvas 0 50 450 300 pt 0;
#X obj 38 17 inlet;
#X obj 38 41 random 100;
#X obj 38 65 moses 66;
#X obj 38 89 outlet;
#X connect 0 0 1 0;
#X connect 1 0 2 0;
#X connect 2 0 3 0;
#X restore 1173 245 pd pt;
#X obj 1173 269 bng 15 250 50 0 empty empty empty 17 7 0 10 -262144
-1 -1;
#X msg 565 212 0;
#X msg 617 215 7;
#X obj 580 251 s v3_hold;
#X obj 679 207 s v3_rand;
#X obj 1736 5 r v3_rand;
#X obj 1279 -3 r v3_hold;
#X obj 1537 550 + 1;
#X floatatom 1537 598 5 0 0 0 - - -;
#X obj 1687 455 bng 15 250 50 0 empty empty empty 17 7 0 10 -262144
-1 -1;
#X obj 1687 499 tgl 15 0 empty empty empty 17 7 0 10 -262144 -1 -1
1 1;
#X floatatom 1741 469 5 0 0 0 - - -;
#X obj 1750 490 metro;
#X obj 1772 578 bng 15 250 50 0 empty empty empty 17 7 0 10 -262144
-1 -1;
#X obj 1612 429 bng 15 250 50 0 empty empty in 17 7 0 10 -262144 -1
-1;
#X obj 1687 475 delay;
#X obj 1537 526 i -1;
#X obj 1732 438 r quaternote;
#X obj 1375 736 i;
#X floatatom 1367 768 5 0 0 0 - - -;
#X obj 1661 568 tabread notes;
#X floatatom 902 459 5 0 0 0 - - -;
#X obj 902 482 tabread notes;
#X obj 902 506 sel 59 71;
#X obj 883 547 bng 15 250 50 0 empty empty empty 17 7 0 10 -262144
-1 -1;
#X obj 937 551 bng 15 250 50 0 empty empty empty 17 7 0 10 -262144
-1 -1;
#X obj 979 554 bng 15 250 50 0 empty empty empty 17 7 0 10 -262144
-1 -1;
#X obj 906 404 r pulse;
#X obj 1378 708 bng 15 250 50 0 empty empty empty 17 7 0 10 -262144
-1 -1;
#X obj 1435 737 i;
#X floatatom 1427 769 5 0 0 0 - - -;
#N canvas 0 50 450 300 pt 0;
#X obj 38 17 inlet;
#X obj 38 41 random 100;
#X obj 38 89 outlet;
#X obj 38 65 moses 70;
#X connect 0 0 1 0;
#X connect 1 0 3 0;
#X connect 3 0 2 0;
#X restore 1438 685 pd pt;
#X obj 1438 709 bng 15 250 50 0 empty empty empty 17 7 0 10 -262144
-1 -1;
#X obj 1492 737 i;
#X floatatom 1484 769 5 0 0 0 - - -;
#N canvas 0 50 450 300 pt 0;
#X obj 38 17 inlet;
#X obj 38 41 random 100;
#X obj 38 89 outlet;
#X obj 38 66 moses 70;
#X connect 0 0 1 0;
#X connect 1 0 3 0;
#X connect 3 0 2 0;
#X restore 1495 685 pd pt;
#X obj 1495 709 bng 15 250 50 0 empty empty empty 17 7 0 10 -262144
-1 -1;
#X obj 1544 742 i;
#X floatatom 1536 774 5 0 0 0 - - -;
#N canvas 0 50 450 300 pt 0;
#X obj 38 17 inlet;
#X obj 38 41 random 100;
#X obj 38 89 outlet;
#X obj 38 65 moses 70;
#X connect 0 0 1 0;
#X connect 1 0 3 0;
#X connect 3 0 2 0;
#X restore 1547 690 pd pt;
#X obj 1547 714 bng 15 250 50 0 empty empty empty 17 7 0 10 -262144
-1 -1;
#X obj 1606 739 i;
#X floatatom 1598 771 5 0 0 0 - - -;
#N canvas 0 50 450 300 pt 0;
#X obj 38 17 inlet;
#X obj 38 41 random 100;
#X obj 38 89 outlet;
#X obj 38 65 moses 70;
#X connect 0 0 1 0;
#X connect 1 0 3 0;
#X connect 3 0 2 0;
#X restore 1609 687 pd pt;
#X obj 1609 711 bng 15 250 50 0 empty empty empty 17 7 0 10 -262144
-1 -1;
#X obj 1179 548 + 1;
#X floatatom 1179 596 5 0 0 0 - - -;
#X obj 1328 458 bng 15 250 50 0 empty empty empty 17 7 0 10 -262144
-1 -1;
#X obj 1328 502 tgl 15 0 empty empty empty 17 7 0 10 -262144 -1 -1
0 1;
#X floatatom 1382 472 5 0 0 0 - - -;
#X obj 1391 493 metro;
#X obj 1413 581 bng 15 250 50 0 empty empty empty 17 7 0 10 -262144
-1 -1;
#X obj 1299 444 bng 15 250 50 0 empty empty in 17 7 0 10 -262144 -1
-1;
#X obj 1328 478 delay;
#X obj 1179 524 i -1;
#X obj 1373 441 r quaternote;
#X floatatom 1312 596 5 0 0 0 - - -;
#X obj 1017 734 i;
#X floatatom 1009 766 5 0 0 0 - - -;
#X obj 1302 571 tabread notes;
#X obj 1020 706 bng 15 250 50 0 empty empty empty 17 7 0 10 -262144
-1 -1;
#X obj 1077 735 i;
#X floatatom 1069 767 5 0 0 0 - - -;
#N canvas 0 50 450 300 pt 0;
#X obj 38 17 inlet;
#X obj 38 41 random 100;
#X obj 38 89 outlet;
#X obj 38 65 moses 70;
#X connect 0 0 1 0;
#X connect 1 0 3 0;
#X connect 3 0 2 0;
#X restore 1080 683 pd pt;
#X obj 1080 707 bng 15 250 50 0 empty empty empty 17 7 0 10 -262144
-1 -1;
#X obj 1134 735 i;
#X floatatom 1126 767 5 0 0 0 - - -;
#N canvas 0 50 450 300 pt 0;
#X obj 38 17 inlet;
#X obj 38 41 random 100;
#X obj 38 89 outlet;
#X obj 38 65 moses 70;
#X connect 0 0 1 0;
#X connect 1 0 3 0;
#X connect 3 0 2 0;
#X restore 1137 683 pd pt;
#X obj 1137 707 bng 15 250 50 0 empty empty empty 17 7 0 10 -262144
-1 -1;
#X obj 1186 740 i;
#X floatatom 1178 772 5 0 0 0 - - -;
#N canvas 0 50 450 300 pt 0;
#X obj 38 17 inlet;
#X obj 38 41 random 100;
#X obj 38 89 outlet;
#X obj 38 65 moses 70;
#X connect 0 0 1 0;
#X connect 1 0 3 0;
#X connect 3 0 2 0;
#X restore 1189 688 pd pt;
#X obj 1189 712 bng 15 250 50 0 empty empty empty 17 7 0 10 -262144
-1 -1;
#X obj 1248 737 i;
#X floatatom 1240 769 5 0 0 0 - - -;
#N canvas 0 50 450 300 pt 0;
#X obj 38 17 inlet;
#X obj 38 41 random 100;
#X obj 38 89 outlet;
#X obj 38 65 moses 70;
#X connect 0 0 1 0;
#X connect 1 0 3 0;
#X connect 3 0 2 0;
#X restore 1251 685 pd pt;
#X obj 1251 709 bng 15 250 50 0 empty empty empty 17 7 0 10 -262144
-1 -1;
#X msg 865 579 0;
#X msg 917 582 7;
#X obj 979 574 s v2_rand;
#X obj 883 619 s v2_hold;
#X obj 1426 471 / 5;
#X obj 1785 468 / 5;
#X obj 1690 414 r v2_rand;
#X obj 1331 418 r v2_hold;
#X obj 1180 572 % 5;
#X obj 1538 574 % 5;
#X obj 1534 632 sel 0 1 2 3 4;
#X obj 1176 630 sel 0 1 2 3 4;
#X obj 1008 794 s v2;
#X obj 1068 795 s v2;
#X obj 1125 795 s v2;
#X obj 1177 800 s v2;
#X obj 1238 797 s v2;
#X obj 1366 796 s v2;
#X obj 1427 797 s v2;
#X obj 1483 797 s v2;
#X obj 1535 803 s v2;
#X obj 1597 799 s v2;
#X obj 1050 968 r v2;
#X msg 1359 1145 1 5;
#X obj 1421 1117 delay 5;
#X msg 1262 1312 1 10;
#X msg 1327 1314 0 200;
#X obj 1621 871 r v3;
#X obj 255 142 - 0;
#X obj 538 490 + 1;
#X floatatom 538 538 5 0 0 0 - - -;
#X obj 688 395 bng 15 250 50 0 empty empty empty 17 7 0 10 -262144
-1 -1;
#X obj 688 439 tgl 15 0 empty empty empty 17 7 0 10 -262144 -1 -1 0
1;
#X floatatom 742 409 5 0 0 0 - - -;
#X obj 751 430 metro;
#X obj 773 518 bng 15 250 50 0 empty empty empty 17 7 0 10 -262144
-1 -1;
#X obj 613 369 bng 15 250 50 0 empty empty in 17 7 0 10 -262144 -1
-1;
#X obj 688 415 delay;
#X obj 538 466 i -1;
#X obj 733 378 r quaternote;
#X obj 492 692 i;
#X floatatom 484 724 5 0 0 0 - - -;
#X obj 662 508 tabread notes;
#X floatatom 67 278 5 0 0 0 - - -;
#X obj 67 301 tabread notes;
#X obj 67 325 sel 59 71;
#X obj 48 366 bng 15 250 50 0 empty empty empty 17 7 0 10 -262144 -1
-1;
#X obj 102 370 bng 15 250 50 0 empty empty empty 17 7 0 10 -262144
-1 -1;
#X obj 144 373 bng 15 250 50 0 empty empty empty 17 7 0 10 -262144
-1 -1;
#X obj 71 223 r pulse;
#X obj 495 664 bng 15 250 50 0 empty empty empty 17 7 0 10 -262144
-1 -1;
#X obj 552 693 i;
#X floatatom 544 725 5 0 0 0 - - -;
#N canvas 0 50 450 300 pt 0;
#X obj 38 17 inlet;
#X obj 38 41 random 100;
#X obj 38 89 outlet;
#X obj 38 65 moses 75;
#X connect 0 0 1 0;
#X connect 1 0 3 0;
#X connect 3 0 2 0;
#X restore 555 641 pd pt;
#X obj 555 665 bng 15 250 50 0 empty empty empty 17 7 0 10 -262144
-1 -1;
#X obj 609 693 i;
#X floatatom 601 725 5 0 0 0 - - -;
#N canvas 0 50 450 300 pt 0;
#X obj 38 17 inlet;
#X obj 38 41 random 100;
#X obj 38 89 outlet;
#X obj 38 66 moses 75;
#X connect 0 0 1 0;
#X connect 1 0 3 0;
#X connect 3 0 2 0;
#X restore 612 641 pd pt;
#X obj 612 665 bng 15 250 50 0 empty empty empty 17 7 0 10 -262144
-1 -1;
#X obj 180 488 + 1;
#X floatatom 180 536 5 0 0 0 - - -;
#X obj 329 398 bng 15 250 50 0 empty empty empty 17 7 0 10 -262144
-1 -1;
#X obj 329 442 tgl 15 0 empty empty empty 17 7 0 10 -262144 -1 -1 0
1;
#X floatatom 383 412 5 0 0 0 - - -;
#X obj 392 433 metro;
#X obj 414 521 bng 15 250 50 0 empty empty empty 17 7 0 10 -262144
-1 -1;
#X obj 298 379 bng 15 250 50 0 empty empty in 17 7 0 10 -262144 -1
-1;
#X obj 329 418 delay;
#X obj 180 464 i -1;
#X obj 374 381 r quaternote;
#X floatatom 313 536 5 0 0 0 - - -;
#X obj 155 693 i;
#X floatatom 147 725 5 0 0 0 - - -;
#X obj 303 511 tabread notes;
#X obj 158 665 bng 15 250 50 0 empty empty empty 17 7 0 10 -262144
-1 -1;
#X obj 215 694 i;
#X floatatom 207 726 5 0 0 0 - - -;
#N canvas 0 50 450 300 pt 0;
#X obj 38 17 inlet;
#X obj 38 41 random 100;
#X obj 38 89 outlet;
#X obj 38 65 moses 75;
#X connect 0 0 1 0;
#X connect 1 0 3 0;
#X connect 3 0 2 0;
#X restore 218 642 pd pt;
#X obj 218 666 bng 15 250 50 0 empty empty empty 17 7 0 10 -262144
-1 -1;
#X obj 272 694 i;
#X floatatom 264 726 5 0 0 0 - - -;
#N canvas 0 50 450 300 pt 0;
#X obj 38 17 inlet;
#X obj 38 41 random 100;
#X obj 38 89 outlet;
#X obj 41 64 moses 75;
#X connect 0 0 1 0;
#X connect 1 0 3 0;
#X connect 3 0 2 0;
#X restore 275 642 pd pt;
#X obj 275 666 bng 15 250 50 0 empty empty empty 17 7 0 10 -262144
-1 -1;
#X msg 30 398 0;
#X msg 82 401 7;
#X obj 786 408 / 3;
#X obj 427 411 / 3;
#X obj 181 512 % 3;
#X obj 539 514 % 3;
#X obj 177 570 sel 0 1 2;
#X obj 535 572 sel 0 1 2;
#X obj 691 354 r v1_rand;
#X obj 332 358 r v1_hold;
#X obj 146 753 s v1;
#X obj 206 754 s v1;
#X obj 263 754 s v1;
#X obj 483 752 s v1;
#X obj 544 753 s v1;
#X obj 600 753 s v1;
#X obj 144 393 s v1_rand;
#X obj 50 437 s v1_hold;
#X obj 206 799 r v1;
#X obj 460 1140 delay 250;
#X obj 1663 1289 cos~;
#X obj 1676 1162 phasor~;
#X obj 1578 1276 cos~;
#X obj 1676 1188 *~ 0.5;
#X msg 1747 1118 1 75;
#X obj 1817 1084 delay 150;
#X obj 1615 969 + 0;
#X msg 1819 1116 0 150;
#X obj 1629 1072 * 0.5;
#X obj 1212 298 i;
#X floatatom 1204 330 5 0 0 0 - - -;
#X obj 1203 358 s v3;
#N canvas 0 50 450 300 pt 0;
#X obj 38 17 inlet;
#X obj 38 41 random 100;
#X obj 38 65 moses 66;
#X obj 38 89 outlet;
#X connect 0 0 1 0;
#X connect 1 0 2 0;
#X connect 2 0 3 0;
#X restore 1215 246 pd pt;
#X obj 1215 270 bng 15 250 50 0 empty empty empty 17 7 0 10 -262144
-1 -1;
#X obj 1675 302 i;
#X floatatom 1667 334 5 0 0 0 - - -;
#X obj 1666 362 s v3;
#N canvas 0 50 450 300 pt 0;
#X obj 38 17 inlet;
#X obj 38 41 random 100;
#X obj 38 65 moses 66;
#X obj 38 89 outlet;
#X connect 0 0 1 0;
#X connect 1 0 2 0;
#X connect 2 0 3 0;
#X restore 1678 250 pd pt;
#X obj 1678 274 bng 15 250 50 0 empty empty empty 17 7 0 10 -262144
-1 -1;
#X obj 1374 50 / 7;
#X obj 1831 58 / 7;
#X obj 1052 131 % 7;
#X obj 1509 140 % 7;
#X obj 1049 194 sel 0 1 2 3 4 5 6;
#X obj 1505 198 sel 0 1 2 3 4 5 6;
#X obj 1050 992 + 12;
#X obj 1123 1215 *~;
#X obj 1580 1108 * 1;
#X obj 735 1355 *~ 0.15;
#X obj 257 1049 *~ 0.25;
#X obj 472 1251 *~ 0.15;
#X obj 1399 1020 / 10;
#X obj 1024 1196 *~ 0.2;
#X obj 1580 1192 *~ 2;
#X msg 241 20 \; notes 0 59 62 63 64 66 67 69 71 59 67 71 79;
#X floatatom 729 47 5 0 0 0 - - -;
#X obj 820 15 bng 15 250 50 0 empty empty empty 17 7 0 10 -262144 -1
-1;
#X msg 872 4 6 is Dorian characteristic sound \, root \, 6 and their
octaves are repeated for higher probability;
#X text 382 237;
#X obj 67 254 random 12;
#X obj 601 71 random 12;
#X obj 691 467 random 12;
#X obj 902 435 random 12;
#X obj 1690 527 random 12;
#X obj 264 978 * 0.75;
#X obj 1130 1120 * 1.125;
#X obj 1123 1191 *~ 0.15;
#X msg 45 38 1200;
#X obj 593 1275 *~ 0.35;
#X connect 0 0 2 0;
#X connect 0 0 389 0;
#X connect 0 0 376 0;
#X connect 0 0 7 0;
#X connect 0 0 378 0;
#X connect 1 0 2 1;
#X connect 1 0 267 0;
#X connect 2 0 3 0;
#X connect 3 0 389 0;
#X connect 3 0 6 0;
#X connect 9 0 10 0;
#X connect 10 0 14 0;
#X connect 11 0 15 0;
#X connect 12 0 368 1;
#X connect 13 0 262 0;
#X connect 13 0 263 0;
#X connect 14 0 390 0;
#X connect 15 0 9 0;
#X connect 16 0 388 0;
#X connect 17 0 16 0;
#X connect 18 0 26 0;
#X connect 19 0 11 0;
#X connect 19 0 28 0;
#X connect 19 0 387 0;
#X connect 21 0 22 0;
#X connect 22 0 9 1;
#X connect 23 0 14 1;
#X connect 23 0 21 1;
#X connect 24 0 264 0;
#X connect 24 0 25 0;
#X connect 25 0 265 0;
#X connect 26 0 374 0;
#X connect 27 0 12 0;
#X connect 28 0 18 0;
#X connect 29 0 30 0;
#X connect 30 0 32 0;
#X connect 31 0 33 0;
#X connect 32 0 370 0;
#X connect 33 0 29 0;
#X connect 34 0 41 0;
#X connect 35 0 31 0;
#X connect 35 0 350 0;
#X connect 35 0 369 0;
#X connect 36 0 37 0;
#X connect 37 0 344 0;
#X connect 38 0 342 0;
#X connect 39 0 36 1;
#X connect 39 0 32 1;
#X connect 39 0 38 1;
#X connect 40 0 346 0;
#X connect 40 0 347 0;
#X connect 41 0 375 0;
#X connect 42 0 43 0;
#X connect 43 0 45 0;
#X connect 44 0 46 0;
#X connect 45 0 372 0;
#X connect 46 0 42 0;
#X connect 47 0 371 0;
#X connect 48 0 47 0;
#X connect 49 0 57 0;
#X connect 50 0 44 0;
#X connect 50 0 60 0;
#X connect 50 0 386 0;
#X connect 51 0 54 0;
#X connect 52 0 53 0;
#X connect 53 0 59 0;
#X connect 54 0 61 0;
#X connect 55 0 52 1;
#X connect 55 0 45 1;
#X connect 55 0 51 1;
#X connect 56 0 62 0;
#X connect 56 0 341 0;
#X connect 57 0 63 0;
#X connect 58 0 55 0;
#X connect 59 0 42 1;
#X connect 60 0 49 0;
#X connect 61 0 53 1;
#X connect 62 0 55 0;
#X connect 63 0 52 0;
#X connect 64 0 373 0;
#X connect 65 0 66 1;
#X connect 66 0 13 0;
#X connect 67 0 66 0;
#X connect 68 0 69 0;
#X connect 69 0 50 0;
#X connect 70 0 35 0;
#X connect 71 0 364 0;
#X connect 72 0 366 0;
#X connect 73 0 79 0;
#X connect 74 0 76 0;
#X connect 75 0 79 1;
#X connect 75 0 362 0;
#X connect 76 0 77 0;
#X connect 76 0 95 0;
#X connect 77 0 80 0;
#X connect 78 0 73 0;
#X connect 78 0 74 0;
#X connect 79 0 74 0;
#X connect 80 0 71 0;
#X connect 81 0 75 0;
#X connect 82 0 116 1;
#X connect 82 0 111 1;
#X connect 82 0 106 1;
#X connect 82 0 101 1;
#X connect 82 0 96 1;
#X connect 82 0 83 1;
#X connect 82 0 356 1;
#X connect 83 0 84 0;
#X connect 84 0 86 0;
#X connect 85 0 82 0;
#X connect 87 0 88 0;
#X connect 88 0 89 0;
#X connect 89 0 90 0;
#X connect 89 1 91 0;
#X connect 89 2 92 0;
#X connect 90 0 163 0;
#X connect 91 0 164 0;
#X connect 92 0 166 0;
#X connect 93 0 382 0;
#X connect 94 0 83 0;
#X connect 95 0 85 0;
#X connect 96 0 97 0;
#X connect 97 0 98 0;
#X connect 99 0 100 0;
#X connect 100 0 96 0;
#X connect 101 0 102 0;
#X connect 102 0 103 0;
#X connect 104 0 105 0;
#X connect 105 0 101 0;
#X connect 106 0 107 0;
#X connect 107 0 108 0;
#X connect 109 0 110 0;
#X connect 110 0 106 0;
#X connect 111 0 112 0;
#X connect 112 0 113 0;
#X connect 114 0 115 0;
#X connect 115 0 111 0;
#X connect 116 0 117 0;
#X connect 117 0 118 0;
#X connect 119 0 120 0;
#X connect 120 0 116 0;
#X connect 121 0 363 0;
#X connect 122 0 365 0;
#X connect 123 0 129 0;
#X connect 124 0 126 0;
#X connect 125 0 129 1;
#X connect 125 0 361 0;
#X connect 126 0 127 0;
#X connect 127 0 130 0;
#X connect 128 0 123 0;
#X connect 128 0 124 0;
#X connect 129 0 124 0;
#X connect 130 0 121 0;
#X connect 131 0 125 0;
#X connect 132 0 158 1;
#X connect 132 0 153 1;
#X connect 132 0 148 1;
#X connect 132 0 143 1;
#X connect 132 0 138 1;
#X connect 132 0 133 1;
#X connect 132 0 351 1;
#X connect 133 0 134 0;
#X connect 134 0 136 0;
#X connect 135 0 132 0;
#X connect 137 0 133 0;
#X connect 138 0 139 0;
#X connect 139 0 140 0;
#X connect 141 0 142 0;
#X connect 142 0 138 0;
#X connect 143 0 144 0;
#X connect 144 0 145 0;
#X connect 146 0 147 0;
#X connect 147 0 143 0;
#X connect 148 0 149 0;
#X connect 149 0 150 0;
#X connect 151 0 152 0;
#X connect 152 0 148 0;
#X connect 153 0 154 0;
#X connect 154 0 155 0;
#X connect 156 0 157 0;
#X connect 157 0 153 0;
#X connect 158 0 159 0;
#X connect 159 0 160 0;
#X connect 161 0 162 0;
#X connect 162 0 158 0;
#X connect 163 0 165 0;
#X connect 164 0 165 0;
#X connect 167 0 78 0;
#X connect 168 0 128 0;
#X connect 168 0 135 0;
#X connect 169 0 248 0;
#X connect 170 0 249 0;
#X connect 171 0 177 0;
#X connect 172 0 174 0;
#X connect 173 0 177 1;
#X connect 173 0 244 0;
#X connect 174 0 175 0;
#X connect 174 0 385 0;
#X connect 175 0 178 0;
#X connect 176 0 171 0;
#X connect 176 0 172 0;
#X connect 177 0 172 0;
#X connect 178 0 169 0;
#X connect 179 0 173 0;
#X connect 180 0 181 0;
#X connect 181 0 256 0;
#X connect 182 0 180 1;
#X connect 182 0 191 1;
#X connect 182 0 199 1;
#X connect 182 0 203 1;
#X connect 182 0 195 1;
#X connect 183 0 184 0;
#X connect 184 0 185 0;
#X connect 185 0 186 0;
#X connect 185 1 187 0;
#X connect 185 2 188 0;
#X connect 186 0 239 0;
#X connect 187 0 240 0;
#X connect 188 0 241 0;
#X connect 189 0 384 0;
#X connect 190 0 180 0;
#X connect 191 0 192 0;
#X connect 192 0 257 0;
#X connect 193 0 194 0;
#X connect 194 0 191 0;
#X connect 195 0 196 0;
#X connect 196 0 258 0;
#X connect 197 0 198 0;
#X connect 198 0 195 0;
#X connect 199 0 200 0;
#X connect 200 0 259 0;
#X connect 201 0 202 0;
#X connect 202 0 199 0;
#X connect 203 0 204 0;
#X connect 204 0 260 0;
#X connect 205 0 206 0;
#X connect 206 0 203 0;
#X connect 207 0 247 0;
#X connect 208 0 250 0;
#X connect 209 0 215 0;
#X connect 210 0 212 0;
#X connect 211 0 215 1;
#X connect 211 0 243 0;
#X connect 212 0 213 0;
#X connect 213 0 216 0;
#X connect 214 0 209 0;
#X connect 214 0 210 0;
#X connect 215 0 210 0;
#X connect 216 0 207 0;
#X connect 217 0 211 0;
#X connect 218 0 235 1;
#X connect 218 0 231 1;
#X connect 218 0 227 1;
#X connect 218 0 223 1;
#X connect 218 0 219 1;
#X connect 219 0 220 0;
#X connect 220 0 251 0;
#X connect 221 0 218 0;
#X connect 222 0 219 0;
#X connect 223 0 224 0;
#X connect 224 0 252 0;
#X connect 225 0 226 0;
#X connect 226 0 223 0;
#X connect 227 0 228 0;
#X connect 228 0 253 0;
#X connect 229 0 230 0;
#X connect 230 0 227 0;
#X connect 231 0 232 0;
#X connect 232 0 254 0;
#X connect 233 0 234 0;
#X connect 234 0 231 0;
#X connect 235 0 236 0;
#X connect 236 0 255 0;
#X connect 237 0 238 0;
#X connect 238 0 235 0;
#X connect 239 0 242 0;
#X connect 240 0 242 0;
#X connect 243 0 212 1;
#X connect 244 0 174 1;
#X connect 245 0 176 0;
#X connect 246 0 214 0;
#X connect 246 0 221 0;
#X connect 247 0 208 0;
#X connect 247 0 216 1;
#X connect 248 0 170 0;
#X connect 248 0 178 1;
#X connect 249 0 190 0;
#X connect 249 1 193 0;
#X connect 249 2 197 0;
#X connect 249 3 201 0;
#X connect 249 4 205 0;
#X connect 250 0 222 0;
#X connect 250 1 225 0;
#X connect 250 2 229 0;
#X connect 250 3 233 0;
#X connect 250 4 237 0;
#X connect 261 0 24 0;
#X connect 261 0 367 0;
#X connect 262 0 12 0;
#X connect 263 0 27 0;
#X connect 264 0 23 0;
#X connect 265 0 23 0;
#X connect 266 0 40 0;
#X connect 266 0 348 0;
#X connect 267 0 4 0;
#X connect 268 0 327 0;
#X connect 269 0 329 0;
#X connect 270 0 276 0;
#X connect 271 0 273 0;
#X connect 272 0 276 1;
#X connect 272 0 324 0;
#X connect 273 0 274 0;
#X connect 273 0 383 0;
#X connect 274 0 277 0;
#X connect 275 0 270 0;
#X connect 275 0 271 0;
#X connect 276 0 271 0;
#X connect 277 0 268 0;
#X connect 278 0 272 0;
#X connect 279 0 280 0;
#X connect 280 0 335 0;
#X connect 281 0 279 1;
#X connect 281 0 290 1;
#X connect 281 0 294 1;
#X connect 282 0 283 0;
#X connect 283 0 284 0;
#X connect 284 0 285 0;
#X connect 284 1 286 0;
#X connect 284 2 287 0;
#X connect 285 0 322 0;
#X connect 286 0 323 0;
#X connect 287 0 338 0;
#X connect 288 0 381 0;
#X connect 289 0 279 0;
#X connect 290 0 291 0;
#X connect 291 0 336 0;
#X connect 292 0 293 0;
#X connect 293 0 290 0;
#X connect 294 0 295 0;
#X connect 295 0 337 0;
#X connect 296 0 297 0;
#X connect 297 0 294 0;
#X connect 298 0 326 0;
#X connect 299 0 328 0;
#X connect 300 0 306 0;
#X connect 301 0 303 0;
#X connect 302 0 306 1;
#X connect 302 0 325 0;
#X connect 303 0 304 0;
#X connect 304 0 307 0;
#X connect 305 0 300 0;
#X connect 305 0 301 0;
#X connect 306 0 301 0;
#X connect 307 0 298 0;
#X connect 308 0 302 0;
#X connect 309 0 318 1;
#X connect 309 0 314 1;
#X connect 309 0 310 1;
#X connect 310 0 311 0;
#X connect 311 0 332 0;
#X connect 312 0 309 0;
#X connect 313 0 310 0;
#X connect 314 0 315 0;
#X connect 315 0 333 0;
#X connect 316 0 317 0;
#X connect 317 0 314 0;
#X connect 318 0 319 0;
#X connect 319 0 334 0;
#X connect 320 0 321 0;
#X connect 321 0 318 0;
#X connect 322 0 339 0;
#X connect 323 0 339 0;
#X connect 324 0 273 1;
#X connect 325 0 303 1;
#X connect 326 0 299 0;
#X connect 326 0 307 1;
#X connect 327 0 269 0;
#X connect 327 0 277 1;
#X connect 328 0 313 0;
#X connect 328 1 316 0;
#X connect 328 2 320 0;
#X connect 329 0 289 0;
#X connect 329 1 292 0;
#X connect 329 2 296 0;
#X connect 330 0 275 0;
#X connect 331 0 305 0;
#X connect 331 0 312 0;
#X connect 340 0 68 0;
#X connect 340 0 56 0;
#X connect 341 0 58 0;
#X connect 342 0 37 1;
#X connect 343 0 345 0;
#X connect 344 0 29 1;
#X connect 345 0 38 0;
#X connect 346 0 39 0;
#X connect 347 0 349 0;
#X connect 348 0 70 0;
#X connect 349 0 39 0;
#X connect 350 0 343 0;
#X connect 351 0 352 0;
#X connect 352 0 353 0;
#X connect 354 0 355 0;
#X connect 355 0 351 0;
#X connect 356 0 357 0;
#X connect 357 0 358 0;
#X connect 359 0 360 0;
#X connect 360 0 356 0;
#X connect 361 0 126 1;
#X connect 362 0 76 1;
#X connect 363 0 122 0;
#X connect 363 0 130 1;
#X connect 364 0 72 0;
#X connect 364 0 80 1;
#X connect 365 0 137 0;
#X connect 365 1 141 0;
#X connect 365 2 146 0;
#X connect 365 3 151 0;
#X connect 365 4 156 0;
#X connect 365 5 161 0;
#X connect 365 6 354 0;
#X connect 366 0 94 0;
#X connect 366 1 99 0;
#X connect 366 2 104 0;
#X connect 366 3 109 0;
#X connect 366 4 114 0;
#X connect 366 5 119 0;
#X connect 366 6 359 0;
#X connect 367 0 19 0;
#X connect 368 0 22 1;
#X connect 369 0 34 0;
#X connect 370 0 20 0;
#X connect 370 0 20 1;
#X connect 371 0 51 0;
#X connect 372 0 20 0;
#X connect 372 0 20 1;
#X connect 373 0 65 0;
#X connect 374 0 21 0;
#X connect 375 0 36 0;
#X connect 377 0 381 1;
#X connect 377 0 382 1;
#X connect 377 0 383 1;
#X connect 377 0 384 1;
#X connect 377 0 385 1;
#X connect 378 0 377 0;
#X connect 381 0 282 0;
#X connect 382 0 87 0;
#X connect 383 0 281 0;
#X connect 384 0 183 0;
#X connect 385 0 182 0;
#X connect 386 0 48 0;
#X connect 387 0 17 0;
#X connect 388 0 368 0;
#X connect 389 0 1 0;
#X connect 390 0 20 0;
#X connect 390 0 20 1;
