#N canvas -8 -8 1920 997 12;
#X obj 17 19 tgl 15 0 empty empty empty 17 7 0 10 -262144 -1 -1 0 1
;
#N canvas 1057 147 450 300 two_notes 1;
#X obj 104 60 inlet;
#X obj 104 84 metro 500;
#X obj 104 108 tgl 15 0 empty empty empty 17 7 0 10 -262144 -1 -1 0
1;
#X obj 104 128 sel 0 1;
#X msg 104 173 60;
#X msg 139 173 67;
#X floatatom 104 201 5 0 0 0 - - -;
#X obj 104 224 outlet;
#X connect 0 0 1 0;
#X connect 1 0 2 0;
#X connect 2 0 3 0;
#X connect 3 0 4 0;
#X connect 3 1 5 0;
#X connect 4 0 6 0;
#X connect 5 0 6 0;
#X connect 6 0 7 0;
#X restore 17 40 pd two_notes;
#X floatatom 17 64 5 0 0 0 - - -;
#X obj 17 95 mtof;
#X obj 17 133 osc~;
#X obj 17 190 *~;
#X obj 17 232 dac~;
#X floatatom 78 163 5 0 0.2 1 volume - -;
#X connect 0 0 1 0;
#X connect 1 0 2 0;
#X connect 2 0 3 0;
#X connect 3 0 4 0;
#X connect 4 0 5 0;
#X connect 5 0 6 0;
#X connect 5 0 6 1;
#X connect 7 0 5 1;
