#N canvas -8 -8 1920 997 12;
#X obj 17 19 tgl 15 0 empty empty empty 17 7 0 10 #fcfcfc #000000 #000000
0 1;
#N canvas 671 91 450 300 dsp_toggle 0;
#X obj 37 37 inlet;
#X obj 44 102 sel 0 1;
#X msg 4 150 \; pd dsp 0 \;;
#X msg 91 150 \; pd dsp 1 \;;
#X obj 37 61 tgl 15 0 empty empty empty 17 7 0 10 #fcfcfc #000000 #000000
0 1;
#X connect 0 0 4 0;
#X connect 1 0 2 0;
#X connect 1 1 3 0;
#X connect 4 0 1 0;
#X restore 47 42 pd dsp_toggle;
#X obj 830 445 mtof;
#X obj 830 527 osc~;
#X obj 960 530 osc~;
#X obj 894 502 * 0.667;
#X obj 961 503 * 1.334;
#X floatatom 302 437 5 0 0 0 - - - 0;
#X obj 302 468 mtof;
#X obj 302 550 osc~;
#X obj 432 553 osc~;
#X obj 367 525 * 0.5;
#X obj 1516 650 mtof;
#X obj 1516 732 osc~;
#X obj 1349 956 dac~;
#X obj 1580 707 * 1.015;
#X obj 1058 25 tgl 15 0 empty empty empty 17 7 0 10 #fcfcfc #000000
#000000 0 1;
#X obj 1007 126 bng 15 250 50 0 empty empty empty 17 7 0 10 #fcfcfc
#000000 #000000;
#X floatatom 1418 167 5 0 0 0 - - - 0;
#X obj 1331 217 bng 15 250 50 0 empty empty empty 17 7 0 10 #fcfcfc
#000000 #000000;
#X obj 1713 94 / 2;
#X floatatom 1726 207 5 0 0 0 - - - 0;
#X obj 1817 59 / 4;
#X floatatom 1784 207 5 0 0 0 - - - 0;
#X text 1695 183 eight note;
#X text 1777 158 sixteenth note;
#X text 1530 178 quater note;
#X obj 1626 75 * 3;
#X obj 1626 99 / 4;
#X floatatom 1627 208 5 0 0 0 - - - 0;
#X text 1602 155 dotted quater note;
#X floatatom 1561 212 5 0 0 0 - - - 0;
#X obj 1396 303 bng 15 250 50 0 empty empty empty 17 7 0 10 #fcfcfc
#000000 #000000;
#X obj 1546 265 bng 15 250 50 0 empty empty empty 17 7 0 10 #fcfcfc
#000000 #000000;
#X text 1381 235 20%;
#X text 1416 292 40%;
#X text 1523 296 40%;
#X obj 1373 416 makenote 100;
#X obj 1476 415 delay;
#X obj 1418 143 random 480;
#X obj 1418 206 moses 96;
#X obj 1447 263 moses 288;
#X obj 1399 529 makenote 100;
#X obj 1728 437 makenote 100;
#X obj 1831 436 delay;
#X obj 1773 530 makenote 100;
#X obj 1404 589 + 12;
#X obj 1667 450 bng 15 250 50 0 empty empty empty 17 7 0 10 #fcfcfc
#000000 #000000;
#X obj 1742 534 bng 15 250 50 0 empty empty empty 17 7 0 10 #fcfcfc
#000000 #000000;
#X obj 1338 435 bng 15 250 50 0 empty empty empty 17 7 0 10 #fcfcfc
#000000 #000000;
#X obj 1359 534 bng 15 250 50 0 empty empty empty 17 7 0 10 #fcfcfc
#000000 #000000;
#X obj 1680 736 phasor~;
#X obj 1408 443 t f 0;
#X obj 1409 472 spigot;
#X obj 1767 465 t f 0;
#X obj 1767 497 spigot;
#N canvas -8 -8 1920 997 notechooser 0;
#X obj 53 33 inlet;
#X obj 53 244 outlet;
#X msg 51 146 60;
#X msg 89 146 61;
#X msg 127 145 63;
#X msg 166 146 65;
#X msg 202 146 66;
#X msg 241 146 68;
#X msg 280 146 70;
#X msg 319 146 72;
#X text 492 160 C Locrian;
#X floatatom 194 193 5 0 0 0 - - - 0;
#X text 485 223 Characteristic sound of Locrian is b5 \, so root and
b5 are repeated for higher probability;
#X obj 142 66 % 12;
#X obj 142 91 sel 0 1 2 3 4 5 6 7 8 9 10 11;
#X msg 366 145 78;
#X connect 0 0 13 0;
#X connect 2 0 11 0;
#X connect 3 0 11 0;
#X connect 4 0 11 0;
#X connect 5 0 11 0;
#X connect 6 0 11 0;
#X connect 7 0 11 0;
#X connect 8 0 11 0;
#X connect 9 0 11 0;
#X connect 11 0 1 0;
#X connect 13 0 14 0;
#X connect 14 0 2 0;
#X connect 14 1 3 0;
#X connect 14 2 4 0;
#X connect 14 3 5 0;
#X connect 14 4 6 0;
#X connect 14 5 7 0;
#X connect 14 6 8 0;
#X connect 14 7 9 0;
#X connect 14 8 2 0;
#X connect 14 9 6 0;
#X connect 14 10 9 0;
#X connect 14 11 15 0;
#X connect 15 0 11 0;
#X restore 820 291 pd notechooser;
#X obj 1344 312 + 1;
#X obj 1595 358 - 1;
#X obj 1730 801 vcf~ 1;
#X obj 1714 116 - 1;
#X obj 1817 85 - 1;
#X obj 1626 123 - 1;
#X obj 1509 70 - 1;
#X text 1413 84 adjust by -1;
#X obj 461 404 - 12;
#N canvas -8 -8 1920 997 notechooser 0;
#X obj 530 69 inlet;
#X obj 530 280 outlet;
#X msg 528 182 60;
#X msg 566 182 61;
#X msg 604 181 63;
#X msg 643 182 65;
#X msg 679 182 66;
#X msg 718 182 68;
#X msg 757 182 70;
#X msg 796 182 72;
#X text 969 196 C Locrian;
#X floatatom 671 229 5 0 0 0 - - - 0;
#X text 962 259 Characteristic sound of Locrian is b5 \, so root and
b5 are repeated for higher probability;
#X obj 619 102 % 12;
#X obj 619 127 sel 0 1 2 3 4 5 6 7 8 9 10 11;
#X msg 843 181 78;
#X connect 0 0 13 0;
#X connect 2 0 11 0;
#X connect 3 0 11 0;
#X connect 4 0 11 0;
#X connect 5 0 11 0;
#X connect 6 0 11 0;
#X connect 7 0 11 0;
#X connect 8 0 11 0;
#X connect 9 0 11 0;
#X connect 11 0 1 0;
#X connect 13 0 14 0;
#X connect 14 0 2 0;
#X connect 14 1 3 0;
#X connect 14 2 4 0;
#X connect 14 3 5 0;
#X connect 14 4 6 0;
#X connect 14 5 7 0;
#X connect 14 6 8 0;
#X connect 14 7 9 0;
#X connect 14 8 2 0;
#X connect 14 9 6 0;
#X connect 14 10 9 0;
#X connect 14 11 15 0;
#X connect 15 0 11 0;
#X restore 831 361 pd notechooser;
#X floatatom 901 37 5 0 0 0 - - - 0;
#X obj 1059 109 metro 1000;
#X floatatom 1501 0 5 0 0 0 - - - 0;
#X obj 898 109 -;
#X text 386 73 C Locrian;
#X obj 432 577 *~ 0.133;
#X obj 830 551 *~ 0.63;
#X obj 302 574 *~ 0.63;
#N canvas -8 -8 1920 997 notechooser 0;
#X obj 53 33 inlet;
#X obj 53 244 outlet;
#X msg 51 146 60;
#X msg 89 146 61;
#X msg 127 145 63;
#X msg 166 146 65;
#X msg 202 146 66;
#X msg 241 146 68;
#X msg 280 146 70;
#X msg 319 146 72;
#X text 492 160 C Locrian;
#X floatatom 194 193 5 0 0 0 - - - 0;
#X text 485 223 Characteristic sound of Locrian is b5 \, so root and
b5 are repeated for higher probability;
#X obj 142 66 % 12;
#X obj 142 91 sel 0 1 2 3 4 5 6 7 8 9 10 11;
#X msg 366 145 78;
#X connect 0 0 13 0;
#X connect 2 0 11 0;
#X connect 3 0 11 0;
#X connect 4 0 11 0;
#X connect 5 0 11 0;
#X connect 6 0 11 0;
#X connect 7 0 11 0;
#X connect 8 0 11 0;
#X connect 9 0 11 0;
#X connect 11 0 1 0;
#X connect 13 0 14 0;
#X connect 14 0 2 0;
#X connect 14 1 3 0;
#X connect 14 2 4 0;
#X connect 14 3 5 0;
#X connect 14 4 6 0;
#X connect 14 5 7 0;
#X connect 14 6 8 0;
#X connect 14 7 9 0;
#X connect 14 8 2 0;
#X connect 14 9 6 0;
#X connect 14 10 9 0;
#X connect 14 11 15 0;
#X connect 15 0 11 0;
#X restore 1223 371 pd notechooser;
#N canvas -8 -8 1920 997 notechooser 0;
#X obj 53 33 inlet;
#X obj 53 244 outlet;
#X msg 51 146 60;
#X msg 89 146 61;
#X msg 127 145 63;
#X msg 166 146 65;
#X msg 202 146 66;
#X msg 241 146 68;
#X msg 280 146 70;
#X msg 319 146 72;
#X text 492 160 C Locrian;
#X floatatom 194 193 5 0 0 0 - - - 0;
#X text 485 223 Characteristic sound of Locrian is b5 \, so root and
b5 are repeated for higher probability;
#X obj 142 66 % 12;
#X obj 142 91 sel 0 1 2 3 4 5 6 7 8 9 10 11;
#X msg 366 145 78;
#X connect 0 0 13 0;
#X connect 2 0 11 0;
#X connect 3 0 11 0;
#X connect 4 0 11 0;
#X connect 5 0 11 0;
#X connect 6 0 11 0;
#X connect 7 0 11 0;
#X connect 8 0 11 0;
#X connect 9 0 11 0;
#X connect 11 0 1 0;
#X connect 13 0 14 0;
#X connect 14 0 2 0;
#X connect 14 1 3 0;
#X connect 14 2 4 0;
#X connect 14 3 5 0;
#X connect 14 4 6 0;
#X connect 14 5 7 0;
#X connect 14 6 8 0;
#X connect 14 7 9 0;
#X connect 14 8 2 0;
#X connect 14 9 6 0;
#X connect 14 10 9 0;
#X connect 14 11 15 0;
#X connect 15 0 11 0;
#X restore 1396 333 pd notechooser;
#N canvas -8 -8 1920 997 notechooser 0;
#X obj 53 33 inlet;
#X obj 53 244 outlet;
#X msg 51 146 60;
#X msg 89 146 61;
#X msg 127 145 63;
#X msg 166 146 65;
#X msg 202 146 66;
#X msg 241 146 68;
#X msg 280 146 70;
#X msg 319 146 72;
#X text 492 160 C Locrian;
#X floatatom 194 193 5 0 0 0 - - - 0;
#X text 485 223 Characteristic sound of Locrian is b5 \, so root and
b5 are repeated for higher probability;
#X obj 142 66 % 12;
#X obj 142 91 sel 0 1 2 3 4 5 6 7 8 9 10 11;
#X msg 366 145 78;
#X connect 0 0 13 0;
#X connect 2 0 11 0;
#X connect 3 0 11 0;
#X connect 4 0 11 0;
#X connect 5 0 11 0;
#X connect 6 0 11 0;
#X connect 7 0 11 0;
#X connect 8 0 11 0;
#X connect 9 0 11 0;
#X connect 11 0 1 0;
#X connect 13 0 14 0;
#X connect 14 0 2 0;
#X connect 14 1 3 0;
#X connect 14 2 4 0;
#X connect 14 3 5 0;
#X connect 14 4 6 0;
#X connect 14 5 7 0;
#X connect 14 6 8 0;
#X connect 14 7 9 0;
#X connect 14 8 2 0;
#X connect 14 9 6 0;
#X connect 14 10 9 0;
#X connect 14 11 15 0;
#X connect 15 0 11 0;
#X restore 1602 403 pd notechooser;
#N canvas -8 -8 1920 997 notechooser 0;
#X obj 53 33 inlet;
#X obj 53 244 outlet;
#X msg 51 146 60;
#X msg 89 146 61;
#X msg 127 145 63;
#X msg 166 146 65;
#X msg 202 146 66;
#X msg 241 146 68;
#X msg 280 146 70;
#X msg 319 146 72;
#X text 492 160 C Locrian;
#X floatatom 194 193 5 0 0 0 - - - 0;
#X text 485 223 Characteristic sound of Locrian is b5 \, so root and
b5 are repeated for higher probability;
#X obj 142 66 % 12;
#X obj 142 91 sel 0 1 2 3 4 5 6 7 8 9 10 11;
#X msg 366 145 78;
#X connect 0 0 13 0;
#X connect 2 0 11 0;
#X connect 3 0 11 0;
#X connect 4 0 11 0;
#X connect 5 0 11 0;
#X connect 6 0 11 0;
#X connect 7 0 11 0;
#X connect 8 0 11 0;
#X connect 9 0 11 0;
#X connect 11 0 1 0;
#X connect 13 0 14 0;
#X connect 14 0 2 0;
#X connect 14 1 3 0;
#X connect 14 2 4 0;
#X connect 14 3 5 0;
#X connect 14 4 6 0;
#X connect 14 5 7 0;
#X connect 14 6 8 0;
#X connect 14 7 9 0;
#X connect 14 8 2 0;
#X connect 14 9 6 0;
#X connect 14 10 9 0;
#X connect 14 11 15 0;
#X connect 15 0 11 0;
#X restore 1716 356 pd notechooser;
#X text 346 122 Characteristic sound of Locrian is b5 \, so root and
b5 are repeated for higher probability;
#X obj 591 237 /;
#X msg 583 193 1;
#X msg 504 252 0.25;
#X obj 526 306 +;
#X floatatom 378 360 5 0 0 0 - - - 0;
#X obj 366 574 *~ 0.6;
#X floatatom 625 577 5 0 0 0 - - - 0;
#X obj 625 553 + 1;
#X obj 1580 757 *~ 0.225;
#X obj 959 555 *~ 0.125;
#X obj 659 663 / 3;
#X obj 1632 796 vcf~ 0.95;
#X obj 1682 760 *~ 0.133;
#X obj 893 8 cyclone/drunk 12;
#X msg 1155 19 1200;
#X obj 368 550 osc~;
#X obj 830 575 *~ 0.33;
#X obj 960 578 *~ 0.33;
#X obj 894 551 *~ 0.5;
#X obj 1006 440 mtof;
#X obj 1066 396 - 12;
#X obj 955 424 mtof;
#X obj 893 574 *~ 0.25;
#X text 1058 4 start;
#X obj 1681 709 * 3;
#X obj 433 526 * 1.5;
#X obj 1516 756 *~ 0.5;
#X obj 431 460 + 1;
#X floatatom 431 484 5 0 0 0 - - - 0;
#X obj 959 633 *~ 0.25;
#X obj 1717 592 + 1;
#X floatatom 1717 616 5 0 0 0 - - - 0;
#X obj 894 527 osc~;
#X obj 302 636 *~ 0.15;
#X obj 1580 732 osc~;
#X obj 277 681 lop~ 4800;
#X obj 1516 877 hip~ 400;
#X obj 959 657 hip~ 400;
#X obj 1516 853 *~ 0.2;
#X connect 0 0 1 0;
#X connect 2 0 3 0;
#X connect 3 0 73 0;
#X connect 4 0 89 0;
#X connect 5 0 112 0;
#X connect 6 0 4 0;
#X connect 7 0 8 0;
#X connect 8 0 9 0;
#X connect 8 0 11 0;
#X connect 8 0 105 0;
#X connect 9 0 74 0;
#X connect 10 0 72 0;
#X connect 11 0 95 0;
#X connect 12 0 13 0;
#X connect 12 0 15 0;
#X connect 12 0 104 0;
#X connect 13 0 106 0;
#X connect 15 0 91 1;
#X connect 15 0 114 0;
#X connect 16 0 94 0;
#X connect 16 0 68 0;
#X connect 17 0 70 0;
#X connect 17 0 81 0;
#X connect 17 0 82 0;
#X connect 18 0 56 0;
#X connect 18 0 40 0;
#X connect 18 0 80 1;
#X connect 20 0 60 0;
#X connect 22 0 61 0;
#X connect 23 0 42 2;
#X connect 23 0 43 2;
#X connect 23 0 44 1;
#X connect 27 0 28 0;
#X connect 28 0 62 0;
#X connect 29 0 37 2;
#X connect 29 0 38 1;
#X connect 29 0 45 2;
#X connect 37 0 46 0;
#X connect 37 0 49 0;
#X connect 38 0 53 1;
#X connect 39 0 18 0;
#X connect 40 0 19 0;
#X connect 40 0 66 0;
#X connect 40 1 41 0;
#X connect 41 0 32 0;
#X connect 41 0 38 0;
#X connect 41 0 66 0;
#X connect 41 0 76 0;
#X connect 41 0 57 0;
#X connect 41 1 33 0;
#X connect 41 1 44 0;
#X connect 41 1 78 0;
#X connect 41 1 58 0;
#X connect 42 0 46 0;
#X connect 42 0 50 0;
#X connect 43 0 46 0;
#X connect 43 0 47 0;
#X connect 44 0 55 1;
#X connect 45 0 46 0;
#X connect 45 0 48 0;
#X connect 45 0 100 0;
#X connect 46 0 12 0;
#X connect 46 0 99 0;
#X connect 51 0 92 0;
#X connect 52 0 53 0;
#X connect 52 1 53 1;
#X connect 53 0 42 0;
#X connect 54 0 55 0;
#X connect 54 1 55 1;
#X connect 55 0 45 0;
#X connect 56 0 65 0;
#X connect 57 0 75 0;
#X connect 58 0 77 0;
#X connect 59 1 118 0;
#X connect 60 0 21 0;
#X connect 61 0 23 0;
#X connect 62 0 29 0;
#X connect 63 0 31 0;
#X connect 65 0 7 0;
#X connect 66 0 2 0;
#X connect 67 0 70 1;
#X connect 67 0 110 1;
#X connect 68 0 17 0;
#X connect 68 0 39 0;
#X connect 68 0 93 0;
#X connect 69 0 68 1;
#X connect 69 0 63 0;
#X connect 69 0 27 0;
#X connect 69 0 20 0;
#X connect 69 0 22 0;
#X connect 70 0 69 0;
#X connect 72 0 113 0;
#X connect 73 0 96 0;
#X connect 74 0 113 0;
#X connect 75 0 52 0;
#X connect 76 0 37 0;
#X connect 77 0 54 0;
#X connect 78 0 43 0;
#X connect 80 0 83 1;
#X connect 81 0 80 0;
#X connect 82 0 83 0;
#X connect 83 0 84 0;
#X connect 84 0 11 1;
#X connect 84 0 87 0;
#X connect 84 0 92 1;
#X connect 84 0 98 1;
#X connect 84 0 107 0;
#X connect 85 0 113 0;
#X connect 86 0 15 1;
#X connect 86 0 6 1;
#X connect 86 0 90 0;
#X connect 86 0 110 0;
#X connect 87 0 86 0;
#X connect 88 0 91 0;
#X connect 89 0 97 0;
#X connect 90 0 89 1;
#X connect 90 0 85 1;
#X connect 90 0 106 1;
#X connect 91 1 118 0;
#X connect 92 0 59 0;
#X connect 93 0 67 0;
#X connect 94 0 70 0;
#X connect 95 0 85 0;
#X connect 96 0 109 0;
#X connect 97 0 109 0;
#X connect 98 0 102 0;
#X connect 99 0 6 0;
#X connect 100 0 101 0;
#X connect 101 0 5 0;
#X connect 102 0 109 0;
#X connect 104 0 51 0;
#X connect 104 0 59 1;
#X connect 105 0 10 0;
#X connect 106 0 118 0;
#X connect 107 0 108 0;
#X connect 108 0 105 1;
#X connect 109 0 117 0;
#X connect 110 0 111 0;
#X connect 111 0 104 1;
#X connect 111 0 5 1;
#X connect 112 0 98 0;
#X connect 113 0 115 0;
#X connect 114 0 88 0;
#X connect 115 0 14 1;
#X connect 115 0 14 0;
#X connect 116 0 14 0;
#X connect 116 0 14 1;
#X connect 117 0 14 1;
#X connect 117 0 14 0;
#X connect 118 0 116 0;
