#N canvas -8 -8 1920 997 12;
#X obj 98 2262 dac~;
#X obj 116 1939 +~;
#X obj 116 1968 cos~;
#X obj 262 1892 +~;
#X obj 241 1922 cos~;
#X obj 114 1762 mtof;
#X floatatom 115 1794 5 0 0 0 - - -;
#X obj 206 2099 line~;
#X obj 217 2032 bng 15 250 50 0 empty empty empty 17 7 0 10 -262144
-1 -1;
#X obj 135 2104 *~;
#X obj 118 1844 phasor~;
#X obj 307 1837 phasor~;
#X obj 175 1765 mtof;
#X floatatom 175 1789 5 0 0 0 - - -;
#X obj 1451 1976 +~;
#X obj 1451 2000 cos~;
#X obj 1575 1977 +~;
#X obj 1575 2001 cos~;
#X obj 1448 1841 mtof;
#X floatatom 1449 1873 5 0 0 0 - - -;
#X obj 1540 2178 line~;
#X obj 1551 2111 bng 15 250 50 0 empty empty empty 17 7 0 10 -262144
-1 -1;
#X obj 1452 2237 *~;
#X obj 1452 1923 phasor~;
#X obj 1641 1916 phasor~;
#X obj 1509 1844 mtof;
#X floatatom 1509 1868 5 0 0 0 - - -;
#X obj 1575 2025 *~;
#X obj 238 1951 *~;
#X obj 11 -1 tgl 15 0 empty empty empty 17 7 0 10 -262144 -1 -1 1 1
;
#X floatatom 209 64 5 0 0 0 - - -;
#X obj 212 92 metro;
#X obj 185 119 bng 15 250 50 0 empty empty empty 17 7 0 10 -262144
-1 -1;
#X obj 263 181 s quaternote;
#X obj 129 36 table notes;
#X text 261 62 C Aeolian;
#X floatatom 539 157 5 0 0 0 - - -;
#X floatatom 1468 180 5 0 0 0 - - -;
#X obj 453 622 + 1;
#X floatatom 453 670 5 0 0 0 - - -;
#X obj 532 600 bng 15 250 50 0 empty empty empty 17 7 0 10 -262144
-1 -1;
#X obj 532 644 tgl 15 0 empty empty empty 17 7 0 10 -262144 -1 -1 0
1;
#X floatatom 586 614 5 0 0 0 - - -;
#X obj 613 651 metro;
#X obj 613 675 bng 15 250 50 0 empty empty empty 17 7 0 10 -262144
-1 -1;
#X obj 500 585 bng 15 250 50 0 empty empty in 17 7 0 10 -262144 -1
-1;
#X obj 532 620 delay;
#X obj 453 598 i -1;
#X obj 577 583 r quaternote;
#X floatatom 560 694 5 0 0 0 - - -;
#X obj 450 729 i;
#X obj 485 730 i;
#X floatatom 442 761 5 0 0 0 - - -;
#X floatatom 485 763 5 0 0 0 - - -;
#X obj 630 613 / 4;
#X obj 450 695 sel 0 1 2 3;
#X obj 441 789 s v1;
#X obj 235 626 + 1;
#X floatatom 235 674 5 0 0 0 - - -;
#X obj 314 604 bng 15 250 50 0 empty empty empty 17 7 0 10 -262144
-1 -1;
#X obj 314 648 tgl 15 0 empty empty empty 17 7 0 10 -262144 -1 -1 0
1;
#X floatatom 368 618 5 0 0 0 - - -;
#X obj 395 655 metro;
#X obj 395 679 bng 15 250 50 0 empty empty empty 17 7 0 10 -262144
-1 -1;
#X obj 282 589 bng 15 250 50 0 empty empty in 17 7 0 10 -262144 -1
-1;
#X obj 314 624 delay;
#X obj 235 602 i -1;
#X obj 359 587 r quaternote;
#X floatatom 360 698 5 0 0 0 - - -;
#X obj 232 733 i;
#X obj 267 734 i;
#X obj 303 733 i;
#X floatatom 224 765 5 0 0 0 - - -;
#X floatatom 267 767 5 0 0 0 - - -;
#X floatatom 308 761 5 0 0 0 - - -;
#X obj 412 617 / 4;
#X obj 232 699 sel 0 1 2 3;
#X obj 223 790 s v1;
#X obj 22 612 + 1;
#X floatatom 22 660 5 0 0 0 - - -;
#X obj 101 590 bng 15 250 50 0 empty empty empty 17 7 0 10 -262144
-1 -1;
#X obj 101 634 tgl 15 0 empty empty empty 17 7 0 10 -262144 -1 -1 0
1;
#X floatatom 155 604 5 0 0 0 - - -;
#X obj 182 641 metro;
#X obj 182 665 bng 15 250 50 0 empty empty empty 17 7 0 10 -262144
-1 -1;
#X obj 69 575 bng 15 250 50 0 empty empty in 17 7 0 10 -262144 -1 -1
;
#X obj 101 610 delay;
#X obj 22 588 i -1;
#X obj 146 573 r quaternote;
#X floatatom 141 689 5 0 0 0 - - -;
#X obj 19 719 i;
#X obj 90 719 i;
#X floatatom 11 751 5 0 0 0 - - -;
#X floatatom 95 747 5 0 0 0 - - -;
#X obj 199 603 / 4;
#X obj 19 685 sel 0 1 2 3;
#X obj 11 781 s v1;
#X obj 104 550 r v1_hold_ee;
#X obj 317 564 r v1_hold_sse;
#X obj 117 1707 r v1;
#X obj 1563 469 s v1_hold_ee;
#X obj 1534 491 s v1_hold_sse;
#X obj 1543 436 bng 15 250 50 0 empty empty empty 17 7 0 10 -262144
-1 -1;
#X obj 171 145 s pulse;
#N canvas 0 50 450 300 prob33 0;
#X obj 52 11 inlet;
#X obj 52 35 random 72;
#X obj 52 59 moses 24;
#X obj 118 58 moses 48;
#X obj 52 92 outlet;
#X obj 108 92 outlet;
#X obj 158 93 outlet;
#X connect 0 0 1 0;
#X connect 1 0 2 0;
#X connect 2 0 4 0;
#X connect 2 1 3 0;
#X connect 3 0 5 0;
#X connect 3 1 6 0;
#X restore 1568 311 pd prob33;
#X obj 1108 240 r pulse;
#N canvas 0 50 450 300 prob33 0;
#X obj 52 11 inlet;
#X obj 52 35 random 72;
#X obj 52 59 moses 24;
#X obj 118 58 moses 48;
#X obj 53 118 outlet;
#X obj 109 118 outlet;
#X obj 159 119 outlet;
#X obj 52 83 bng 15 250 50 0 empty empty empty 17 7 0 10 -262144 -1
-1;
#X obj 118 82 bng 15 250 50 0 empty empty empty 17 7 0 10 -262144 -1
-1;
#X obj 174 87 bng 15 250 50 0 empty empty empty 17 7 0 10 -262144 -1
-1;
#X connect 0 0 1 0;
#X connect 1 0 2 0;
#X connect 2 0 7 0;
#X connect 2 1 3 0;
#X connect 3 0 8 0;
#X connect 3 1 9 0;
#X connect 7 0 4 0;
#X connect 8 0 5 0;
#X connect 9 0 6 0;
#X restore 1058 296 pd prob33;
#X obj 1470 487 bng 15 250 50 0 empty empty empty 17 7 0 10 -262144
-1 -1;
#X obj 1504 462 bng 15 250 50 0 empty empty empty 17 7 0 10 -262144
-1 -1;
#X obj 1450 1797 - 12;
#X obj 1626 2031 *~;
#X obj 697 1972 +~;
#X obj 697 1996 cos~;
#X obj 821 1973 +~;
#X obj 821 1997 cos~;
#X obj 694 1837 mtof;
#X floatatom 693 1871 5 0 0 0 - - -;
#X obj 786 2174 line~;
#X obj 797 2107 bng 15 250 50 0 empty empty empty 17 7 0 10 -262144
-1 -1;
#X obj 684 2126 *~;
#X obj 698 1919 phasor~;
#X obj 821 2021 *~;
#X obj 872 2027 *~;
#X obj 1066 1855 line~;
#X obj 1077 1788 bng 15 250 50 0 empty empty empty 17 7 0 10 -262144
-1 -1;
#X msg 789 2142 1 40;
#X obj 863 1865 phasor~;
#X obj 1097 1663 r quaternote;
#X obj 1096 1723 metro;
#X obj 6 41 s tg;
#X obj 1044 1673 r tg;
#X obj 744 652 + 1;
#X floatatom 744 700 5 0 0 0 - - -;
#X obj 823 630 bng 15 250 50 0 empty empty empty 17 7 0 10 -262144
-1 -1;
#X obj 823 674 tgl 15 0 empty empty empty 17 7 0 10 -262144 -1 -1 0
1;
#X floatatom 877 644 5 0 0 0 - - -;
#X obj 904 681 metro;
#X obj 904 705 bng 15 250 50 0 empty empty empty 17 7 0 10 -262144
-1 -1;
#X obj 791 615 bng 15 250 50 0 empty empty in 17 7 0 10 -262144 -1
-1;
#X obj 823 650 delay;
#X obj 744 628 i -1;
#X obj 868 613 r quaternote;
#X floatatom 825 723 5 0 0 0 - - -;
#X obj 737 796 i;
#X obj 808 796 i;
#X floatatom 729 828 5 0 0 0 - - -;
#X floatatom 813 824 5 0 0 0 - - -;
#X obj 921 643 / 4;
#X obj 732 743 sel 0 1 2 3;
#X obj 728 852 s v1;
#X obj 826 590 r v1_asc_ee;
#X obj 77 657 tabread notes;
#X obj 279 671 tabread notes;
#X obj 502 665 tabread notes;
#X obj 790 698 tabread notes;
#X floatatom 898 782 5 0 0 0 - - -;
#X obj 874 755 tabread notes;
#X obj 993 643 + 1;
#X floatatom 993 691 5 0 0 0 - - -;
#X obj 1072 621 bng 15 250 50 0 empty empty empty 17 7 0 10 -262144
-1 -1;
#X obj 1072 665 tgl 15 0 empty empty empty 17 7 0 10 -262144 -1 -1
0 1;
#X floatatom 1126 635 5 0 0 0 - - -;
#X obj 1153 672 metro;
#X obj 1153 696 bng 15 250 50 0 empty empty empty 17 7 0 10 -262144
-1 -1;
#X obj 1040 606 bng 15 250 50 0 empty empty in 17 7 0 10 -262144 -1
-1;
#X obj 1072 641 delay;
#X obj 993 619 i -1;
#X obj 1117 604 r quaternote;
#X floatatom 1076 717 5 0 0 0 - - -;
#X obj 986 787 i;
#X obj 1057 787 i;
#X floatatom 978 819 5 0 0 0 - - -;
#X floatatom 1062 815 5 0 0 0 - - -;
#X obj 1170 634 / 4;
#X obj 981 734 sel 0 1 2 3;
#X obj 977 848 s v1;
#X obj 1039 689 tabread notes;
#X floatatom 1147 773 5 0 0 0 - - -;
#X obj 1114 752 tabread notes;
#N canvas 0 50 450 300 prob50 0;
#X obj 42 13 inlet;
#X obj 42 37 random 80;
#X obj 42 61 moses 40;
#X obj 23 101 outlet;
#X obj 89 101 outlet;
#X connect 0 0 1 0;
#X connect 1 0 2 0;
#X connect 2 0 3 0;
#X connect 2 1 4 0;
#X restore 1655 308 pd prob50;
#N canvas 0 50 450 300 prob50 0;
#X obj 42 13 inlet;
#X obj 42 37 random 80;
#X obj 42 61 moses 40;
#X obj 23 101 outlet;
#X obj 89 101 outlet;
#X obj 148 75 bng 15 250 50 0 empty empty empty 17 7 0 10 -262144 -1
-1;
#X obj 21 78 bng 15 250 50 0 empty empty empty 17 7 0 10 -262144 -1
-1;
#X connect 0 0 1 0;
#X connect 1 0 2 0;
#X connect 2 0 6 0;
#X connect 2 1 5 0;
#X connect 5 0 4 0;
#X connect 6 0 3 0;
#X restore 1733 309 pd prob50;
#X obj 1661 373 i;
#X obj 1641 372 bng 15 250 50 0 empty empty empty 17 7 0 10 -262144
-1 -1;
#X obj 1622 399 i;
#X obj 1602 398 bng 15 250 50 0 empty empty empty 17 7 0 10 -262144
-1 -1;
#X obj 1662 405 s v1_asc_ee;
#X obj 1267 647 + 1;
#X floatatom 1267 695 5 0 0 0 - - -;
#X obj 1346 625 bng 15 250 50 0 empty empty empty 17 7 0 10 -262144
-1 -1;
#X obj 1346 669 tgl 15 0 empty empty empty 17 7 0 10 -262144 -1 -1
0 1;
#X floatatom 1400 639 5 0 0 0 - - -;
#X obj 1427 676 metro;
#X obj 1427 700 bng 15 250 50 0 empty empty empty 17 7 0 10 -262144
-1 -1;
#X obj 1314 610 bng 15 250 50 0 empty empty in 17 7 0 10 -262144 -1
-1;
#X obj 1346 645 delay;
#X obj 1267 623 i -1;
#X obj 1391 608 r quaternote;
#X floatatom 1346 714 5 0 0 0 - - -;
#X obj 1260 791 i;
#X obj 1331 791 i;
#X floatatom 1252 823 5 0 0 0 - - -;
#X floatatom 1336 819 5 0 0 0 - - -;
#X obj 1444 638 / 4;
#X obj 1255 738 sel 0 1 2 3;
#X obj 1249 848 s v1;
#X obj 1313 693 tabread notes;
#X floatatom 1421 777 5 0 0 0 - - -;
#X obj 1388 756 tabread notes;
#X obj 1516 638 + 1;
#X floatatom 1516 686 5 0 0 0 - - -;
#X obj 1595 616 bng 15 250 50 0 empty empty empty 17 7 0 10 -262144
-1 -1;
#X obj 1595 660 tgl 15 0 empty empty empty 17 7 0 10 -262144 -1 -1
1 1;
#X floatatom 1649 630 5 0 0 0 - - -;
#X obj 1676 667 metro;
#X obj 1676 691 bng 15 250 50 0 empty empty empty 17 7 0 10 -262144
-1 -1;
#X obj 1563 601 bng 15 250 50 0 empty empty in 17 7 0 10 -262144 -1
-1;
#X obj 1595 636 delay;
#X obj 1516 614 i -1;
#X obj 1640 599 r quaternote;
#X floatatom 1591 715 5 0 0 0 - - -;
#X obj 1509 782 i;
#X obj 1580 782 i;
#X floatatom 1501 814 5 0 0 0 - - -;
#X floatatom 1585 810 5 0 0 0 - - -;
#X obj 1693 629 / 4;
#X obj 1504 729 sel 0 1 2 3;
#X obj 1498 840 s v1;
#X obj 1562 684 tabread notes;
#X floatatom 1670 768 5 0 0 0 - - -;
#X obj 1637 747 tabread notes;
#X obj 1349 585 r v1_desc_ee;
#X obj 1412 729 - 1;
#X obj 1662 720 - 1;
#X obj 1787 446 i;
#X obj 1767 445 bng 15 250 50 0 empty empty empty 17 7 0 10 -262144
-1 -1;
#X obj 1748 472 i;
#X obj 1728 471 bng 15 250 50 0 empty empty empty 17 7 0 10 -262144
-1 -1;
#X obj 1788 478 s v1_desc_ee;
#X obj 95 770 s v1;
#X obj 267 790 s v1;
#X obj 308 784 s v1;
#X obj 485 786 s v1;
#X obj 813 847 s v1;
#X obj 1062 838 s v1;
#X obj 1644 220 r pulse;
#X obj 1336 842 s v1;
#X obj 1585 833 s v1;
#X obj 380 1696 r quaternote;
#X obj 379 1756 metro;
#X obj 327 1706 r tg;
#X obj 417 1909 line~;
#X obj 428 1842 bng 15 250 50 0 empty empty empty 17 7 0 10 -262144
-1 -1;
#X obj 1516 662 % 4;
#X obj 1598 576 r v1_desc_des;
#X obj 993 667 % 4;
#X obj 1267 671 % 4;
#X obj 744 676 % 4;
#X obj 454 646 % 4;
#X obj 235 650 % 4;
#X obj 22 636 % 4;
#X obj 535 560 r v1_hold_des;
#X obj 1075 582 r v1_asc_des;
#N canvas 0 50 450 300 prob50 0;
#X obj 42 13 inlet;
#X obj 42 37 random 80;
#X obj 42 61 moses 40;
#X obj 24 110 outlet;
#X obj 91 112 outlet;
#X obj 44 86 bng 15 250 50 0 empty empty empty 17 7 0 10 -262144 -1
-1;
#X obj 114 88 bng 15 250 50 0 empty empty empty 17 7 0 10 -262144 -1
-1;
#X connect 0 0 1 0;
#X connect 1 0 2 0;
#X connect 2 0 5 0;
#X connect 2 1 6 0;
#X connect 5 0 3 0;
#X connect 6 0 4 0;
#X restore 1134 298 pd prob50;
#X obj 1036 407 bng 15 250 50 0 empty empty empty 17 7 0 10 -262144
-1 -1;
#X obj 963 458 bng 15 250 50 0 empty empty empty 17 7 0 10 -262144
-1 -1;
#X obj 997 433 bng 15 250 50 0 empty empty empty 17 7 0 10 -262144
-1 -1;
#X obj 1154 344 i;
#X obj 1134 343 bng 15 250 50 0 empty empty empty 17 7 0 10 -262144
-1 -1;
#X obj 1115 370 i;
#X obj 1095 369 bng 15 250 50 0 empty empty empty 17 7 0 10 -262144
-1 -1;
#X obj 1280 417 i;
#X obj 1260 416 bng 15 250 50 0 empty empty empty 17 7 0 10 -262144
-1 -1;
#X obj 1241 443 i;
#X obj 1221 442 bng 15 250 50 0 empty empty empty 17 7 0 10 -262144
-1 -1;
#X obj 456 989 + 1;
#X floatatom 456 1037 5 0 0 0 - - -;
#X obj 535 967 bng 15 250 50 0 empty empty empty 17 7 0 10 -262144
-1 -1;
#X obj 535 1011 tgl 15 0 empty empty empty 17 7 0 10 -262144 -1 -1
0 1;
#X floatatom 589 981 5 0 0 0 - - -;
#X obj 616 1018 metro;
#X obj 616 1042 bng 15 250 50 0 empty empty empty 17 7 0 10 -262144
-1 -1;
#X obj 503 952 bng 15 250 50 0 empty empty in 17 7 0 10 -262144 -1
-1;
#X obj 535 987 delay;
#X obj 456 965 i -1;
#X obj 580 950 r quaternote;
#X floatatom 581 1077 5 0 0 0 - - -;
#X obj 453 1096 i;
#X obj 488 1097 i;
#X floatatom 445 1128 5 0 0 0 - - -;
#X floatatom 488 1130 5 0 0 0 - - -;
#X obj 633 980 / 4;
#X obj 453 1062 sel 0 1 2 3;
#X obj 238 993 + 1;
#X floatatom 238 1041 5 0 0 0 - - -;
#X obj 317 971 bng 15 250 50 0 empty empty empty 17 7 0 10 -262144
-1 -1;
#X obj 317 1015 tgl 15 0 empty empty empty 17 7 0 10 -262144 -1 -1
0 1;
#X floatatom 371 985 5 0 0 0 - - -;
#X obj 398 1022 metro;
#X obj 398 1046 bng 15 250 50 0 empty empty empty 17 7 0 10 -262144
-1 -1;
#X obj 285 956 bng 15 250 50 0 empty empty in 17 7 0 10 -262144 -1
-1;
#X obj 317 991 delay;
#X obj 238 969 i -1;
#X obj 362 954 r quaternote;
#X floatatom 358 1071 5 0 0 0 - - -;
#X obj 235 1100 i;
#X obj 270 1101 i;
#X obj 306 1100 i;
#X floatatom 227 1132 5 0 0 0 - - -;
#X floatatom 270 1134 5 0 0 0 - - -;
#X floatatom 311 1128 5 0 0 0 - - -;
#X obj 415 984 / 4;
#X obj 235 1066 sel 0 1 2 3;
#X obj 25 979 + 1;
#X floatatom 25 1027 5 0 0 0 - - -;
#X obj 104 957 bng 15 250 50 0 empty empty empty 17 7 0 10 -262144
-1 -1;
#X obj 104 1001 tgl 15 0 empty empty empty 17 7 0 10 -262144 -1 -1
0 1;
#X floatatom 158 971 5 0 0 0 - - -;
#X obj 185 1008 metro;
#X obj 185 1032 bng 15 250 50 0 empty empty empty 17 7 0 10 -262144
-1 -1;
#X obj 72 942 bng 15 250 50 0 empty empty in 17 7 0 10 -262144 -1 -1
;
#X obj 104 977 delay;
#X obj 25 955 i -1;
#X obj 149 940 r quaternote;
#X floatatom 147 1057 5 0 0 0 - - -;
#X obj 22 1086 i;
#X obj 93 1086 i;
#X floatatom 14 1118 5 0 0 0 - - -;
#X floatatom 98 1114 5 0 0 0 - - -;
#X obj 202 970 / 4;
#X obj 22 1052 sel 0 1 2 3;
#X obj 747 1019 + 1;
#X floatatom 747 1067 5 0 0 0 - - -;
#X obj 826 997 bng 15 250 50 0 empty empty empty 17 7 0 10 -262144
-1 -1;
#X obj 826 1041 tgl 15 0 empty empty empty 17 7 0 10 -262144 -1 -1
1 1;
#X floatatom 880 1011 5 0 0 0 - - -;
#X obj 907 1048 metro;
#X obj 907 1072 bng 15 250 50 0 empty empty empty 17 7 0 10 -262144
-1 -1;
#X obj 794 982 bng 15 250 50 0 empty empty in 17 7 0 10 -262144 -1
-1;
#X obj 826 1017 delay;
#X obj 747 995 i -1;
#X obj 871 980 r quaternote;
#X floatatom 826 1086 5 0 0 0 - - -;
#X obj 740 1163 i;
#X obj 811 1163 i;
#X floatatom 732 1195 5 0 0 0 - - -;
#X floatatom 816 1191 5 0 0 0 - - -;
#X obj 924 1010 / 4;
#X obj 735 1110 sel 0 1 2 3;
#X obj 80 1024 tabread notes;
#X obj 282 1038 tabread notes;
#X obj 505 1032 tabread notes;
#X obj 793 1065 tabread notes;
#X floatatom 901 1149 5 0 0 0 - - -;
#X obj 868 1128 tabread notes;
#X obj 996 1010 + 1;
#X floatatom 996 1058 5 0 0 0 - - -;
#X obj 1075 988 bng 15 250 50 0 empty empty empty 17 7 0 10 -262144
-1 -1;
#X obj 1075 1032 tgl 15 0 empty empty empty 17 7 0 10 -262144 -1 -1
0 1;
#X floatatom 1129 1002 5 0 0 0 - - -;
#X obj 1156 1039 metro;
#X obj 1156 1063 bng 15 250 50 0 empty empty empty 17 7 0 10 -262144
-1 -1;
#X obj 1043 973 bng 15 250 50 0 empty empty in 17 7 0 10 -262144 -1
-1;
#X obj 1075 1008 delay;
#X obj 996 986 i -1;
#X obj 1120 971 r quaternote;
#X floatatom 1075 1077 5 0 0 0 - - -;
#X obj 989 1154 i;
#X obj 1060 1154 i;
#X floatatom 981 1186 5 0 0 0 - - -;
#X floatatom 1065 1182 5 0 0 0 - - -;
#X obj 1173 1001 / 4;
#X obj 984 1101 sel 0 1 2 3;
#X obj 1042 1056 tabread notes;
#X floatatom 1150 1140 5 0 0 0 - - -;
#X obj 1117 1119 tabread notes;
#X obj 1141 1092 + 1;
#X obj 1270 1014 + 1;
#X floatatom 1270 1062 5 0 0 0 - - -;
#X obj 1349 992 bng 15 250 50 0 empty empty empty 17 7 0 10 -262144
-1 -1;
#X obj 1349 1036 tgl 15 0 empty empty empty 17 7 0 10 -262144 -1 -1
0 1;
#X floatatom 1403 1006 5 0 0 0 - - -;
#X obj 1430 1043 metro;
#X obj 1430 1067 bng 15 250 50 0 empty empty empty 17 7 0 10 -262144
-1 -1;
#X obj 1317 977 bng 15 250 50 0 empty empty in 17 7 0 10 -262144 -1
-1;
#X obj 1349 1012 delay;
#X obj 1270 990 i -1;
#X obj 1394 975 r quaternote;
#X floatatom 1349 1081 5 0 0 0 - - -;
#X obj 1263 1158 i;
#X obj 1334 1158 i;
#X floatatom 1255 1190 5 0 0 0 - - -;
#X floatatom 1339 1186 5 0 0 0 - - -;
#X obj 1447 1005 / 4;
#X obj 1258 1105 sel 0 1 2 3;
#X obj 1316 1060 tabread notes;
#X floatatom 1424 1144 5 0 0 0 - - -;
#X obj 1391 1123 tabread notes;
#X obj 1519 1005 + 1;
#X floatatom 1519 1053 5 0 0 0 - - -;
#X obj 1598 983 bng 15 250 50 0 empty empty empty 17 7 0 10 -262144
-1 -1;
#X obj 1598 1027 tgl 15 0 empty empty empty 17 7 0 10 -262144 -1 -1
0 1;
#X floatatom 1652 997 5 0 0 0 - - -;
#X obj 1679 1034 metro;
#X obj 1679 1058 bng 15 250 50 0 empty empty empty 17 7 0 10 -262144
-1 -1;
#X obj 1566 968 bng 15 250 50 0 empty empty in 17 7 0 10 -262144 -1
-1;
#X obj 1598 1003 delay;
#X obj 1519 981 i -1;
#X obj 1643 966 r quaternote;
#X floatatom 1598 1072 5 0 0 0 - - -;
#X obj 1512 1149 i;
#X obj 1583 1149 i;
#X floatatom 1504 1181 5 0 0 0 - - -;
#X floatatom 1588 1177 5 0 0 0 - - -;
#X obj 1696 996 / 4;
#X obj 1507 1096 sel 0 1 2 3;
#X obj 1565 1051 tabread notes;
#X floatatom 1673 1135 5 0 0 0 - - -;
#X obj 1640 1114 tabread notes;
#X obj 1519 1029 % 4;
#X obj 996 1034 % 4;
#X obj 1270 1038 % 4;
#X obj 747 1043 % 4;
#X obj 457 1013 % 4;
#X obj 238 1017 % 4;
#X obj 25 1003 % 4;
#X obj 119 895 r v2_hold_ee;
#X obj 320 931 r v2_hold_sse;
#X obj 538 927 r v2_hold_des;
#X obj 829 957 r v2_asc_ee;
#X obj 1078 949 r v2_asc_des;
#X obj 1352 952 r v2_desc_ee;
#X obj 1601 943 r v2_desc_des;
#X obj 14 1148 s v2;
#X obj 98 1137 s v2;
#X obj 226 1157 s v2;
#X obj 270 1157 s v2;
#X obj 311 1151 s v2;
#X obj 444 1156 s v2;
#X obj 488 1153 s v2;
#X obj 731 1219 s v2;
#X obj 816 1214 s v2;
#X obj 980 1215 s v2;
#X obj 1065 1205 s v2;
#X obj 1252 1215 s v2;
#X obj 1339 1209 s v2;
#X obj 1501 1207 s v2;
#X obj 1588 1200 s v2;
#X obj 798 1717 r v2;
#X obj 1027 462 s v2_hold_sse;
#X obj 1155 376 s v2_asc_ee;
#X obj 1281 449 s v2_desc_ee;
#N canvas 0 50 450 300 prob50 0;
#X obj 42 13 inlet;
#X obj 42 37 random 80;
#X obj 42 61 moses 40;
#X obj 24 110 outlet;
#X obj 91 112 outlet;
#X obj 44 86 bng 15 250 50 0 empty empty empty 17 7 0 10 -262144 -1
-1;
#X obj 114 88 bng 15 250 50 0 empty empty empty 17 7 0 10 -262144 -1
-1;
#X connect 0 0 1 0;
#X connect 1 0 2 0;
#X connect 2 0 5 0;
#X connect 2 1 6 0;
#X connect 5 0 3 0;
#X connect 6 0 4 0;
#X restore 1212 298 pd prob50;
#X obj 658 169 r pulse;
#N canvas 0 50 450 300 prob33 0;
#X obj 52 11 inlet;
#X obj 52 35 random 72;
#X obj 52 59 moses 24;
#X obj 118 58 moses 48;
#X obj 53 118 outlet;
#X obj 109 118 outlet;
#X obj 159 119 outlet;
#X obj 52 83 bng 15 250 50 0 empty empty empty 17 7 0 10 -262144 -1
-1;
#X obj 118 82 bng 15 250 50 0 empty empty empty 17 7 0 10 -262144 -1
-1;
#X obj 174 87 bng 15 250 50 0 empty empty empty 17 7 0 10 -262144 -1
-1;
#X connect 0 0 1 0;
#X connect 1 0 2 0;
#X connect 2 0 7 0;
#X connect 2 1 3 0;
#X connect 3 0 8 0;
#X connect 3 1 9 0;
#X connect 7 0 4 0;
#X connect 8 0 5 0;
#X connect 9 0 6 0;
#X restore 608 226 pd prob33;
#N canvas 0 50 450 300 prob50 0;
#X obj 42 13 inlet;
#X obj 42 37 random 80;
#X obj 42 61 moses 40;
#X obj 24 110 outlet;
#X obj 91 112 outlet;
#X obj 44 86 bng 15 250 50 0 empty empty empty 17 7 0 10 -262144 -1
-1;
#X obj 114 88 bng 15 250 50 0 empty empty empty 17 7 0 10 -262144 -1
-1;
#X connect 0 0 1 0;
#X connect 1 0 2 0;
#X connect 2 0 5 0;
#X connect 2 1 6 0;
#X connect 5 0 3 0;
#X connect 6 0 4 0;
#X restore 684 227 pd prob50;
#N canvas 0 50 450 300 prob50 0;
#X obj 42 13 inlet;
#X obj 42 37 random 80;
#X obj 42 61 moses 40;
#X obj 24 110 outlet;
#X obj 91 112 outlet;
#X obj 44 86 bng 15 250 50 0 empty empty empty 17 7 0 10 -262144 -1
-1;
#X obj 114 88 bng 15 250 50 0 empty empty empty 17 7 0 10 -262144 -1
-1;
#X connect 0 0 1 0;
#X connect 1 0 2 0;
#X connect 2 0 5 0;
#X connect 2 1 6 0;
#X connect 5 0 3 0;
#X connect 6 0 4 0;
#X restore 762 227 pd prob50;
#X obj 1662 1645 r v3;
#X obj 440 1323 + 1;
#X floatatom 440 1371 5 0 0 0 - - -;
#X obj 519 1301 bng 15 250 50 0 empty empty empty 17 7 0 10 -262144
-1 -1;
#X obj 519 1345 tgl 15 0 empty empty empty 17 7 0 10 -262144 -1 -1
0 1;
#X floatatom 573 1315 5 0 0 0 - - -;
#X obj 600 1352 metro;
#X obj 600 1376 bng 15 250 50 0 empty empty empty 17 7 0 10 -262144
-1 -1;
#X obj 487 1286 bng 15 250 50 0 empty empty in 17 7 0 10 -262144 -1
-1;
#X obj 519 1321 delay;
#X obj 440 1299 i -1;
#X obj 564 1284 r quaternote;
#X floatatom 564 1399 5 0 0 0 - - -;
#X obj 437 1430 i;
#X obj 472 1431 i;
#X floatatom 429 1462 5 0 0 0 - - -;
#X floatatom 472 1464 5 0 0 0 - - -;
#X obj 617 1314 / 4;
#X obj 437 1396 sel 0 1 2 3;
#X obj 222 1327 + 1;
#X floatatom 222 1375 5 0 0 0 - - -;
#X obj 301 1305 bng 15 250 50 0 empty empty empty 17 7 0 10 -262144
-1 -1;
#X obj 301 1349 tgl 15 0 empty empty empty 17 7 0 10 -262144 -1 -1
0 1;
#X floatatom 355 1319 5 0 0 0 - - -;
#X obj 382 1356 metro;
#X obj 382 1380 bng 15 250 50 0 empty empty empty 17 7 0 10 -262144
-1 -1;
#X obj 269 1290 bng 15 250 50 0 empty empty in 17 7 0 10 -262144 -1
-1;
#X obj 301 1325 delay;
#X obj 222 1303 i -1;
#X obj 346 1288 r quaternote;
#X floatatom 348 1398 5 0 0 0 - - -;
#X obj 219 1434 i;
#X obj 254 1435 i;
#X obj 290 1434 i;
#X floatatom 211 1466 5 0 0 0 - - -;
#X floatatom 254 1468 5 0 0 0 - - -;
#X floatatom 295 1462 5 0 0 0 - - -;
#X obj 399 1318 / 4;
#X obj 219 1400 sel 0 1 2 3;
#X obj 9 1313 + 1;
#X floatatom 9 1361 5 0 0 0 - - -;
#X obj 88 1291 bng 15 250 50 0 empty empty empty 17 7 0 10 -262144
-1 -1;
#X obj 88 1335 tgl 15 0 empty empty empty 17 7 0 10 -262144 -1 -1 0
1;
#X floatatom 142 1305 5 0 0 0 - - -;
#X obj 169 1342 metro;
#X obj 169 1366 bng 15 250 50 0 empty empty empty 17 7 0 10 -262144
-1 -1;
#X obj 56 1276 bng 15 250 50 0 empty empty in 17 7 0 10 -262144 -1
-1;
#X obj 88 1311 delay;
#X obj 9 1289 i -1;
#X obj 133 1274 r quaternote;
#X floatatom 129 1386 5 0 0 0 - - -;
#X obj 6 1420 i;
#X obj 77 1420 i;
#X floatatom -2 1452 5 0 0 0 - - -;
#X floatatom 82 1448 5 0 0 0 - - -;
#X obj 186 1304 / 4;
#X obj 6 1386 sel 0 1 2 3;
#X obj 731 1353 + 1;
#X floatatom 731 1401 5 0 0 0 - - -;
#X obj 810 1331 bng 15 250 50 0 empty empty empty 17 7 0 10 -262144
-1 -1;
#X obj 810 1375 tgl 15 0 empty empty empty 17 7 0 10 -262144 -1 -1
0 1;
#X floatatom 864 1345 5 0 0 0 - - -;
#X obj 891 1382 metro;
#X obj 891 1406 bng 15 250 50 0 empty empty empty 17 7 0 10 -262144
-1 -1;
#X obj 778 1316 bng 15 250 50 0 empty empty in 17 7 0 10 -262144 -1
-1;
#X obj 810 1351 delay;
#X obj 731 1329 i -1;
#X obj 855 1314 r quaternote;
#X floatatom 810 1420 5 0 0 0 - - -;
#X obj 724 1497 i;
#X obj 795 1497 i;
#X floatatom 716 1529 5 0 0 0 - - -;
#X floatatom 800 1525 5 0 0 0 - - -;
#X obj 908 1344 / 4;
#X obj 719 1444 sel 0 1 2 3;
#X obj 64 1358 tabread notes;
#X obj 266 1372 tabread notes;
#X obj 489 1366 tabread notes;
#X obj 777 1399 tabread notes;
#X floatatom 888 1493 5 0 0 0 - - -;
#X obj 852 1462 tabread notes;
#X obj 980 1344 + 1;
#X floatatom 980 1392 5 0 0 0 - - -;
#X obj 1059 1322 bng 15 250 50 0 empty empty empty 17 7 0 10 -262144
-1 -1;
#X obj 1059 1366 tgl 15 0 empty empty empty 17 7 0 10 -262144 -1 -1
0 1;
#X floatatom 1113 1336 5 0 0 0 - - -;
#X obj 1140 1373 metro;
#X obj 1140 1397 bng 15 250 50 0 empty empty empty 17 7 0 10 -262144
-1 -1;
#X obj 1027 1307 bng 15 250 50 0 empty empty in 17 7 0 10 -262144 -1
-1;
#X obj 1059 1342 delay;
#X obj 980 1320 i -1;
#X obj 1104 1305 r quaternote;
#X floatatom 1059 1411 5 0 0 0 - - -;
#X obj 973 1488 i;
#X obj 1044 1488 i;
#X floatatom 965 1520 5 0 0 0 - - -;
#X floatatom 1049 1516 5 0 0 0 - - -;
#X obj 1157 1335 / 4;
#X obj 968 1435 sel 0 1 2 3;
#X obj 1026 1390 tabread notes;
#X floatatom 1134 1474 5 0 0 0 - - -;
#X obj 1101 1453 tabread notes;
#X obj 1254 1348 + 1;
#X floatatom 1254 1396 5 0 0 0 - - -;
#X obj 1333 1326 bng 15 250 50 0 empty empty empty 17 7 0 10 -262144
-1 -1;
#X obj 1333 1370 tgl 15 0 empty empty empty 17 7 0 10 -262144 -1 -1
1 1;
#X floatatom 1387 1340 5 0 0 0 - - -;
#X obj 1414 1377 metro;
#X obj 1414 1401 bng 15 250 50 0 empty empty empty 17 7 0 10 -262144
-1 -1;
#X obj 1301 1311 bng 15 250 50 0 empty empty in 17 7 0 10 -262144 -1
-1;
#X obj 1333 1346 delay;
#X obj 1254 1324 i -1;
#X obj 1378 1309 r quaternote;
#X floatatom 1333 1415 5 0 0 0 - - -;
#X obj 1247 1492 i;
#X obj 1318 1492 i;
#X floatatom 1239 1524 5 0 0 0 - - -;
#X floatatom 1323 1520 5 0 0 0 - - -;
#X obj 1431 1339 / 4;
#X obj 1242 1439 sel 0 1 2 3;
#X obj 1300 1394 tabread notes;
#X floatatom 1408 1478 5 0 0 0 - - -;
#X obj 1375 1457 tabread notes;
#X obj 1503 1339 + 1;
#X floatatom 1503 1387 5 0 0 0 - - -;
#X obj 1582 1317 bng 15 250 50 0 empty empty empty 17 7 0 10 -262144
-1 -1;
#X obj 1582 1361 tgl 15 0 empty empty empty 17 7 0 10 -262144 -1 -1
0 1;
#X floatatom 1636 1331 5 0 0 0 - - -;
#X obj 1663 1368 metro;
#X obj 1663 1392 bng 15 250 50 0 empty empty empty 17 7 0 10 -262144
-1 -1;
#X obj 1550 1302 bng 15 250 50 0 empty empty in 17 7 0 10 -262144 -1
-1;
#X obj 1582 1337 delay;
#X obj 1503 1315 i -1;
#X obj 1627 1300 r quaternote;
#X floatatom 1582 1406 5 0 0 0 - - -;
#X obj 1496 1483 i;
#X obj 1567 1483 i;
#X floatatom 1488 1515 5 0 0 0 - - -;
#X floatatom 1572 1511 5 0 0 0 - - -;
#X obj 1680 1330 / 4;
#X obj 1491 1430 sel 0 1 2 3;
#X obj 1549 1385 tabread notes;
#X floatatom 1657 1469 5 0 0 0 - - -;
#X obj 1624 1448 tabread notes;
#X obj 1503 1363 % 4;
#X obj 980 1368 % 4;
#X obj 1254 1372 % 4;
#X obj 731 1377 % 4;
#X obj 441 1347 % 4;
#X obj 222 1351 % 4;
#X obj 9 1337 % 4;
#X obj 571 353 bng 15 250 50 0 empty empty empty 17 7 0 10 -262144
-1 -1;
#X obj 498 404 bng 15 250 50 0 empty empty empty 17 7 0 10 -262144
-1 -1;
#X obj 532 379 bng 15 250 50 0 empty empty empty 17 7 0 10 -262144
-1 -1;
#X obj 689 290 i;
#X obj 669 289 bng 15 250 50 0 empty empty empty 17 7 0 10 -262144
-1 -1;
#X obj 650 316 i;
#X obj 630 315 bng 15 250 50 0 empty empty empty 17 7 0 10 -262144
-1 -1;
#X obj 815 363 i;
#X obj 795 362 bng 15 250 50 0 empty empty empty 17 7 0 10 -262144
-1 -1;
#X obj 776 389 i;
#X obj 756 388 bng 15 250 50 0 empty empty empty 17 7 0 10 -262144
-1 -1;
#X obj 1758 500 s v1_desc_des;
#X obj 1509 515 s v1_hold_des;
#X obj 1252 472 s v2_desc_des;
#X obj 1002 486 s v2_hold_des;
#X obj 1056 440 s v2_hold_ee;
#X obj 537 432 s v3_hold_des;
#X obj 562 408 s v3_hold_sse;
#X obj 591 386 s v3_hold_ee;
#X obj 816 395 s v3_desc_ee;
#X obj 786 417 s v3_desc_des;
#X obj 92 1251 r v3_hold_ee;
#X obj 304 1265 r v3_hold_sse;
#X obj 522 1261 r v3_hold_des;
#X obj 813 1291 r v3_asc_ee;
#X obj 1062 1283 r v3_asc_des;
#X obj 1335 1286 r v3_desc_ee;
#X obj 1585 1277 r v3_desc_des;
#X obj -2 1482 s v3;
#X obj 82 1471 s v3;
#X obj 210 1491 s v3;
#X obj 254 1491 s v3;
#X obj 295 1485 s v3;
#X obj 428 1490 s v3;
#X obj 472 1487 s v3;
#X obj 715 1553 s v3;
#X obj 804 1549 s v3;
#X obj 964 1549 s v3;
#X obj 1049 1539 s v3;
#X obj 1237 1549 s v3;
#X obj 1323 1543 s v3;
#X obj 1485 1541 s v3;
#X obj 1572 1534 s v3;
#X obj 1399 1430 -;
#X obj 1649 1421 -;
#X obj 1665 1087 -;
#X obj 1415 1096 -;
#X obj 892 1101 +;
#X obj 876 1434 +;
#X floatatom 918 934 5 0 0 0 - - -;
#X floatatom 1490 957 5 0 0 0 - - -;
#X obj 944 1902 phasor~;
#X obj 690 322 s v3_asc_ee;
#X msg 1609 2148 0 18;
#X obj 554 52 r pulse;
#X floatatom 1461 1282 5 0 0 0 - - -;
#X obj 1435 1261 + 1;
#X floatatom 949 1276 5 0 0 0 - - -;
#X obj 923 1255 + 1;
#X obj 889 734 +;
#X floatatom 960 589 5 0 0 0 - - -;
#X floatatom 1493 586 5 0 0 0 - - -;
#X obj 1454 576 + 1;
#X obj 1140 725 +;
#X obj 1125 1426 +;
#X obj 554 76 random 8;
#X obj 989 60 r pulse;
#X obj 989 84 random 8;
#X obj 1462 65 r pulse;
#X obj 1462 89 random 8;
#X obj 382 1719 / 2;
#X obj 275 2038 delay 60;
#X obj 591 354 i 0;
#X obj 552 380 i 0;
#X obj 518 405 i 0;
#X obj 984 459 i 0;
#X obj 1017 434 i 0;
#X obj 1056 408 i 0;
#X obj 1490 488 i 0;
#X obj 1524 463 i 0;
#X obj 1563 437 i 0;
#X msg 1068 1824 1 20;
#X msg 1135 1825 0 20;
#X msg 209 2068 1 20;
#X msg 272 2072 0 120;
#N canvas 0 50 450 300 prob_split 0;
#X obj 52 11 inlet;
#X obj 52 59 moses 24;
#X obj 53 118 outlet;
#X obj 109 118 outlet;
#X obj 159 119 outlet;
#X obj 52 83 bng 15 250 50 0 empty empty empty 17 7 0 10 -262144 -1
-1;
#X obj 118 82 bng 15 250 50 0 empty empty empty 17 7 0 10 -262144 -1
-1;
#X obj 174 87 bng 15 250 50 0 empty empty empty 17 7 0 10 -262144 -1
-1;
#X obj 52 35 random 60;
#X obj 118 58 moses 42;
#X connect 0 0 8 0;
#X connect 1 0 5 0;
#X connect 1 1 9 0;
#X connect 5 0 2 0;
#X connect 6 0 3 0;
#X connect 7 0 4 0;
#X connect 8 0 1 0;
#X connect 9 0 6 0;
#X connect 9 1 7 0;
#X restore 649 200 pd prob_split;
#N canvas 0 50 450 300 prob_split 0;
#X obj 52 11 inlet;
#X obj 52 59 moses 24;
#X obj 53 118 outlet;
#X obj 109 118 outlet;
#X obj 159 119 outlet;
#X obj 52 83 bng 15 250 50 0 empty empty empty 17 7 0 10 -262144 -1
-1;
#X obj 118 82 bng 15 250 50 0 empty empty empty 17 7 0 10 -262144 -1
-1;
#X obj 174 87 bng 15 250 50 0 empty empty empty 17 7 0 10 -262144 -1
-1;
#X obj 53 34 random 60;
#X obj 118 58 moses 42;
#X connect 0 0 8 0;
#X connect 1 0 5 0;
#X connect 1 1 9 0;
#X connect 5 0 2 0;
#X connect 6 0 3 0;
#X connect 7 0 4 0;
#X connect 8 0 1 0;
#X connect 9 0 6 0;
#X connect 9 1 7 0;
#X restore 1100 269 pd prob_split;
#N canvas 0 50 450 300 prob_split 0;
#X obj 52 11 inlet;
#X obj 52 59 moses 24;
#X obj 53 109 outlet;
#X obj 109 109 outlet;
#X obj 159 110 outlet;
#X obj 161 86 bng 15 250 50 0 empty empty empty 17 7 0 10 -262144 -1
-1;
#X obj 118 82 bng 15 250 50 0 empty empty empty 17 7 0 10 -262144 -1
-1;
#X obj 52 83 bng 15 250 50 0 empty empty empty 17 7 0 10 -262144 -1
-1;
#X obj 52 35 random 60;
#X obj 118 58 moses 42;
#X connect 0 0 8 0;
#X connect 1 0 7 0;
#X connect 1 1 9 0;
#X connect 5 0 4 0;
#X connect 6 0 3 0;
#X connect 7 0 2 0;
#X connect 8 0 1 0;
#X connect 9 0 6 0;
#X connect 9 1 5 0;
#X restore 1644 249 pd prob_split;
#X obj 255 141 - 1;
#X obj 957 112 % 4;
#X obj 953 168 sel 0 1 2 3;
#X floatatom 957 136 5 0 0 0 - - -;
#X floatatom 965 287 5 0 0 0 - - -;
#X obj 911 897 random 3;
#X obj 1464 912 random 3;
#X obj 921 579 + 1;
#X obj 879 924 + 3;
#X obj 1464 936 + 3;
#X msg 911 203 0;
#X msg 947 203 3;
#X msg 982 203 4;
#X msg 1020 203 5;
#X obj 723 1717 bng 15 250 50 0 empty empty empty 17 7 0 10 -262144
-1 -1;
#X obj 117 1731 + 12;
#X obj 932 322 s v2mod;
#X obj 915 1698 r v2mod;
#X floatatom 915 1722 5 0 0 0 - - -;
#X obj 915 1745 tabread notes;
#X obj 915 1769 mtof;
#X floatatom 915 1793 5 0 0 0 - - -;
#X msg 855 2144 0 48;
#X obj 1136 1794 delay 40;
#X obj 487 1848 delay 40;
#X msg 420 1878 1 40;
#X msg 486 1879 0 60;
#X obj 178 1735 + 12;
#X obj 207 2210 *~ 0.2;
#X obj 855 2113 delay 80;
#X obj 1100 1686 / 4;
#X obj 1607 2117 delay 80;
#X msg 1543 2146 1 60;
#X obj 953 552 random 4;
#X obj 1486 549 random 4;
#X obj 923 1231 random 2;
#X obj 1435 1237 random 2;
#X obj 1512 1814 - 12;
#X obj 1632 427 s v1_asc_des;
#X obj 1125 398 s v2_asc_des;
#X obj 660 344 s v3_asc_des;
#X obj 1727 1936 *~ 0.5;
#X obj 1728 1911 phasor~;
#X obj 1736 1865 *~ 1.015;
#X floatatom 1736 1889 5 0 0 0 - - -;
#X msg 45 38 575;
#X obj 285 2216 *~ 0.225;
#X obj 109 2215 *~ 0.2;
#X msg 241 20 \; notes 0 60 62 63 65 67 68 70 72 60 68 72 80;
#X text 698 17 b6 is characteristic sound of Aeolian \, so root \,
b6 and their octaves are repeated for higher probability;
#X connect 1 0 2 0;
#X connect 2 0 9 0;
#X connect 3 0 4 0;
#X connect 4 0 28 0;
#X connect 5 0 6 0;
#X connect 6 0 10 0;
#X connect 7 0 9 1;
#X connect 8 0 690 0;
#X connect 8 0 678 0;
#X connect 9 0 742 0;
#X connect 10 0 1 0;
#X connect 11 0 3 0;
#X connect 12 0 13 0;
#X connect 13 0 11 0;
#X connect 14 0 15 0;
#X connect 15 0 22 0;
#X connect 16 0 17 0;
#X connect 17 0 27 0;
#X connect 18 0 19 0;
#X connect 19 0 23 0;
#X connect 20 0 22 1;
#X connect 20 0 110 1;
#X connect 21 0 727 0;
#X connect 21 0 726 0;
#X connect 22 0 741 0;
#X connect 23 0 14 0;
#X connect 24 0 16 0;
#X connect 25 0 26 0;
#X connect 25 0 738 0;
#X connect 26 0 24 0;
#X connect 27 0 14 1;
#X connect 28 0 1 1;
#X connect 29 0 31 0;
#X connect 29 0 740 0;
#X connect 29 0 743 0;
#X connect 29 0 129 0;
#X connect 30 0 31 1;
#X connect 30 0 695 0;
#X connect 31 0 32 0;
#X connect 32 0 740 0;
#X connect 32 0 103 0;
#X connect 36 0 612 1;
#X connect 36 0 610 1;
#X connect 36 0 616 1;
#X connect 36 0 614 1;
#X connect 37 0 183 1;
#X connect 37 0 181 1;
#X connect 37 0 235 1;
#X connect 37 0 233 1;
#X connect 38 0 257 0;
#X connect 39 0 55 0;
#X connect 40 0 46 0;
#X connect 41 0 43 0;
#X connect 42 0 46 1;
#X connect 42 0 54 0;
#X connect 43 0 44 0;
#X connect 44 0 47 0;
#X connect 45 0 40 0;
#X connect 45 0 41 0;
#X connect 46 0 41 0;
#X connect 47 0 38 0;
#X connect 48 0 42 0;
#X connect 49 0 50 1;
#X connect 49 0 51 1;
#X connect 50 0 52 0;
#X connect 51 0 53 0;
#X connect 52 0 56 0;
#X connect 53 0 241 0;
#X connect 54 0 43 1;
#X connect 55 0 50 0;
#X connect 55 3 51 0;
#X connect 57 0 258 0;
#X connect 58 0 76 0;
#X connect 59 0 65 0;
#X connect 60 0 62 0;
#X connect 61 0 65 1;
#X connect 61 0 75 0;
#X connect 62 0 63 0;
#X connect 63 0 66 0;
#X connect 64 0 59 0;
#X connect 64 0 60 0;
#X connect 65 0 60 0;
#X connect 66 0 57 0;
#X connect 67 0 61 0;
#X connect 68 0 69 1;
#X connect 68 0 70 1;
#X connect 68 0 71 1;
#X connect 69 0 72 0;
#X connect 70 0 73 0;
#X connect 71 0 74 0;
#X connect 72 0 77 0;
#X connect 73 0 239 0;
#X connect 74 0 240 0;
#X connect 75 0 62 1;
#X connect 76 0 69 0;
#X connect 76 1 70 0;
#X connect 76 2 71 0;
#X connect 78 0 259 0;
#X connect 79 0 95 0;
#X connect 80 0 86 0;
#X connect 81 0 83 0;
#X connect 82 0 86 1;
#X connect 82 0 94 0;
#X connect 83 0 84 0;
#X connect 84 0 87 0;
#X connect 85 0 80 0;
#X connect 85 0 81 0;
#X connect 86 0 81 0;
#X connect 87 0 78 0;
#X connect 88 0 82 0;
#X connect 89 0 90 1;
#X connect 89 0 91 1;
#X connect 90 0 92 0;
#X connect 91 0 93 0;
#X connect 92 0 96 0;
#X connect 93 0 238 0;
#X connect 94 0 83 1;
#X connect 95 0 90 0;
#X connect 95 2 91 0;
#X connect 97 0 85 0;
#X connect 97 0 151 0;
#X connect 98 0 64 0;
#X connect 98 0 152 0;
#X connect 99 0 8 0;
#X connect 99 0 710 0;
#X connect 99 0 722 0;
#X connect 102 0 687 0;
#X connect 104 0 107 0;
#X connect 104 1 108 0;
#X connect 104 2 102 0;
#X connect 105 0 693 0;
#X connect 106 0 264 0;
#X connect 106 1 265 0;
#X connect 106 2 263 0;
#X connect 107 0 685 0;
#X connect 108 0 686 0;
#X connect 109 0 18 0;
#X connect 110 0 27 1;
#X connect 111 0 112 0;
#X connect 112 0 119 0;
#X connect 113 0 114 0;
#X connect 114 0 121 0;
#X connect 115 0 116 0;
#X connect 116 0 120 0;
#X connect 116 0 126 0;
#X connect 116 0 658 0;
#X connect 117 0 119 1;
#X connect 118 0 125 0;
#X connect 118 0 724 0;
#X connect 119 0 723 0;
#X connect 120 0 111 0;
#X connect 121 0 111 1;
#X connect 122 0 121 1;
#X connect 123 0 122 1;
#X connect 124 0 688 0;
#X connect 124 0 718 0;
#X connect 125 0 117 0;
#X connect 126 0 113 0;
#X connect 127 0 725 0;
#X connect 128 0 124 0;
#X connect 130 0 128 0;
#X connect 131 0 256 0;
#X connect 132 0 148 0;
#X connect 133 0 139 0;
#X connect 134 0 136 0;
#X connect 135 0 139 1;
#X connect 135 0 147 0;
#X connect 136 0 137 0;
#X connect 137 0 140 0;
#X connect 138 0 133 0;
#X connect 138 0 134 0;
#X connect 138 0 728 0;
#X connect 139 0 134 0;
#X connect 140 0 131 0;
#X connect 141 0 135 0;
#X connect 142 0 143 1;
#X connect 143 0 145 0;
#X connect 144 0 146 0;
#X connect 145 0 149 0;
#X connect 146 0 242 0;
#X connect 147 0 136 1;
#X connect 148 0 143 0;
#X connect 148 2 144 0;
#X connect 150 0 138 0;
#X connect 150 0 154 0;
#X connect 150 0 666 0;
#X connect 151 0 89 0;
#X connect 152 0 68 0;
#X connect 153 0 49 0;
#X connect 154 0 142 0;
#X connect 155 0 144 1;
#X connect 156 0 155 0;
#X connect 157 0 254 0;
#X connect 158 0 174 0;
#X connect 159 0 165 0;
#X connect 160 0 162 0;
#X connect 161 0 165 1;
#X connect 161 0 173 0;
#X connect 162 0 163 0;
#X connect 163 0 166 0;
#X connect 164 0 159 0;
#X connect 164 0 160 0;
#X connect 164 0 728 0;
#X connect 165 0 160 0;
#X connect 166 0 157 0;
#X connect 167 0 161 0;
#X connect 168 0 169 1;
#X connect 169 0 171 0;
#X connect 170 0 172 0;
#X connect 171 0 175 0;
#X connect 172 0 243 0;
#X connect 173 0 162 1;
#X connect 174 0 169 0;
#X connect 174 3 170 0;
#X connect 176 0 168 0;
#X connect 177 0 170 1;
#X connect 178 0 177 0;
#X connect 179 0 184 0;
#X connect 179 1 182 0;
#X connect 180 0 236 0;
#X connect 180 1 234 0;
#X connect 181 0 185 0;
#X connect 182 0 181 0;
#X connect 183 0 733 0;
#X connect 184 0 183 0;
#X connect 186 0 255 0;
#X connect 187 0 203 0;
#X connect 188 0 194 0;
#X connect 189 0 191 0;
#X connect 190 0 194 1;
#X connect 190 0 202 0;
#X connect 191 0 192 0;
#X connect 192 0 195 0;
#X connect 193 0 188 0;
#X connect 193 0 189 0;
#X connect 193 0 729 0;
#X connect 194 0 189 0;
#X connect 195 0 186 0;
#X connect 196 0 190 0;
#X connect 197 0 198 1;
#X connect 198 0 200 0;
#X connect 199 0 201 0;
#X connect 200 0 204 0;
#X connect 201 0 245 0;
#X connect 202 0 191 1;
#X connect 203 0 197 0;
#X connect 203 0 198 0;
#X connect 203 2 199 0;
#X connect 205 0 197 0;
#X connect 206 0 199 1;
#X connect 207 0 206 0;
#X connect 208 0 252 0;
#X connect 209 0 225 0;
#X connect 210 0 216 0;
#X connect 211 0 213 0;
#X connect 212 0 216 1;
#X connect 212 0 224 0;
#X connect 213 0 214 0;
#X connect 214 0 217 0;
#X connect 215 0 210 0;
#X connect 215 0 211 0;
#X connect 215 0 729 0;
#X connect 216 0 211 0;
#X connect 217 0 208 0;
#X connect 218 0 212 0;
#X connect 219 0 220 1;
#X connect 220 0 222 0;
#X connect 221 0 223 0;
#X connect 222 0 226 0;
#X connect 223 0 246 0;
#X connect 224 0 213 1;
#X connect 225 0 220 0;
#X connect 225 3 221 0;
#X connect 227 0 219 0;
#X connect 228 0 221 1;
#X connect 229 0 228 0;
#X connect 230 0 193 0;
#X connect 230 0 205 0;
#X connect 230 0 231 0;
#X connect 231 0 207 0;
#X connect 232 0 229 0;
#X connect 233 0 237 0;
#X connect 234 0 233 0;
#X connect 235 0 618 0;
#X connect 236 0 235 0;
#X connect 244 0 694 0;
#X connect 247 0 677 0;
#X connect 248 0 251 0;
#X connect 249 0 248 0;
#X connect 250 0 28 1;
#X connect 251 0 720 0;
#X connect 251 0 719 0;
#X connect 252 0 209 0;
#X connect 252 0 217 1;
#X connect 253 0 215 0;
#X connect 253 0 227 0;
#X connect 253 0 232 0;
#X connect 254 0 158 0;
#X connect 254 0 166 1;
#X connect 255 0 187 0;
#X connect 255 0 195 1;
#X connect 256 0 132 0;
#X connect 256 0 140 1;
#X connect 257 0 39 0;
#X connect 257 0 47 1;
#X connect 258 0 58 0;
#X connect 258 0 66 1;
#X connect 259 0 79 0;
#X connect 259 0 87 1;
#X connect 260 0 45 0;
#X connect 260 0 153 0;
#X connect 261 0 164 0;
#X connect 261 0 176 0;
#X connect 261 0 670 0;
#X connect 262 0 269 0;
#X connect 262 1 267 0;
#X connect 263 0 684 0;
#X connect 264 0 682 0;
#X connect 265 0 683 0;
#X connect 266 0 449 0;
#X connect 267 0 266 0;
#X connect 268 0 734 0;
#X connect 269 0 268 0;
#X connect 270 0 450 0;
#X connect 271 0 270 0;
#X connect 272 0 620 0;
#X connect 273 0 272 0;
#X connect 274 0 422 0;
#X connect 275 0 291 0;
#X connect 276 0 282 0;
#X connect 277 0 279 0;
#X connect 278 0 282 1;
#X connect 278 0 290 0;
#X connect 279 0 280 0;
#X connect 280 0 283 0;
#X connect 281 0 276 0;
#X connect 281 0 277 0;
#X connect 282 0 277 0;
#X connect 283 0 274 0;
#X connect 284 0 278 0;
#X connect 285 0 286 1;
#X connect 285 0 287 1;
#X connect 286 0 288 0;
#X connect 287 0 289 0;
#X connect 288 0 437 0;
#X connect 289 0 438 0;
#X connect 290 0 279 1;
#X connect 291 0 286 0;
#X connect 291 3 287 0;
#X connect 292 0 423 0;
#X connect 293 0 311 0;
#X connect 294 0 300 0;
#X connect 295 0 297 0;
#X connect 296 0 300 1;
#X connect 296 0 310 0;
#X connect 297 0 298 0;
#X connect 298 0 301 0;
#X connect 299 0 294 0;
#X connect 299 0 295 0;
#X connect 300 0 295 0;
#X connect 301 0 292 0;
#X connect 302 0 296 0;
#X connect 303 0 304 1;
#X connect 303 0 305 1;
#X connect 303 0 306 1;
#X connect 304 0 307 0;
#X connect 305 0 308 0;
#X connect 306 0 309 0;
#X connect 307 0 434 0;
#X connect 308 0 435 0;
#X connect 309 0 436 0;
#X connect 310 0 297 1;
#X connect 311 0 304 0;
#X connect 311 1 305 0;
#X connect 311 2 306 0;
#X connect 312 0 424 0;
#X connect 313 0 329 0;
#X connect 314 0 320 0;
#X connect 315 0 317 0;
#X connect 316 0 320 1;
#X connect 316 0 328 0;
#X connect 317 0 318 0;
#X connect 318 0 321 0;
#X connect 319 0 314 0;
#X connect 319 0 315 0;
#X connect 320 0 315 0;
#X connect 321 0 312 0;
#X connect 322 0 316 0;
#X connect 323 0 324 1;
#X connect 323 0 325 1;
#X connect 324 0 326 0;
#X connect 325 0 327 0;
#X connect 326 0 432 0;
#X connect 327 0 433 0;
#X connect 328 0 317 1;
#X connect 329 0 324 0;
#X connect 329 2 325 0;
#X connect 330 0 421 0;
#X connect 331 0 347 0;
#X connect 332 0 338 0;
#X connect 333 0 335 0;
#X connect 334 0 338 1;
#X connect 334 0 346 0;
#X connect 335 0 336 0;
#X connect 336 0 339 0;
#X connect 337 0 332 0;
#X connect 337 0 333 0;
#X connect 337 0 700 0;
#X connect 338 0 333 0;
#X connect 339 0 330 0;
#X connect 340 0 334 0;
#X connect 341 0 342 1;
#X connect 342 0 344 0;
#X connect 343 0 345 0;
#X connect 344 0 439 0;
#X connect 345 0 440 0;
#X connect 346 0 335 1;
#X connect 347 0 341 0;
#X connect 347 0 342 0;
#X connect 347 2 343 0;
#X connect 347 2 352 0;
#X connect 348 0 323 0;
#X connect 349 0 303 0;
#X connect 350 0 285 0;
#X connect 351 0 341 0;
#X connect 352 0 343 1;
#X connect 353 0 352 0;
#X connect 354 0 419 0;
#X connect 355 0 371 0;
#X connect 356 0 362 0;
#X connect 357 0 359 0;
#X connect 358 0 362 1;
#X connect 358 0 370 0;
#X connect 359 0 360 0;
#X connect 360 0 363 0;
#X connect 361 0 356 0;
#X connect 361 0 357 0;
#X connect 361 0 700 0;
#X connect 362 0 357 0;
#X connect 363 0 354 0;
#X connect 364 0 358 0;
#X connect 365 0 366 1;
#X connect 366 0 368 0;
#X connect 367 0 369 0;
#X connect 368 0 441 0;
#X connect 369 0 442 0;
#X connect 370 0 359 1;
#X connect 371 0 366 0;
#X connect 371 3 367 0;
#X connect 372 0 365 0;
#X connect 373 0 367 1;
#X connect 374 0 373 0;
#X connect 375 0 374 0;
#X connect 376 0 420 0;
#X connect 377 0 393 0;
#X connect 378 0 384 0;
#X connect 379 0 381 0;
#X connect 380 0 384 1;
#X connect 380 0 392 0;
#X connect 381 0 382 0;
#X connect 382 0 385 0;
#X connect 383 0 378 0;
#X connect 383 0 379 0;
#X connect 383 0 701 0;
#X connect 384 0 379 0;
#X connect 385 0 376 0;
#X connect 386 0 380 0;
#X connect 387 0 388 1;
#X connect 388 0 390 0;
#X connect 389 0 391 0;
#X connect 390 0 443 0;
#X connect 391 0 444 0;
#X connect 392 0 381 1;
#X connect 393 0 388 0;
#X connect 393 2 389 0;
#X connect 394 0 387 0;
#X connect 395 0 389 1;
#X connect 396 0 395 0;
#X connect 397 0 418 0;
#X connect 398 0 414 0;
#X connect 399 0 405 0;
#X connect 400 0 402 0;
#X connect 401 0 405 1;
#X connect 401 0 413 0;
#X connect 402 0 403 0;
#X connect 403 0 406 0;
#X connect 404 0 399 0;
#X connect 404 0 400 0;
#X connect 404 0 701 0;
#X connect 405 0 400 0;
#X connect 406 0 397 0;
#X connect 407 0 401 0;
#X connect 408 0 409 1;
#X connect 409 0 411 0;
#X connect 410 0 412 0;
#X connect 411 0 445 0;
#X connect 412 0 446 0;
#X connect 413 0 402 1;
#X connect 414 0 409 0;
#X connect 414 3 410 0;
#X connect 415 0 408 0;
#X connect 416 0 410 1;
#X connect 417 0 416 0;
#X connect 418 0 398 0;
#X connect 418 0 406 1;
#X connect 419 0 355 0;
#X connect 419 0 363 1;
#X connect 420 0 377 0;
#X connect 420 0 385 1;
#X connect 421 0 331 0;
#X connect 421 0 339 1;
#X connect 422 0 275 0;
#X connect 422 0 283 1;
#X connect 423 0 293 0;
#X connect 423 0 301 1;
#X connect 424 0 313 0;
#X connect 424 0 321 1;
#X connect 425 0 319 0;
#X connect 425 0 348 0;
#X connect 426 0 299 0;
#X connect 426 0 349 0;
#X connect 427 0 281 0;
#X connect 427 0 350 0;
#X connect 428 0 337 0;
#X connect 428 0 351 0;
#X connect 428 0 654 0;
#X connect 429 0 361 0;
#X connect 429 0 372 0;
#X connect 429 0 375 0;
#X connect 430 0 383 0;
#X connect 430 0 394 0;
#X connect 430 0 653 0;
#X connect 431 0 404 0;
#X connect 431 0 415 0;
#X connect 431 0 652 0;
#X connect 447 0 118 0;
#X connect 447 0 115 0;
#X connect 451 0 273 0;
#X connect 451 1 271 0;
#X connect 452 0 692 0;
#X connect 453 0 608 0;
#X connect 453 1 609 0;
#X connect 453 2 607 0;
#X connect 454 0 613 0;
#X connect 454 1 611 0;
#X connect 455 0 617 0;
#X connect 455 1 615 0;
#X connect 456 0 21 0;
#X connect 456 0 109 0;
#X connect 456 0 732 0;
#X connect 457 0 604 0;
#X connect 458 0 474 0;
#X connect 459 0 465 0;
#X connect 460 0 462 0;
#X connect 461 0 465 1;
#X connect 461 0 473 0;
#X connect 462 0 463 0;
#X connect 463 0 466 0;
#X connect 464 0 459 0;
#X connect 464 0 460 0;
#X connect 465 0 460 0;
#X connect 466 0 457 0;
#X connect 467 0 461 0;
#X connect 468 0 469 1;
#X connect 468 0 470 1;
#X connect 469 0 471 0;
#X connect 470 0 472 0;
#X connect 471 0 640 0;
#X connect 472 0 641 0;
#X connect 473 0 462 1;
#X connect 474 0 469 0;
#X connect 474 3 470 0;
#X connect 475 0 605 0;
#X connect 476 0 494 0;
#X connect 477 0 483 0;
#X connect 478 0 480 0;
#X connect 479 0 483 1;
#X connect 479 0 493 0;
#X connect 480 0 481 0;
#X connect 481 0 484 0;
#X connect 482 0 477 0;
#X connect 482 0 478 0;
#X connect 483 0 478 0;
#X connect 484 0 475 0;
#X connect 485 0 479 0;
#X connect 486 0 487 1;
#X connect 486 0 488 1;
#X connect 486 0 489 1;
#X connect 487 0 490 0;
#X connect 488 0 491 0;
#X connect 489 0 492 0;
#X connect 490 0 637 0;
#X connect 491 0 638 0;
#X connect 492 0 639 0;
#X connect 493 0 480 1;
#X connect 494 0 487 0;
#X connect 494 1 488 0;
#X connect 494 2 489 0;
#X connect 495 0 606 0;
#X connect 496 0 512 0;
#X connect 497 0 503 0;
#X connect 498 0 500 0;
#X connect 499 0 503 1;
#X connect 499 0 511 0;
#X connect 500 0 501 0;
#X connect 501 0 504 0;
#X connect 502 0 497 0;
#X connect 502 0 498 0;
#X connect 503 0 498 0;
#X connect 504 0 495 0;
#X connect 505 0 499 0;
#X connect 506 0 507 1;
#X connect 506 0 508 1;
#X connect 507 0 509 0;
#X connect 508 0 510 0;
#X connect 509 0 635 0;
#X connect 510 0 636 0;
#X connect 511 0 500 1;
#X connect 512 0 507 0;
#X connect 512 2 508 0;
#X connect 513 0 603 0;
#X connect 514 0 530 0;
#X connect 515 0 521 0;
#X connect 516 0 518 0;
#X connect 517 0 521 1;
#X connect 517 0 529 0;
#X connect 518 0 519 0;
#X connect 519 0 522 0;
#X connect 520 0 515 0;
#X connect 520 0 516 0;
#X connect 520 0 730 0;
#X connect 521 0 516 0;
#X connect 522 0 513 0;
#X connect 523 0 517 0;
#X connect 524 0 525 1;
#X connect 525 0 527 0;
#X connect 526 0 528 0;
#X connect 527 0 642 0;
#X connect 528 0 643 0;
#X connect 529 0 518 1;
#X connect 530 0 525 0;
#X connect 530 2 526 0;
#X connect 531 0 506 0;
#X connect 532 0 486 0;
#X connect 533 0 468 0;
#X connect 534 0 524 0;
#X connect 535 0 526 1;
#X connect 536 0 535 0;
#X connect 537 0 601 0;
#X connect 538 0 554 0;
#X connect 539 0 545 0;
#X connect 540 0 542 0;
#X connect 541 0 545 1;
#X connect 541 0 553 0;
#X connect 542 0 543 0;
#X connect 543 0 546 0;
#X connect 544 0 539 0;
#X connect 544 0 540 0;
#X connect 545 0 540 0;
#X connect 546 0 537 0;
#X connect 547 0 541 0;
#X connect 548 0 549 1;
#X connect 549 0 551 0;
#X connect 550 0 552 0;
#X connect 551 0 644 0;
#X connect 552 0 645 0;
#X connect 553 0 542 1;
#X connect 554 0 549 0;
#X connect 554 3 550 0;
#X connect 555 0 548 0;
#X connect 556 0 550 1;
#X connect 557 0 556 0;
#X connect 558 0 602 0;
#X connect 559 0 575 0;
#X connect 560 0 566 0;
#X connect 561 0 563 0;
#X connect 562 0 566 1;
#X connect 562 0 574 0;
#X connect 563 0 564 0;
#X connect 564 0 567 0;
#X connect 565 0 560 0;
#X connect 565 0 561 0;
#X connect 565 0 731 0;
#X connect 566 0 561 0;
#X connect 567 0 558 0;
#X connect 568 0 562 0;
#X connect 569 0 570 1;
#X connect 570 0 572 0;
#X connect 571 0 573 0;
#X connect 572 0 646 0;
#X connect 573 0 647 0;
#X connect 574 0 563 1;
#X connect 575 0 570 0;
#X connect 575 2 571 0;
#X connect 576 0 569 0;
#X connect 577 0 571 1;
#X connect 578 0 577 0;
#X connect 579 0 600 0;
#X connect 580 0 596 0;
#X connect 581 0 587 0;
#X connect 582 0 584 0;
#X connect 583 0 587 1;
#X connect 583 0 595 0;
#X connect 584 0 585 0;
#X connect 585 0 588 0;
#X connect 586 0 581 0;
#X connect 586 0 582 0;
#X connect 586 0 731 0;
#X connect 587 0 582 0;
#X connect 588 0 579 0;
#X connect 589 0 583 0;
#X connect 590 0 591 1;
#X connect 591 0 593 0;
#X connect 592 0 594 0;
#X connect 593 0 648 0;
#X connect 594 0 649 0;
#X connect 595 0 584 1;
#X connect 596 0 591 0;
#X connect 596 3 592 0;
#X connect 597 0 590 0;
#X connect 598 0 592 1;
#X connect 599 0 598 0;
#X connect 600 0 580 0;
#X connect 600 0 588 1;
#X connect 601 0 538 0;
#X connect 601 0 546 1;
#X connect 602 0 559 0;
#X connect 602 0 567 1;
#X connect 603 0 514 0;
#X connect 603 0 522 1;
#X connect 604 0 458 0;
#X connect 604 0 466 1;
#X connect 605 0 476 0;
#X connect 605 0 484 1;
#X connect 606 0 496 0;
#X connect 606 0 504 1;
#X connect 607 0 679 0;
#X connect 608 0 681 0;
#X connect 609 0 680 0;
#X connect 610 0 659 0;
#X connect 611 0 610 0;
#X connect 612 0 735 0;
#X connect 613 0 612 0;
#X connect 614 0 626 0;
#X connect 615 0 614 0;
#X connect 616 0 627 0;
#X connect 617 0 616 0;
#X connect 628 0 502 0;
#X connect 628 0 531 0;
#X connect 629 0 482 0;
#X connect 629 0 532 0;
#X connect 630 0 464 0;
#X connect 630 0 533 0;
#X connect 631 0 520 0;
#X connect 631 0 534 0;
#X connect 631 0 655 0;
#X connect 632 0 544 0;
#X connect 632 0 555 0;
#X connect 632 0 671 0;
#X connect 633 0 565 0;
#X connect 633 0 576 0;
#X connect 633 0 650 0;
#X connect 634 0 586 0;
#X connect 634 0 597 0;
#X connect 634 0 651 0;
#X connect 650 0 578 0;
#X connect 651 0 599 0;
#X connect 652 0 417 0;
#X connect 653 0 396 0;
#X connect 654 0 353 0;
#X connect 655 0 536 0;
#X connect 656 0 654 1;
#X connect 657 0 653 1;
#X connect 657 0 652 1;
#X connect 658 0 122 0;
#X connect 660 0 20 0;
#X connect 661 0 672 0;
#X connect 662 0 650 1;
#X connect 662 0 651 1;
#X connect 663 0 662 0;
#X connect 664 0 655 1;
#X connect 664 0 671 1;
#X connect 665 0 664 0;
#X connect 666 0 156 0;
#X connect 667 0 666 1;
#X connect 667 0 670 1;
#X connect 668 0 232 1;
#X connect 668 0 231 1;
#X connect 669 0 668 0;
#X connect 670 0 178 0;
#X connect 671 0 557 0;
#X connect 672 0 36 0;
#X connect 673 0 674 0;
#X connect 674 0 696 0;
#X connect 675 0 676 0;
#X connect 676 0 37 0;
#X connect 677 0 248 1;
#X connect 678 0 691 0;
#X connect 679 0 625 0;
#X connect 680 0 624 0;
#X connect 681 0 623 0;
#X connect 682 0 621 0;
#X connect 683 0 448 0;
#X connect 684 0 622 0;
#X connect 685 0 619 0;
#X connect 686 0 101 0;
#X connect 687 0 100 0;
#X connect 688 0 123 0;
#X connect 689 0 123 0;
#X connect 690 0 7 0;
#X connect 691 0 7 0;
#X connect 692 0 453 0;
#X connect 692 1 454 0;
#X connect 692 2 455 0;
#X connect 693 0 106 0;
#X connect 693 1 262 0;
#X connect 693 2 451 0;
#X connect 694 0 104 0;
#X connect 694 1 179 0;
#X connect 694 2 180 0;
#X connect 695 0 33 0;
#X connect 696 0 698 0;
#X connect 697 0 705 0;
#X connect 697 1 706 0;
#X connect 697 2 707 0;
#X connect 697 3 708 0;
#X connect 698 0 697 0;
#X connect 699 0 266 1;
#X connect 699 0 268 1;
#X connect 699 0 272 1;
#X connect 699 0 270 1;
#X connect 699 0 711 0;
#X connect 700 0 375 1;
#X connect 700 0 703 0;
#X connect 701 0 704 0;
#X connect 702 0 667 0;
#X connect 703 0 656 0;
#X connect 704 0 657 0;
#X connect 705 0 699 0;
#X connect 706 0 699 0;
#X connect 707 0 699 0;
#X connect 708 0 699 0;
#X connect 709 0 118 0;
#X connect 709 0 124 0;
#X connect 710 0 5 0;
#X connect 712 0 713 0;
#X connect 713 0 714 0;
#X connect 714 0 715 0;
#X connect 715 0 716 0;
#X connect 716 0 126 0;
#X connect 716 0 658 0;
#X connect 717 0 117 0;
#X connect 718 0 689 0;
#X connect 719 0 721 0;
#X connect 720 0 250 0;
#X connect 721 0 250 0;
#X connect 722 0 12 0;
#X connect 723 0 0 0;
#X connect 723 0 0 1;
#X connect 724 0 717 0;
#X connect 725 0 128 1;
#X connect 726 0 660 0;
#X connect 727 0 20 0;
#X connect 728 0 702 0;
#X connect 729 0 669 0;
#X connect 730 0 665 0;
#X connect 731 0 663 0;
#X connect 732 0 25 0;
#X connect 736 0 110 0;
#X connect 737 0 736 0;
#X connect 738 0 739 0;
#X connect 739 0 737 0;
#X connect 740 0 30 0;
#X connect 741 0 0 0;
#X connect 741 0 0 1;
#X connect 742 0 0 0;
#X connect 742 0 0 1;
