#N canvas -8 -8 1920 997 12;
#X obj 10 1 tgl 15 0 empty empty empty 17 7 0 10 -262144 -1 -1 0 1
;
#X floatatom 209 64 5 0 0 0 - - -;
#X obj 212 92 metro;
#X obj 185 119 bng 15 250 50 0 empty empty empty 17 7 0 10 -262144
-1 -1;
#X obj 263 181 s quaternote;
#X obj 129 36 table notes;
#X obj 171 145 s pulse;
#X obj 6 41 s tg;
#X text 311 71 B Dorian;
#X obj 960 1225 +~;
#X obj 960 1249 cos~;
#X floatatom 960 1139 5 0 0 0 - - -;
#X obj 1355 1178 line~;
#X obj 1366 1111 bng 15 250 50 0 empty empty empty 17 7 0 10 -262144
-1 -1;
#X obj 1012 1331 *~;
#X obj 961 1172 phasor~;
#X obj 1122 1166 phasor~;
#X floatatom 1130 1144 5 0 0 0 - - -;
#X floatatom 1026 1137 5 0 0 0 - - -;
#X obj 1052 1031 mtof;
#X obj 611 1420 dac~;
#X obj 1024 1232 *~;
#X obj 1024 1256 +~;
#X obj 1221 1352 line~;
#X obj 1269 1277 bng 15 250 50 0 empty empty empty 17 7 0 10 -262144
-1 -1;
#X obj 1514 1221 +~;
#X obj 1514 1245 cos~;
#X floatatom 1514 1135 5 0 0 0 - - -;
#X obj 1515 1482 *~;
#X obj 1515 1168 phasor~;
#X floatatom 1580 1133 5 0 0 0 - - -;
#X obj 1606 1027 mtof;
#X obj 1578 1228 *~;
#X obj 1578 1252 +~;
#X obj 1663 1265 +~;
#X obj 1812 1340 line~;
#X obj 1681 1005 bng 15 250 50 0 empty empty empty 17 7 0 10 -262144
-1 -1;
#X obj 95 1083 +~;
#X obj 95 1107 cos~;
#X floatatom 95 997 5 0 0 0 - - -;
#X obj 96 1344 *~;
#X obj 96 1030 phasor~;
#X floatatom 265 1002 5 0 0 0 - - -;
#X floatatom 161 995 5 0 0 0 - - -;
#X obj 187 889 mtof;
#X obj 255 1094 *~;
#X obj 159 1090 *~;
#X obj 159 1114 +~;
#X obj 244 1127 +~;
#X obj 393 1202 line~;
#X obj 404 1135 bng 15 250 50 0 empty empty empty 17 7 0 10 -262144
-1 -1;
#X obj 160 1029 phasor~;
#X obj 159 1138 cos~;
#X obj 235 1145 cos~;
#X obj 1399 996 r quaternote;
#X floatatom 1399 1044 5 0 0 0 - - -;
#X obj 1399 1078 metro;
#X obj 1331 1039 r tg;
#X floatatom 185 867 5 0 0 0 - - -;
#X floatatom 1615 993 5 0 0 0 - - -;
#X obj 1508 116 + 1;
#X floatatom 1508 164 5 0 0 0 - - -;
#X obj 1733 46 bng 15 250 50 0 empty empty empty 17 7 0 10 -262144
-1 -1;
#X obj 1733 90 tgl 15 0 empty empty empty 17 7 0 10 -262144 -1 -1 0
1;
#X floatatom 1787 60 5 0 0 0 - - -;
#X obj 1796 81 metro;
#X obj 1818 169 bng 15 250 50 0 empty empty empty 17 7 0 10 -262144
-1 -1;
#X obj 1658 20 bng 15 250 50 0 empty empty in 17 7 0 10 -262144 -1
-1;
#X obj 1733 66 delay;
#X obj 1508 92 i -1;
#X obj 1778 29 r quaternote;
#X floatatom 1717 184 5 0 0 0 - - -;
#X obj 1346 302 i;
#X floatatom 1338 334 5 0 0 0 - - -;
#X obj 1707 159 tabread notes;
#X obj 1337 362 s v3;
#X floatatom 602 92 5 0 0 0 - - -;
#X obj 606 37 r pulse;
#X obj 1349 274 bng 15 250 50 0 empty empty empty 17 7 0 10 -262144
-1 -1;
#X obj 1736 118 random 8;
#X obj 1406 303 i;
#X floatatom 1398 335 5 0 0 0 - - -;
#X obj 1397 363 s v3;
#N canvas 0 50 450 300 pt 0;
#X obj 38 17 inlet;
#X obj 38 41 random 100;
#X obj 38 65 moses 66;
#X obj 38 89 outlet;
#X connect 0 0 1 0;
#X connect 1 0 2 0;
#X connect 2 0 3 0;
#X restore 1409 251 pd pt;
#X obj 1409 275 bng 15 250 50 0 empty empty empty 17 7 0 10 -262144
-1 -1;
#X obj 1463 303 i;
#X floatatom 1455 335 5 0 0 0 - - -;
#X obj 1454 363 s v3;
#N canvas 0 50 450 300 pt 0;
#X obj 38 17 inlet;
#X obj 38 41 random 100;
#X obj 38 65 moses 66;
#X obj 38 89 outlet;
#X connect 0 0 1 0;
#X connect 1 0 2 0;
#X connect 2 0 3 0;
#X restore 1466 251 pd pt;
#X obj 1466 275 bng 15 250 50 0 empty empty empty 17 7 0 10 -262144
-1 -1;
#X obj 1515 308 i;
#X floatatom 1507 340 5 0 0 0 - - -;
#X obj 1506 368 s v3;
#N canvas 0 50 450 300 pt 0;
#X obj 38 17 inlet;
#X obj 38 41 random 100;
#X obj 38 65 moses 66;
#X obj 38 89 outlet;
#X connect 0 0 1 0;
#X connect 1 0 2 0;
#X connect 2 0 3 0;
#X restore 1518 256 pd pt;
#X obj 1518 280 bng 15 250 50 0 empty empty empty 17 7 0 10 -262144
-1 -1;
#X obj 1577 305 i;
#X floatatom 1569 337 5 0 0 0 - - -;
#X obj 1568 365 s v3;
#N canvas 0 50 450 300 pt 0;
#X obj 38 17 inlet;
#X obj 38 41 random 100;
#X obj 38 65 moses 66;
#X obj 38 89 outlet;
#X connect 0 0 1 0;
#X connect 1 0 2 0;
#X connect 2 0 3 0;
#X restore 1580 253 pd pt;
#X obj 1580 277 bng 15 250 50 0 empty empty empty 17 7 0 10 -262144
-1 -1;
#X obj 1627 306 i;
#X floatatom 1619 338 5 0 0 0 - - -;
#X obj 1618 366 s v3;
#N canvas 0 50 450 300 pt 0;
#X obj 38 17 inlet;
#X obj 38 41 random 100;
#X obj 38 65 moses 66;
#X obj 38 89 outlet;
#X connect 0 0 1 0;
#X connect 1 0 2 0;
#X connect 2 0 3 0;
#X restore 1630 254 pd pt;
#X obj 1630 278 bng 15 250 50 0 empty empty empty 17 7 0 10 -262144
-1 -1;
#X obj 1051 107 + 1;
#X floatatom 1051 155 5 0 0 0 - - -;
#X obj 1276 37 bng 15 250 50 0 empty empty empty 17 7 0 10 -262144
-1 -1;
#X obj 1276 81 tgl 15 0 empty empty empty 17 7 0 10 -262144 -1 -1 0
1;
#X floatatom 1330 51 5 0 0 0 - - -;
#X obj 1339 72 metro;
#X obj 1361 160 bng 15 250 50 0 empty empty empty 17 7 0 10 -262144
-1 -1;
#X obj 1201 11 bng 15 250 50 0 empty empty in 17 7 0 10 -262144 -1
-1;
#X obj 1276 57 delay;
#X obj 1051 83 i -1;
#X obj 1321 20 r quaternote;
#X floatatom 1260 175 5 0 0 0 - - -;
#X obj 889 293 i;
#X floatatom 881 325 5 0 0 0 - - -;
#X obj 1250 150 tabread notes;
#X obj 880 353 s v3;
#X obj 892 265 bng 15 250 50 0 empty empty empty 17 7 0 10 -262144
-1 -1;
#X obj 949 294 i;
#X floatatom 941 326 5 0 0 0 - - -;
#X obj 940 354 s v3;
#N canvas 0 50 450 300 pt 0;
#X obj 38 17 inlet;
#X obj 38 41 random 100;
#X obj 38 65 moses 66;
#X obj 38 89 outlet;
#X connect 0 0 1 0;
#X connect 1 0 2 0;
#X connect 2 0 3 0;
#X restore 952 242 pd pt;
#X obj 952 266 bng 15 250 50 0 empty empty empty 17 7 0 10 -262144
-1 -1;
#X obj 1006 294 i;
#X floatatom 998 326 5 0 0 0 - - -;
#X obj 997 354 s v3;
#N canvas 0 50 450 300 pt 0;
#X obj 38 17 inlet;
#X obj 38 41 random 100;
#X obj 38 65 moses 66;
#X obj 38 89 outlet;
#X connect 0 0 1 0;
#X connect 1 0 2 0;
#X connect 2 0 3 0;
#X restore 1009 242 pd pt;
#X obj 1009 266 bng 15 250 50 0 empty empty empty 17 7 0 10 -262144
-1 -1;
#X obj 1058 299 i;
#X floatatom 1050 331 5 0 0 0 - - -;
#X obj 1049 359 s v3;
#N canvas 0 50 450 300 pt 0;
#X obj 38 17 inlet;
#X obj 38 41 random 100;
#X obj 38 65 moses 66;
#X obj 38 89 outlet;
#X connect 0 0 1 0;
#X connect 1 0 2 0;
#X connect 2 0 3 0;
#X restore 1061 247 pd pt;
#X obj 1061 271 bng 15 250 50 0 empty empty empty 17 7 0 10 -262144
-1 -1;
#X obj 1120 296 i;
#X floatatom 1112 328 5 0 0 0 - - -;
#X obj 1111 356 s v3;
#N canvas 0 50 450 300 pt 0;
#X obj 38 17 inlet;
#X obj 38 41 random 100;
#X obj 38 65 moses 66;
#X obj 38 89 outlet;
#X connect 0 0 1 0;
#X connect 1 0 2 0;
#X connect 2 0 3 0;
#X restore 1123 244 pd pt;
#X obj 1123 268 bng 15 250 50 0 empty empty empty 17 7 0 10 -262144
-1 -1;
#X obj 1170 297 i;
#X floatatom 1162 329 5 0 0 0 - - -;
#X obj 1161 357 s v3;
#N canvas 0 50 450 300 pt 0;
#X obj 38 17 inlet;
#X obj 38 41 random 100;
#X obj 38 65 moses 66;
#X obj 38 89 outlet;
#X connect 0 0 1 0;
#X connect 1 0 2 0;
#X connect 2 0 3 0;
#X restore 1173 245 pd pt;
#X obj 1173 269 bng 15 250 50 0 empty empty empty 17 7 0 10 -262144
-1 -1;
#X obj 589 251 s v3_hold;
#X obj 685 235 s v3_rand;
#X obj 1736 5 r v3_rand;
#X obj 1279 -3 r v3_hold;
#X obj 1537 550 + 1;
#X floatatom 1537 598 5 0 0 0 - - -;
#X obj 1687 455 bng 15 250 50 0 empty empty empty 17 7 0 10 -262144
-1 -1;
#X obj 1687 499 tgl 15 0 empty empty empty 17 7 0 10 -262144 -1 -1
0 1;
#X floatatom 1741 469 5 0 0 0 - - -;
#X obj 1750 490 metro;
#X obj 1772 578 bng 15 250 50 0 empty empty empty 17 7 0 10 -262144
-1 -1;
#X obj 1612 429 bng 15 250 50 0 empty empty in 17 7 0 10 -262144 -1
-1;
#X obj 1687 475 delay;
#X obj 1537 526 i -1;
#X obj 1732 438 r quaternote;
#X obj 1375 736 i;
#X floatatom 1367 768 5 0 0 0 - - -;
#X obj 1661 568 tabread notes;
#X floatatom 902 459 5 0 0 0 - - -;
#X obj 902 482 tabread notes;
#X obj 902 506 sel 59 71;
#X obj 883 547 bng 15 250 50 0 empty empty empty 17 7 0 10 -262144
-1 -1;
#X obj 937 551 bng 15 250 50 0 empty empty empty 17 7 0 10 -262144
-1 -1;
#X obj 979 554 bng 15 250 50 0 empty empty empty 17 7 0 10 -262144
-1 -1;
#X obj 906 404 r pulse;
#X obj 1378 708 bng 15 250 50 0 empty empty empty 17 7 0 10 -262144
-1 -1;
#X obj 1435 737 i;
#X floatatom 1427 769 5 0 0 0 - - -;
#N canvas 0 50 450 300 pt 0;
#X obj 38 17 inlet;
#X obj 38 41 random 100;
#X obj 38 89 outlet;
#X obj 38 65 moses 70;
#X connect 0 0 1 0;
#X connect 1 0 3 0;
#X connect 3 0 2 0;
#X restore 1438 685 pd pt;
#X obj 1438 709 bng 15 250 50 0 empty empty empty 17 7 0 10 -262144
-1 -1;
#X obj 1492 737 i;
#X floatatom 1484 769 5 0 0 0 - - -;
#N canvas 0 50 450 300 pt 0;
#X obj 38 17 inlet;
#X obj 38 41 random 100;
#X obj 38 89 outlet;
#X obj 38 66 moses 70;
#X connect 0 0 1 0;
#X connect 1 0 3 0;
#X connect 3 0 2 0;
#X restore 1495 685 pd pt;
#X obj 1495 709 bng 15 250 50 0 empty empty empty 17 7 0 10 -262144
-1 -1;
#X obj 1544 742 i;
#X floatatom 1536 774 5 0 0 0 - - -;
#N canvas 0 50 450 300 pt 0;
#X obj 38 17 inlet;
#X obj 38 41 random 100;
#X obj 38 89 outlet;
#X obj 38 65 moses 70;
#X connect 0 0 1 0;
#X connect 1 0 3 0;
#X connect 3 0 2 0;
#X restore 1547 690 pd pt;
#X obj 1547 714 bng 15 250 50 0 empty empty empty 17 7 0 10 -262144
-1 -1;
#X obj 1606 739 i;
#X floatatom 1598 771 5 0 0 0 - - -;
#N canvas 0 50 450 300 pt 0;
#X obj 38 17 inlet;
#X obj 38 41 random 100;
#X obj 38 89 outlet;
#X obj 38 65 moses 70;
#X connect 0 0 1 0;
#X connect 1 0 3 0;
#X connect 3 0 2 0;
#X restore 1609 687 pd pt;
#X obj 1609 711 bng 15 250 50 0 empty empty empty 17 7 0 10 -262144
-1 -1;
#X obj 1179 548 + 1;
#X floatatom 1179 596 5 0 0 0 - - -;
#X obj 1328 458 bng 15 250 50 0 empty empty empty 17 7 0 10 -262144
-1 -1;
#X obj 1328 502 tgl 15 0 empty empty empty 17 7 0 10 -262144 -1 -1
0 1;
#X floatatom 1382 472 5 0 0 0 - - -;
#X obj 1391 493 metro;
#X obj 1413 581 bng 15 250 50 0 empty empty empty 17 7 0 10 -262144
-1 -1;
#X obj 1299 444 bng 15 250 50 0 empty empty in 17 7 0 10 -262144 -1
-1;
#X obj 1328 478 delay;
#X obj 1179 524 i -1;
#X obj 1373 441 r quaternote;
#X floatatom 1312 596 5 0 0 0 - - -;
#X obj 1017 734 i;
#X floatatom 1009 766 5 0 0 0 - - -;
#X obj 1302 571 tabread notes;
#X obj 1020 706 bng 15 250 50 0 empty empty empty 17 7 0 10 -262144
-1 -1;
#X obj 1077 735 i;
#X floatatom 1069 767 5 0 0 0 - - -;
#N canvas 0 50 450 300 pt 0;
#X obj 38 17 inlet;
#X obj 38 41 random 100;
#X obj 38 89 outlet;
#X obj 38 65 moses 70;
#X connect 0 0 1 0;
#X connect 1 0 3 0;
#X connect 3 0 2 0;
#X restore 1080 683 pd pt;
#X obj 1080 707 bng 15 250 50 0 empty empty empty 17 7 0 10 -262144
-1 -1;
#X obj 1134 735 i;
#X floatatom 1126 767 5 0 0 0 - - -;
#N canvas 0 50 450 300 pt 0;
#X obj 38 17 inlet;
#X obj 38 41 random 100;
#X obj 38 89 outlet;
#X obj 38 65 moses 70;
#X connect 0 0 1 0;
#X connect 1 0 3 0;
#X connect 3 0 2 0;
#X restore 1137 683 pd pt;
#X obj 1137 707 bng 15 250 50 0 empty empty empty 17 7 0 10 -262144
-1 -1;
#X obj 1186 740 i;
#X floatatom 1178 772 5 0 0 0 - - -;
#N canvas 0 50 450 300 pt 0;
#X obj 38 17 inlet;
#X obj 38 41 random 100;
#X obj 38 89 outlet;
#X obj 38 65 moses 70;
#X connect 0 0 1 0;
#X connect 1 0 3 0;
#X connect 3 0 2 0;
#X restore 1189 688 pd pt;
#X obj 1189 712 bng 15 250 50 0 empty empty empty 17 7 0 10 -262144
-1 -1;
#X obj 1248 737 i;
#X floatatom 1240 769 5 0 0 0 - - -;
#N canvas 0 50 450 300 pt 0;
#X obj 38 17 inlet;
#X obj 38 41 random 100;
#X obj 38 89 outlet;
#X obj 38 65 moses 70;
#X connect 0 0 1 0;
#X connect 1 0 3 0;
#X connect 3 0 2 0;
#X restore 1251 685 pd pt;
#X obj 1251 709 bng 15 250 50 0 empty empty empty 17 7 0 10 -262144
-1 -1;
#X msg 865 579 0;
#X msg 917 582 7;
#X obj 979 574 s v2_rand;
#X obj 883 619 s v2_hold;
#X obj 1426 471 / 5;
#X obj 1690 414 r v2_rand;
#X obj 1331 418 r v2_hold;
#X obj 1180 572 % 5;
#X obj 1538 574 % 5;
#X obj 1534 632 sel 0 1 2 3 4;
#X obj 1176 630 sel 0 1 2 3 4;
#X obj 1008 794 s v2;
#X obj 1068 795 s v2;
#X obj 1125 795 s v2;
#X obj 1177 800 s v2;
#X obj 1238 800 s v2;
#X obj 1366 796 s v2;
#X obj 1427 797 s v2;
#X obj 1483 797 s v2;
#X obj 1535 803 s v2;
#X obj 1597 799 s v2;
#X obj 1050 968 r v2;
#X obj 1421 1117 delay 5;
#X obj 1621 871 r v3;
#X obj 255 142 - 0;
#X obj 538 490 + 1;
#X floatatom 538 538 5 0 0 0 - - -;
#X obj 688 395 bng 15 250 50 0 empty empty empty 17 7 0 10 -262144
-1 -1;
#X obj 688 439 tgl 15 0 empty empty empty 17 7 0 10 -262144 -1 -1 0
1;
#X floatatom 742 409 5 0 0 0 - - -;
#X obj 751 430 metro;
#X obj 773 518 bng 15 250 50 0 empty empty empty 17 7 0 10 -262144
-1 -1;
#X obj 613 369 bng 15 250 50 0 empty empty in 17 7 0 10 -262144 -1
-1;
#X obj 688 415 delay;
#X obj 538 466 i -1;
#X obj 733 378 r quaternote;
#X obj 492 692 i;
#X floatatom 484 724 5 0 0 0 - - -;
#X obj 662 508 tabread notes;
#X floatatom 67 278 5 0 0 0 - - -;
#X obj 71 223 r pulse;
#X obj 495 664 bng 15 250 50 0 empty empty empty 17 7 0 10 -262144
-1 -1;
#X obj 552 693 i;
#X floatatom 544 725 5 0 0 0 - - -;
#N canvas 0 50 450 300 pt 0;
#X obj 38 17 inlet;
#X obj 38 41 random 100;
#X obj 38 89 outlet;
#X obj 38 65 moses 75;
#X connect 0 0 1 0;
#X connect 1 0 3 0;
#X connect 3 0 2 0;
#X restore 555 641 pd pt;
#X obj 555 665 bng 15 250 50 0 empty empty empty 17 7 0 10 -262144
-1 -1;
#X obj 609 693 i;
#X floatatom 601 725 5 0 0 0 - - -;
#N canvas 0 50 450 300 pt 0;
#X obj 38 17 inlet;
#X obj 38 41 random 100;
#X obj 38 89 outlet;
#X obj 38 66 moses 75;
#X connect 0 0 1 0;
#X connect 1 0 3 0;
#X connect 3 0 2 0;
#X restore 612 641 pd pt;
#X obj 612 665 bng 15 250 50 0 empty empty empty 17 7 0 10 -262144
-1 -1;
#X obj 180 488 + 1;
#X floatatom 180 536 5 0 0 0 - - -;
#X obj 329 398 bng 15 250 50 0 empty empty empty 17 7 0 10 -262144
-1 -1;
#X obj 329 442 tgl 15 0 empty empty empty 17 7 0 10 -262144 -1 -1 0
1;
#X floatatom 383 412 5 0 0 0 - - -;
#X obj 392 433 metro;
#X obj 414 521 bng 15 250 50 0 empty empty empty 17 7 0 10 -262144
-1 -1;
#X obj 298 379 bng 15 250 50 0 empty empty in 17 7 0 10 -262144 -1
-1;
#X obj 329 418 delay;
#X obj 180 464 i -1;
#X obj 374 381 r quaternote;
#X floatatom 313 536 5 0 0 0 - - -;
#X obj 155 693 i;
#X floatatom 147 725 5 0 0 0 - - -;
#X obj 303 511 tabread notes;
#X obj 158 665 bng 15 250 50 0 empty empty empty 17 7 0 10 -262144
-1 -1;
#X obj 215 694 i;
#X floatatom 207 726 5 0 0 0 - - -;
#N canvas 0 50 450 300 pt 0;
#X obj 38 17 inlet;
#X obj 38 41 random 100;
#X obj 38 89 outlet;
#X obj 38 65 moses 75;
#X connect 0 0 1 0;
#X connect 1 0 3 0;
#X connect 3 0 2 0;
#X restore 218 642 pd pt;
#X obj 218 666 bng 15 250 50 0 empty empty empty 17 7 0 10 -262144
-1 -1;
#X obj 272 694 i;
#X floatatom 264 726 5 0 0 0 - - -;
#N canvas 0 50 450 300 pt 0;
#X obj 38 17 inlet;
#X obj 38 41 random 100;
#X obj 38 89 outlet;
#X obj 41 64 moses 75;
#X connect 0 0 1 0;
#X connect 1 0 3 0;
#X connect 3 0 2 0;
#X restore 275 642 pd pt;
#X obj 275 666 bng 15 250 50 0 empty empty empty 17 7 0 10 -262144
-1 -1;
#X obj 786 408 / 3;
#X obj 427 411 / 3;
#X obj 181 512 % 3;
#X obj 539 514 % 3;
#X obj 177 570 sel 0 1 2;
#X obj 535 572 sel 0 1 2;
#X obj 691 354 r v1_rand;
#X obj 332 358 r v1_hold;
#X obj 146 753 s v1;
#X obj 206 754 s v1;
#X obj 263 754 s v1;
#X obj 483 752 s v1;
#X obj 544 753 s v1;
#X obj 600 753 s v1;
#X obj 121 444 s v1_rand;
#X obj 41 443 s v1_hold;
#X obj 206 799 r v1;
#X obj 1663 1289 cos~;
#X obj 1578 1276 cos~;
#X obj 1212 298 i;
#X floatatom 1204 330 5 0 0 0 - - -;
#X obj 1203 358 s v3;
#N canvas 0 50 450 300 pt 0;
#X obj 38 17 inlet;
#X obj 38 41 random 100;
#X obj 38 65 moses 66;
#X obj 38 89 outlet;
#X connect 0 0 1 0;
#X connect 1 0 2 0;
#X connect 2 0 3 0;
#X restore 1215 246 pd pt;
#X obj 1215 270 bng 15 250 50 0 empty empty empty 17 7 0 10 -262144
-1 -1;
#X obj 1675 302 i;
#X floatatom 1667 334 5 0 0 0 - - -;
#X obj 1666 362 s v3;
#N canvas 0 50 450 300 pt 0;
#X obj 38 17 inlet;
#X obj 38 41 random 100;
#X obj 38 65 moses 66;
#X obj 38 89 outlet;
#X connect 0 0 1 0;
#X connect 1 0 2 0;
#X connect 2 0 3 0;
#X restore 1678 250 pd pt;
#X obj 1678 274 bng 15 250 50 0 empty empty empty 17 7 0 10 -262144
-1 -1;
#X obj 1831 58 / 7;
#X obj 1052 131 % 7;
#X obj 1509 140 % 7;
#X obj 1049 194 sel 0 1 2 3 4 5 6;
#X obj 1505 198 sel 0 1 2 3 4 5 6;
#X obj 1123 1215 *~;
#X obj 67 254 random 12;
#X obj 601 71 random 12;
#X obj 691 467 random 12;
#X obj 902 435 random 12;
#X obj 1690 527 random 12;
#X obj 1615 969 + 12;
#X obj 1050 992 - 12;
#X obj 185 843 - 0;
#X text 213 286 6 is Dorian characteristic sound \, root \, 6 and their
octaves are repeated for higher probability;
#X obj 62 321 sel 0 5 7;
#X obj 601 139 sel 0 5 7;
#X floatatom 57 416 5 0 0 0 - - -;
#X floatatom 124 391 5 0 0 0 - - -;
#X msg 9 363 0;
#X msg 48 360 5;
#X msg 80 365 7;
#X floatatom 626 219 5 0 0 0 - - -;
#X floatatom 693 194 5 0 0 0 - - -;
#X msg 578 166 0;
#X msg 617 163 5;
#X msg 649 168 7;
#X obj 1785 468 / 6;
#X msg 463 1171 0 320;
#X msg 1819 1116 0 250;
#X obj 1632 1071 * 1.0125;
#X obj 1122 1191 *~ 0.75;
#X msg 1359 1145 1 15;
#X msg 1424 1149 0 30;
#X obj 1399 1020 / 11;
#X obj 264 978 * 1.9975;
#X obj 1026 1113 * 2;
#X obj 1130 1120 * 0.5;
#X obj 1817 1084 delay 150;
#X obj 1325 1282 delay 150;
#X obj 167 1054 *~ 0.75;
#X obj 257 1049 *~ 0.25;
#X obj 524 896 random 12;
#X obj 526 930 + 12;
#X floatatom 455 1018 5 0 0 0 - - -;
#X obj 479 857 bng 15 250 50 0 empty empty empty 17 7 0 10 -262144
-1 -1;
#X obj 541 989 /;
#X obj 1024 1197 *~ 0.25;
#X obj 406 1056 /;
#X floatatom 404 1085 5 0 0 0 - - -;
#X obj 1581 1194 *~ 0.25;
#X obj 460 1140 delay 75;
#X obj 160 970 3;
#X obj 452 986 + 1;
#X msg 395 1030 0.5;
#X obj 591 1276 *~ 0.12;
#X obj 473 1252 *~ 0.075;
#X msg 1327 1314 0 100;
#X obj 1374 50 / 8;
#X obj 736 1355 *~ 0.075;
#X msg 397 1169 1 125;
#X msg 1262 1310 1 75;
#X floatatom 275 462 5 0 0 0 - - -;
#X msg 241 20 \; notes 0 59 62 63 64 66 67 69 71 59 67 71 79;
#X obj 1579 1167 line~;
#X obj 257 1024 line~;
#X obj 1025 1172 line~;
#X obj 1676 1162 line~;
#X msg 1746 1118 1 175;
#X msg 45 38 1500;
#X obj 1584 1108 * 1.9975;
#X obj 1676 1188 *~ 0.25;
#X connect 0 0 2 0;
#X connect 0 0 393 0;
#X connect 0 0 387 0;
#X connect 0 0 7 0;
#X connect 1 0 2 1;
#X connect 1 0 245 0;
#X connect 2 0 3 0;
#X connect 3 0 393 0;
#X connect 3 0 6 0;
#X connect 9 0 10 0;
#X connect 10 0 14 0;
#X connect 11 0 15 0;
#X connect 12 0 329 1;
#X connect 13 0 356 0;
#X connect 13 0 243 0;
#X connect 14 0 379 0;
#X connect 15 0 9 0;
#X connect 16 0 355 0;
#X connect 17 0 16 0;
#X connect 17 0 370 1;
#X connect 18 0 390 0;
#X connect 19 0 11 0;
#X connect 19 0 360 0;
#X connect 19 0 361 0;
#X connect 21 0 22 0;
#X connect 22 0 9 1;
#X connect 23 0 14 1;
#X connect 23 0 21 1;
#X connect 24 0 385 0;
#X connect 24 0 363 0;
#X connect 25 0 26 0;
#X connect 26 0 28 0;
#X connect 27 0 29 0;
#X connect 28 0 383 0;
#X connect 29 0 25 0;
#X connect 30 0 388 0;
#X connect 31 0 27 0;
#X connect 31 0 354 0;
#X connect 31 0 394 0;
#X connect 32 0 33 0;
#X connect 33 0 313 0;
#X connect 34 0 312 0;
#X connect 35 0 32 1;
#X connect 35 0 28 1;
#X connect 35 0 34 1;
#X connect 36 0 392 0;
#X connect 36 0 362 0;
#X connect 37 0 38 0;
#X connect 38 0 40 0;
#X connect 39 0 41 0;
#X connect 40 0 380 0;
#X connect 41 0 37 0;
#X connect 42 0 389 0;
#X connect 43 0 51 0;
#X connect 44 0 39 0;
#X connect 44 0 359 0;
#X connect 44 0 376 0;
#X connect 45 0 48 0;
#X connect 46 0 47 0;
#X connect 47 0 52 0;
#X connect 48 0 53 0;
#X connect 49 0 46 1;
#X connect 49 0 40 1;
#X connect 49 0 45 1;
#X connect 50 0 384 0;
#X connect 50 0 375 0;
#X connect 51 0 364 0;
#X connect 52 0 37 1;
#X connect 53 0 47 1;
#X connect 54 0 358 0;
#X connect 55 0 56 1;
#X connect 56 0 13 0;
#X connect 57 0 56 0;
#X connect 58 0 44 0;
#X connect 59 0 31 0;
#X connect 60 0 326 0;
#X connect 61 0 328 0;
#X connect 62 0 68 0;
#X connect 63 0 65 0;
#X connect 64 0 68 1;
#X connect 64 0 324 0;
#X connect 65 0 66 0;
#X connect 65 0 79 0;
#X connect 66 0 69 0;
#X connect 67 0 62 0;
#X connect 67 0 63 0;
#X connect 68 0 63 0;
#X connect 69 0 60 0;
#X connect 70 0 64 0;
#X connect 71 0 100 1;
#X connect 71 0 95 1;
#X connect 71 0 90 1;
#X connect 71 0 85 1;
#X connect 71 0 80 1;
#X connect 71 0 72 1;
#X connect 71 0 319 1;
#X connect 72 0 73 0;
#X connect 73 0 75 0;
#X connect 74 0 71 0;
#X connect 76 0 340 0;
#X connect 77 0 331 0;
#X connect 78 0 72 0;
#X connect 79 0 74 0;
#X connect 80 0 81 0;
#X connect 81 0 82 0;
#X connect 83 0 84 0;
#X connect 84 0 80 0;
#X connect 85 0 86 0;
#X connect 86 0 87 0;
#X connect 88 0 89 0;
#X connect 89 0 85 0;
#X connect 90 0 91 0;
#X connect 91 0 92 0;
#X connect 93 0 94 0;
#X connect 94 0 90 0;
#X connect 95 0 96 0;
#X connect 96 0 97 0;
#X connect 98 0 99 0;
#X connect 99 0 95 0;
#X connect 100 0 101 0;
#X connect 101 0 102 0;
#X connect 103 0 104 0;
#X connect 104 0 100 0;
#X connect 105 0 325 0;
#X connect 106 0 327 0;
#X connect 107 0 113 0;
#X connect 108 0 110 0;
#X connect 109 0 113 1;
#X connect 109 0 382 0;
#X connect 110 0 111 0;
#X connect 111 0 114 0;
#X connect 112 0 107 0;
#X connect 112 0 108 0;
#X connect 113 0 108 0;
#X connect 114 0 105 0;
#X connect 115 0 109 0;
#X connect 116 0 142 1;
#X connect 116 0 137 1;
#X connect 116 0 132 1;
#X connect 116 0 127 1;
#X connect 116 0 122 1;
#X connect 116 0 117 1;
#X connect 116 0 314 1;
#X connect 117 0 118 0;
#X connect 118 0 120 0;
#X connect 119 0 116 0;
#X connect 121 0 117 0;
#X connect 122 0 123 0;
#X connect 123 0 124 0;
#X connect 125 0 126 0;
#X connect 126 0 122 0;
#X connect 127 0 128 0;
#X connect 128 0 129 0;
#X connect 130 0 131 0;
#X connect 131 0 127 0;
#X connect 132 0 133 0;
#X connect 133 0 134 0;
#X connect 135 0 136 0;
#X connect 136 0 132 0;
#X connect 137 0 138 0;
#X connect 138 0 139 0;
#X connect 140 0 141 0;
#X connect 141 0 137 0;
#X connect 142 0 143 0;
#X connect 143 0 144 0;
#X connect 145 0 146 0;
#X connect 146 0 142 0;
#X connect 149 0 67 0;
#X connect 150 0 112 0;
#X connect 150 0 119 0;
#X connect 151 0 229 0;
#X connect 152 0 230 0;
#X connect 153 0 159 0;
#X connect 154 0 156 0;
#X connect 155 0 159 1;
#X connect 155 0 351 0;
#X connect 156 0 157 0;
#X connect 156 0 334 0;
#X connect 157 0 160 0;
#X connect 158 0 153 0;
#X connect 158 0 154 0;
#X connect 159 0 154 0;
#X connect 160 0 151 0;
#X connect 161 0 155 0;
#X connect 162 0 163 0;
#X connect 163 0 237 0;
#X connect 164 0 162 1;
#X connect 164 0 173 1;
#X connect 164 0 181 1;
#X connect 164 0 185 1;
#X connect 164 0 177 1;
#X connect 165 0 166 0;
#X connect 166 0 167 0;
#X connect 167 0 168 0;
#X connect 167 1 169 0;
#X connect 167 2 170 0;
#X connect 168 0 221 0;
#X connect 169 0 222 0;
#X connect 170 0 223 0;
#X connect 171 0 333 0;
#X connect 172 0 162 0;
#X connect 173 0 174 0;
#X connect 174 0 238 0;
#X connect 175 0 176 0;
#X connect 176 0 173 0;
#X connect 177 0 178 0;
#X connect 178 0 239 0;
#X connect 179 0 180 0;
#X connect 180 0 177 0;
#X connect 181 0 182 0;
#X connect 182 0 240 0;
#X connect 183 0 184 0;
#X connect 184 0 181 0;
#X connect 185 0 186 0;
#X connect 186 0 241 0;
#X connect 187 0 188 0;
#X connect 188 0 185 0;
#X connect 189 0 228 0;
#X connect 190 0 231 0;
#X connect 191 0 197 0;
#X connect 192 0 194 0;
#X connect 193 0 197 1;
#X connect 193 0 225 0;
#X connect 194 0 195 0;
#X connect 195 0 198 0;
#X connect 196 0 191 0;
#X connect 196 0 192 0;
#X connect 197 0 192 0;
#X connect 198 0 189 0;
#X connect 199 0 193 0;
#X connect 200 0 217 1;
#X connect 200 0 213 1;
#X connect 200 0 209 1;
#X connect 200 0 205 1;
#X connect 200 0 201 1;
#X connect 201 0 202 0;
#X connect 202 0 232 0;
#X connect 203 0 200 0;
#X connect 204 0 201 0;
#X connect 205 0 206 0;
#X connect 206 0 233 0;
#X connect 207 0 208 0;
#X connect 208 0 205 0;
#X connect 209 0 210 0;
#X connect 210 0 234 0;
#X connect 211 0 212 0;
#X connect 212 0 209 0;
#X connect 213 0 214 0;
#X connect 214 0 235 0;
#X connect 215 0 216 0;
#X connect 216 0 213 0;
#X connect 217 0 218 0;
#X connect 218 0 236 0;
#X connect 219 0 220 0;
#X connect 220 0 217 0;
#X connect 221 0 224 0;
#X connect 222 0 224 0;
#X connect 225 0 194 1;
#X connect 226 0 158 0;
#X connect 227 0 196 0;
#X connect 227 0 203 0;
#X connect 228 0 190 0;
#X connect 228 0 198 1;
#X connect 229 0 152 0;
#X connect 229 0 160 1;
#X connect 230 0 172 0;
#X connect 230 1 175 0;
#X connect 230 2 179 0;
#X connect 230 3 183 0;
#X connect 230 4 187 0;
#X connect 231 0 204 0;
#X connect 231 1 207 0;
#X connect 231 2 211 0;
#X connect 231 3 215 0;
#X connect 231 4 219 0;
#X connect 242 0 24 0;
#X connect 242 0 336 0;
#X connect 243 0 357 0;
#X connect 244 0 36 0;
#X connect 244 0 335 0;
#X connect 245 0 4 0;
#X connect 246 0 298 0;
#X connect 247 0 300 0;
#X connect 248 0 254 0;
#X connect 249 0 251 0;
#X connect 250 0 254 1;
#X connect 250 0 295 0;
#X connect 251 0 252 0;
#X connect 251 0 332 0;
#X connect 252 0 255 0;
#X connect 253 0 248 0;
#X connect 253 0 249 0;
#X connect 254 0 249 0;
#X connect 255 0 246 0;
#X connect 256 0 250 0;
#X connect 257 0 258 0;
#X connect 258 0 306 0;
#X connect 259 0 257 1;
#X connect 259 0 263 1;
#X connect 259 0 267 1;
#X connect 260 0 339 0;
#X connect 261 0 330 0;
#X connect 262 0 257 0;
#X connect 263 0 264 0;
#X connect 264 0 307 0;
#X connect 265 0 266 0;
#X connect 266 0 263 0;
#X connect 267 0 268 0;
#X connect 268 0 308 0;
#X connect 269 0 270 0;
#X connect 270 0 267 0;
#X connect 271 0 297 0;
#X connect 272 0 299 0;
#X connect 273 0 279 0;
#X connect 274 0 276 0;
#X connect 275 0 279 1;
#X connect 275 0 296 0;
#X connect 276 0 277 0;
#X connect 277 0 280 0;
#X connect 278 0 273 0;
#X connect 278 0 274 0;
#X connect 279 0 274 0;
#X connect 280 0 271 0;
#X connect 281 0 275 0;
#X connect 282 0 291 1;
#X connect 282 0 287 1;
#X connect 282 0 283 1;
#X connect 283 0 284 0;
#X connect 284 0 303 0;
#X connect 285 0 282 0;
#X connect 286 0 283 0;
#X connect 287 0 288 0;
#X connect 288 0 304 0;
#X connect 289 0 290 0;
#X connect 290 0 287 0;
#X connect 291 0 292 0;
#X connect 292 0 305 0;
#X connect 293 0 294 0;
#X connect 294 0 291 0;
#X connect 295 0 251 1;
#X connect 296 0 276 1;
#X connect 297 0 272 0;
#X connect 297 0 280 1;
#X connect 298 0 247 0;
#X connect 298 0 255 1;
#X connect 299 0 286 0;
#X connect 299 1 289 0;
#X connect 299 2 293 0;
#X connect 300 0 262 0;
#X connect 300 1 265 0;
#X connect 300 2 269 0;
#X connect 301 0 253 0;
#X connect 302 0 278 0;
#X connect 302 0 386 0;
#X connect 311 0 50 0;
#X connect 311 0 337 0;
#X connect 311 0 369 0;
#X connect 312 0 33 1;
#X connect 313 0 25 1;
#X connect 314 0 315 0;
#X connect 315 0 316 0;
#X connect 317 0 318 0;
#X connect 318 0 314 0;
#X connect 319 0 320 0;
#X connect 320 0 321 0;
#X connect 322 0 323 0;
#X connect 323 0 319 0;
#X connect 324 0 65 1;
#X connect 325 0 106 0;
#X connect 325 0 114 1;
#X connect 326 0 61 0;
#X connect 326 0 69 1;
#X connect 327 0 121 0;
#X connect 327 1 125 0;
#X connect 327 2 130 0;
#X connect 327 3 135 0;
#X connect 327 4 140 0;
#X connect 327 5 145 0;
#X connect 327 6 317 0;
#X connect 328 0 78 0;
#X connect 328 1 83 0;
#X connect 328 2 88 0;
#X connect 328 3 93 0;
#X connect 328 4 98 0;
#X connect 328 5 103 0;
#X connect 328 6 322 0;
#X connect 329 0 22 1;
#X connect 330 0 260 0;
#X connect 331 0 76 0;
#X connect 332 0 259 0;
#X connect 333 0 165 0;
#X connect 334 0 164 0;
#X connect 335 0 59 0;
#X connect 336 0 19 0;
#X connect 337 0 58 0;
#X connect 339 0 343 0;
#X connect 339 1 344 0;
#X connect 339 2 345 0;
#X connect 339 3 342 0;
#X connect 340 0 348 0;
#X connect 340 1 349 0;
#X connect 340 2 350 0;
#X connect 340 3 347 0;
#X connect 341 0 310 0;
#X connect 342 0 309 0;
#X connect 343 0 341 0;
#X connect 344 0 341 0;
#X connect 345 0 341 0;
#X connect 346 0 147 0;
#X connect 347 0 148 0;
#X connect 348 0 346 0;
#X connect 349 0 346 0;
#X connect 350 0 346 0;
#X connect 351 0 156 1;
#X connect 352 0 49 0;
#X connect 353 0 35 0;
#X connect 354 0 391 0;
#X connect 355 0 329 0;
#X connect 356 0 12 0;
#X connect 357 0 12 0;
#X connect 358 0 55 0;
#X connect 359 0 42 0;
#X connect 360 0 18 0;
#X connect 361 0 17 0;
#X connect 362 0 353 0;
#X connect 363 0 381 0;
#X connect 364 0 46 0;
#X connect 365 0 45 0;
#X connect 366 0 367 0;
#X connect 367 0 370 0;
#X connect 368 0 359 1;
#X connect 368 0 360 1;
#X connect 368 0 354 1;
#X connect 368 0 372 1;
#X connect 368 0 394 1;
#X connect 369 0 366 0;
#X connect 369 0 378 0;
#X connect 370 0 377 0;
#X connect 371 0 21 0;
#X connect 372 0 373 0;
#X connect 373 0 365 1;
#X connect 373 0 374 1;
#X connect 374 0 32 0;
#X connect 375 0 352 0;
#X connect 376 0 43 0;
#X connect 377 0 368 0;
#X connect 378 0 372 0;
#X connect 379 0 20 0;
#X connect 379 0 20 1;
#X connect 380 0 20 0;
#X connect 380 0 20 1;
#X connect 381 0 23 0;
#X connect 382 0 110 1;
#X connect 383 0 20 0;
#X connect 383 0 20 1;
#X connect 384 0 49 0;
#X connect 385 0 23 0;
#X connect 386 0 285 0;
#X connect 388 0 374 0;
#X connect 389 0 365 0;
#X connect 390 0 371 0;
#X connect 391 0 395 0;
#X connect 392 0 35 0;
#X connect 393 0 1 0;
#X connect 394 0 30 0;
#X connect 395 0 34 0;
