#N canvas -8 -8 1920 997 12;
#X obj 11 -1 tgl 15 0 empty empty empty 17 7 0 10 -262144 -1 -1 1 1
;
#X floatatom 209 64 5 0 0 0 - - -;
#X obj 212 92 metro;
#X obj 185 119 bng 15 250 50 0 empty empty empty 17 7 0 10 -262144
-1 -1;
#X obj 245 146 s quaternote;
#X obj 129 36 table notes;
#X obj 171 145 s pulse;
#X obj 6 41 s tg;
#X msg 45 38 720;
#X floatatom 38 305 5 0 0 0 - - -;
#X obj 18 397 bng 15 250 50 0 empty empty empty 17 7 0 10 -262144 -1
-1;
#X obj 55 398 bng 15 250 50 0 empty empty empty 17 7 0 10 -262144 -1
-1;
#X obj 115 400 bng 15 250 50 0 empty empty empty 17 7 0 10 -262144
-1 -1;
#X obj 42 250 r pulse;
#X msg 5 444 0;
#X msg 42 442 7;
#X obj 7 504 s v3_hold;
#X obj 100 465 s v3_asc2;
#X obj 150 399 bng 15 250 50 0 empty empty empty 17 7 0 10 -262144
-1 -1;
#X obj 187 397 bng 15 250 50 0 empty empty empty 17 7 0 10 -262144
-1 -1;
#X msg 108 424 1;
#X msg 157 424 3;
#X msg 197 423 5;
#X obj 1151 367 + 1;
#X floatatom 1151 415 5 0 0 0 - - -;
#X obj 1300 277 bng 15 250 50 0 empty empty empty 17 7 0 10 -262144
-1 -1;
#X obj 1300 321 tgl 15 0 empty empty empty 17 7 0 10 -262144 -1 -1
0 1;
#X floatatom 1354 291 5 0 0 0 - - -;
#X obj 1363 312 metro;
#X obj 1385 400 bng 15 250 50 0 empty empty empty 17 7 0 10 -262144
-1 -1;
#X obj 1269 258 bng 15 250 50 0 empty empty in 17 7 0 10 -262144 -1
-1;
#X obj 1300 297 delay;
#X obj 1151 343 i -1;
#X obj 1345 260 r quaternote;
#X floatatom 1231 437 5 0 0 0 - - -;
#X obj 1193 565 i;
#X floatatom 1185 597 5 0 0 0 - - -;
#X obj 1235 408 tabread notes;
#X obj 1196 537 bng 15 250 50 0 empty empty empty 17 7 0 10 -262144
-1 -1;
#X obj 1253 566 i;
#X floatatom 1245 598 5 0 0 0 - - -;
#X obj 1256 538 bng 15 250 50 0 empty empty empty 17 7 0 10 -262144
-1 -1;
#X obj 1310 566 i;
#X floatatom 1302 598 5 0 0 0 - - -;
#X obj 1313 538 bng 15 250 50 0 empty empty empty 17 7 0 10 -262144
-1 -1;
#X obj 1152 391 % 3;
#X obj 1148 449 sel 0 1 2;
#X obj 1184 625 s v3;
#X obj 1244 626 s v3;
#X obj 1301 626 s v3;
#X obj 451 218 r v3_hold;
#X floatatom 462 271 5 0 0 0 - - -;
#X obj 452 246 tabread notes;
#X obj 432 313 i;
#X floatatom 424 345 5 0 0 0 - - -;
#X obj 435 285 bng 15 250 50 0 empty empty empty 17 7 0 10 -262144
-1 -1;
#X obj 423 373 s v3;
#X obj 190 465 s v3_asc3;
#X obj 233 395 bng 15 250 50 0 empty empty empty 17 7 0 10 -262144
-1 -1;
#X msg 232 423 4;
#X obj 311 395 bng 15 250 50 0 empty empty empty 17 7 0 10 -262144
-1 -1;
#X obj 272 487 s v3_desc3;
#X obj 416 504 s v3_desc2;
#X obj 1398 290 / 3;
#X obj 1303 237 r v3_asc3;
#X obj 1284 443 + 1;
#X obj 1284 467 tabread notes;
#X floatatom 1284 491 5 0 0 0 - - -;
#X obj 1382 443 tabread notes;
#X floatatom 1382 467 5 0 0 0 - - -;
#X obj 1382 419 + 2;
#X obj 1571 388 + 1;
#X floatatom 1571 436 5 0 0 0 - - -;
#X obj 1720 298 bng 15 250 50 0 empty empty empty 17 7 0 10 -262144
-1 -1;
#X obj 1720 342 tgl 15 0 empty empty empty 17 7 0 10 -262144 -1 -1
0 1;
#X floatatom 1774 312 5 0 0 0 - - -;
#X obj 1783 333 metro;
#X obj 1805 421 bng 15 250 50 0 empty empty empty 17 7 0 10 -262144
-1 -1;
#X obj 1689 279 bng 15 250 50 0 empty empty in 17 7 0 10 -262144 -1
-1;
#X obj 1720 318 delay;
#X obj 1571 364 i -1;
#X obj 1765 281 r quaternote;
#X floatatom 1651 458 5 0 0 0 - - -;
#X obj 1613 586 i;
#X floatatom 1605 618 5 0 0 0 - - -;
#X obj 1655 429 tabread notes;
#X obj 1616 558 bng 15 250 50 0 empty empty empty 17 7 0 10 -262144
-1 -1;
#X obj 1673 587 i;
#X floatatom 1665 619 5 0 0 0 - - -;
#X obj 1676 559 bng 15 250 50 0 empty empty empty 17 7 0 10 -262144
-1 -1;
#X obj 1730 587 i;
#X floatatom 1722 619 5 0 0 0 - - -;
#X obj 1733 559 bng 15 250 50 0 empty empty empty 17 7 0 10 -262144
-1 -1;
#X obj 1604 646 s v3;
#X obj 1664 647 s v3;
#X obj 1721 647 s v3;
#X obj 1704 488 tabread notes;
#X floatatom 1704 512 5 0 0 0 - - -;
#X obj 1802 464 tabread notes;
#X floatatom 1802 488 5 0 0 0 - - -;
#X obj 1723 258 r v3_desc3;
#X obj 1704 464 - 1;
#X obj 1802 440 - 2;
#X msg 310 423 6;
#X obj 574 367 + 1;
#X floatatom 574 415 5 0 0 0 - - -;
#X obj 634 265 bng 15 250 50 0 empty empty empty 17 7 0 10 -262144
-1 -1;
#X obj 634 309 tgl 15 0 empty empty empty 17 7 0 10 -262144 -1 -1 1
1;
#X floatatom 688 279 5 0 0 0 - - -;
#X obj 697 300 metro;
#X obj 719 329 bng 15 250 50 0 empty empty empty 17 7 0 10 -262144
-1 -1;
#X obj 603 246 bng 15 250 50 0 empty empty in 17 7 0 10 -262144 -1
-1;
#X obj 634 285 delay;
#X obj 574 343 i -1;
#X obj 679 248 r quaternote;
#X floatatom 654 437 5 0 0 0 - - -;
#X obj 634 565 i;
#X floatatom 626 597 5 0 0 0 - - -;
#X obj 658 408 tabread notes;
#X obj 637 537 bng 15 250 50 0 empty empty empty 17 7 0 10 -262144
-1 -1;
#X obj 694 566 i;
#X floatatom 686 598 5 0 0 0 - - -;
#X obj 697 538 bng 15 250 50 0 empty empty empty 17 7 0 10 -262144
-1 -1;
#X obj 625 625 s v3;
#X obj 685 626 s v3;
#X obj 707 443 + 1;
#X obj 707 467 tabread notes;
#X floatatom 707 491 5 0 0 0 - - -;
#X obj 732 278 / 2;
#X obj 575 391 % 2;
#X obj 571 449 sel 0 1;
#X obj 873 364 + 1;
#X floatatom 873 412 5 0 0 0 - - -;
#X obj 933 262 bng 15 250 50 0 empty empty empty 17 7 0 10 -262144
-1 -1;
#X obj 933 306 tgl 15 0 empty empty empty 17 7 0 10 -262144 -1 -1 0
1;
#X floatatom 987 276 5 0 0 0 - - -;
#X obj 996 297 metro;
#X obj 1018 326 bng 15 250 50 0 empty empty empty 17 7 0 10 -262144
-1 -1;
#X obj 902 243 bng 15 250 50 0 empty empty in 17 7 0 10 -262144 -1
-1;
#X obj 933 282 delay;
#X obj 873 340 i -1;
#X obj 978 245 r quaternote;
#X floatatom 953 434 5 0 0 0 - - -;
#X obj 933 562 i;
#X floatatom 925 594 5 0 0 0 - - -;
#X obj 957 405 tabread notes;
#X obj 936 534 bng 15 250 50 0 empty empty empty 17 7 0 10 -262144
-1 -1;
#X obj 993 563 i;
#X floatatom 985 595 5 0 0 0 - - -;
#X obj 996 535 bng 15 250 50 0 empty empty empty 17 7 0 10 -262144
-1 -1;
#X obj 924 622 s v3;
#X obj 984 623 s v3;
#X obj 1006 464 tabread notes;
#X floatatom 1006 488 5 0 0 0 - - -;
#X obj 1031 275 / 2;
#X obj 874 388 % 2;
#X obj 870 446 sel 0 1;
#X obj 637 225 r v3_asc2;
#X obj 940 214 r v3_desc2;
#X obj 1006 440 - 1;
#X floatatom 29 777 5 0 0 0 - - -;
#X obj 18 869 bng 15 250 50 0 empty empty empty 17 7 0 10 -262144 -1
-1;
#X obj 68 871 bng 15 250 50 0 empty empty empty 17 7 0 10 -262144 -1
-1;
#X obj 106 872 bng 15 250 50 0 empty empty empty 17 7 0 10 -262144
-1 -1;
#X obj 33 722 r pulse;
#X msg 7 900 0;
#X msg 53 899 7;
#X obj 141 871 bng 15 250 50 0 empty empty empty 17 7 0 10 -262144
-1 -1;
#X obj 178 869 bng 15 250 50 0 empty empty empty 17 7 0 10 -262144
-1 -1;
#X msg 99 896 1;
#X msg 148 896 3;
#X msg 188 895 5;
#X obj 1142 839 + 1;
#X floatatom 1142 887 5 0 0 0 - - -;
#X obj 1291 749 bng 15 250 50 0 empty empty empty 17 7 0 10 -262144
-1 -1;
#X obj 1291 793 tgl 15 0 empty empty empty 17 7 0 10 -262144 -1 -1
0 1;
#X floatatom 1345 763 5 0 0 0 - - -;
#X obj 1354 784 metro;
#X obj 1376 872 bng 15 250 50 0 empty empty empty 17 7 0 10 -262144
-1 -1;
#X obj 1260 730 bng 15 250 50 0 empty empty in 17 7 0 10 -262144 -1
-1;
#X obj 1291 769 delay;
#X obj 1142 815 i -1;
#X obj 1336 732 r quaternote;
#X floatatom 1222 909 5 0 0 0 - - -;
#X obj 1184 1037 i;
#X floatatom 1176 1069 5 0 0 0 - - -;
#X obj 1226 880 tabread notes;
#X obj 1187 1009 bng 15 250 50 0 empty empty empty 17 7 0 10 -262144
-1 -1;
#X obj 1244 1038 i;
#X floatatom 1236 1070 5 0 0 0 - - -;
#X obj 1247 1010 bng 15 250 50 0 empty empty empty 17 7 0 10 -262144
-1 -1;
#X obj 1301 1038 i;
#X floatatom 1293 1070 5 0 0 0 - - -;
#X obj 1304 1010 bng 15 250 50 0 empty empty empty 17 7 0 10 -262144
-1 -1;
#X obj 1143 863 % 3;
#X obj 1139 921 sel 0 1 2;
#X floatatom 453 743 5 0 0 0 - - -;
#X obj 443 718 tabread notes;
#X obj 423 785 i;
#X floatatom 415 817 5 0 0 0 - - -;
#X obj 426 757 bng 15 250 50 0 empty empty empty 17 7 0 10 -262144
-1 -1;
#X obj 414 845 s v3;
#X obj 224 867 bng 15 250 50 0 empty empty empty 17 7 0 10 -262144
-1 -1;
#X msg 223 895 4;
#X obj 302 867 bng 15 250 50 0 empty empty empty 17 7 0 10 -262144
-1 -1;
#X obj 1389 762 / 3;
#X obj 1275 915 + 1;
#X obj 1275 939 tabread notes;
#X floatatom 1275 963 5 0 0 0 - - -;
#X obj 1373 915 tabread notes;
#X floatatom 1373 939 5 0 0 0 - - -;
#X obj 1373 891 + 2;
#X obj 1562 860 + 1;
#X floatatom 1562 908 5 0 0 0 - - -;
#X obj 1711 770 bng 15 250 50 0 empty empty empty 17 7 0 10 -262144
-1 -1;
#X obj 1711 814 tgl 15 0 empty empty empty 17 7 0 10 -262144 -1 -1
0 1;
#X floatatom 1765 784 5 0 0 0 - - -;
#X obj 1774 805 metro;
#X obj 1796 893 bng 15 250 50 0 empty empty empty 17 7 0 10 -262144
-1 -1;
#X obj 1680 751 bng 15 250 50 0 empty empty in 17 7 0 10 -262144 -1
-1;
#X obj 1711 790 delay;
#X obj 1562 836 i -1;
#X obj 1756 753 r quaternote;
#X floatatom 1642 930 5 0 0 0 - - -;
#X obj 1604 1058 i;
#X floatatom 1596 1090 5 0 0 0 - - -;
#X obj 1646 901 tabread notes;
#X obj 1607 1030 bng 15 250 50 0 empty empty empty 17 7 0 10 -262144
-1 -1;
#X obj 1664 1059 i;
#X floatatom 1656 1091 5 0 0 0 - - -;
#X obj 1667 1031 bng 15 250 50 0 empty empty empty 17 7 0 10 -262144
-1 -1;
#X obj 1721 1059 i;
#X floatatom 1713 1091 5 0 0 0 - - -;
#X obj 1724 1031 bng 15 250 50 0 empty empty empty 17 7 0 10 -262144
-1 -1;
#X obj 1695 960 tabread notes;
#X floatatom 1695 984 5 0 0 0 - - -;
#X obj 1793 936 tabread notes;
#X floatatom 1793 960 5 0 0 0 - - -;
#X obj 1695 936 - 1;
#X obj 1793 912 - 2;
#X msg 301 895 6;
#X obj 565 839 + 1;
#X floatatom 565 887 5 0 0 0 - - -;
#X obj 625 737 bng 15 250 50 0 empty empty empty 17 7 0 10 -262144
-1 -1;
#X obj 625 781 tgl 15 0 empty empty empty 17 7 0 10 -262144 -1 -1 0
1;
#X floatatom 679 751 5 0 0 0 - - -;
#X obj 688 772 metro;
#X obj 710 801 bng 15 250 50 0 empty empty empty 17 7 0 10 -262144
-1 -1;
#X obj 594 718 bng 15 250 50 0 empty empty in 17 7 0 10 -262144 -1
-1;
#X obj 625 757 delay;
#X obj 565 815 i -1;
#X obj 670 720 r quaternote;
#X floatatom 645 909 5 0 0 0 - - -;
#X obj 625 1037 i;
#X floatatom 617 1069 5 0 0 0 - - -;
#X obj 649 880 tabread notes;
#X obj 628 1009 bng 15 250 50 0 empty empty empty 17 7 0 10 -262144
-1 -1;
#X obj 685 1038 i;
#X floatatom 677 1070 5 0 0 0 - - -;
#X obj 688 1010 bng 15 250 50 0 empty empty empty 17 7 0 10 -262144
-1 -1;
#X obj 698 915 + 1;
#X obj 698 939 tabread notes;
#X floatatom 698 963 5 0 0 0 - - -;
#X obj 723 750 / 2;
#X obj 566 863 % 2;
#X obj 562 921 sel 0 1;
#X obj 864 836 + 1;
#X floatatom 864 884 5 0 0 0 - - -;
#X obj 924 734 bng 15 250 50 0 empty empty empty 17 7 0 10 -262144
-1 -1;
#X obj 924 778 tgl 15 0 empty empty empty 17 7 0 10 -262144 -1 -1 1
1;
#X floatatom 978 748 5 0 0 0 - - -;
#X obj 987 769 metro;
#X obj 1009 798 bng 15 250 50 0 empty empty empty 17 7 0 10 -262144
-1 -1;
#X obj 893 715 bng 15 250 50 0 empty empty in 17 7 0 10 -262144 -1
-1;
#X obj 924 754 delay;
#X obj 864 812 i -1;
#X obj 969 717 r quaternote;
#X floatatom 944 906 5 0 0 0 - - -;
#X obj 924 1034 i;
#X floatatom 916 1066 5 0 0 0 - - -;
#X obj 948 877 tabread notes;
#X obj 927 1006 bng 15 250 50 0 empty empty empty 17 7 0 10 -262144
-1 -1;
#X obj 984 1035 i;
#X floatatom 976 1067 5 0 0 0 - - -;
#X obj 987 1007 bng 15 250 50 0 empty empty empty 17 7 0 10 -262144
-1 -1;
#X obj 997 936 tabread notes;
#X floatatom 997 960 5 0 0 0 - - -;
#X obj 1022 747 / 2;
#X obj 865 860 % 2;
#X obj 861 918 sel 0 1;
#X obj 997 912 - 1;
#X obj 33 1216 random 8;
#X floatatom 33 1240 5 0 0 0 - - -;
#X obj 22 1332 bng 15 250 50 0 empty empty empty 17 7 0 10 -262144
-1 -1;
#X obj 72 1334 bng 15 250 50 0 empty empty empty 17 7 0 10 -262144
-1 -1;
#X obj 110 1335 bng 15 250 50 0 empty empty empty 17 7 0 10 -262144
-1 -1;
#X obj 37 1185 r pulse;
#X msg 11 1363 0;
#X msg 57 1362 7;
#X obj 145 1334 bng 15 250 50 0 empty empty empty 17 7 0 10 -262144
-1 -1;
#X obj 182 1332 bng 15 250 50 0 empty empty empty 17 7 0 10 -262144
-1 -1;
#X msg 103 1359 1;
#X msg 152 1359 3;
#X msg 192 1358 5;
#X obj 1146 1302 + 1;
#X floatatom 1146 1350 5 0 0 0 - - -;
#X obj 1295 1212 bng 15 250 50 0 empty empty empty 17 7 0 10 -262144
-1 -1;
#X obj 1295 1256 tgl 15 0 empty empty empty 17 7 0 10 -262144 -1 -1
0 1;
#X floatatom 1349 1226 5 0 0 0 - - -;
#X obj 1358 1247 metro;
#X obj 1380 1335 bng 15 250 50 0 empty empty empty 17 7 0 10 -262144
-1 -1;
#X obj 1264 1193 bng 15 250 50 0 empty empty in 17 7 0 10 -262144 -1
-1;
#X obj 1295 1232 delay;
#X obj 1146 1278 i -1;
#X obj 1340 1195 r quaternote;
#X floatatom 1226 1372 5 0 0 0 - - -;
#X obj 1188 1500 i;
#X floatatom 1180 1532 5 0 0 0 - - -;
#X obj 1230 1343 tabread notes;
#X obj 1191 1472 bng 15 250 50 0 empty empty empty 17 7 0 10 -262144
-1 -1;
#X obj 1248 1501 i;
#X floatatom 1240 1533 5 0 0 0 - - -;
#X obj 1251 1473 bng 15 250 50 0 empty empty empty 17 7 0 10 -262144
-1 -1;
#X obj 1305 1501 i;
#X floatatom 1297 1533 5 0 0 0 - - -;
#X obj 1308 1473 bng 15 250 50 0 empty empty empty 17 7 0 10 -262144
-1 -1;
#X obj 1147 1326 % 3;
#X obj 1143 1384 sel 0 1 2;
#X floatatom 457 1206 5 0 0 0 - - -;
#X obj 447 1181 tabread notes;
#X obj 427 1248 i;
#X floatatom 419 1280 5 0 0 0 - - -;
#X obj 430 1220 bng 15 250 50 0 empty empty empty 17 7 0 10 -262144
-1 -1;
#X obj 418 1308 s v3;
#X obj 228 1330 bng 15 250 50 0 empty empty empty 17 7 0 10 -262144
-1 -1;
#X msg 227 1358 4;
#X obj 306 1330 bng 15 250 50 0 empty empty empty 17 7 0 10 -262144
-1 -1;
#X floatatom 365 1323 5 0 0 0 - - -;
#X obj 1393 1225 / 3;
#X obj 1279 1378 + 1;
#X obj 1279 1402 tabread notes;
#X floatatom 1279 1426 5 0 0 0 - - -;
#X obj 1377 1378 tabread notes;
#X floatatom 1377 1402 5 0 0 0 - - -;
#X obj 1377 1354 + 2;
#X obj 1566 1323 + 1;
#X floatatom 1566 1371 5 0 0 0 - - -;
#X obj 1715 1233 bng 15 250 50 0 empty empty empty 17 7 0 10 -262144
-1 -1;
#X obj 1715 1277 tgl 15 0 empty empty empty 17 7 0 10 -262144 -1 -1
0 1;
#X floatatom 1769 1247 5 0 0 0 - - -;
#X obj 1778 1268 metro;
#X obj 1800 1356 bng 15 250 50 0 empty empty empty 17 7 0 10 -262144
-1 -1;
#X obj 1684 1214 bng 15 250 50 0 empty empty in 17 7 0 10 -262144 -1
-1;
#X obj 1715 1253 delay;
#X obj 1566 1299 i -1;
#X obj 1760 1216 r quaternote;
#X floatatom 1646 1393 5 0 0 0 - - -;
#X obj 1608 1521 i;
#X floatatom 1600 1553 5 0 0 0 - - -;
#X obj 1650 1364 tabread notes;
#X obj 1611 1493 bng 15 250 50 0 empty empty empty 17 7 0 10 -262144
-1 -1;
#X obj 1668 1522 i;
#X floatatom 1660 1554 5 0 0 0 - - -;
#X obj 1671 1494 bng 15 250 50 0 empty empty empty 17 7 0 10 -262144
-1 -1;
#X obj 1725 1522 i;
#X floatatom 1717 1554 5 0 0 0 - - -;
#X obj 1728 1494 bng 15 250 50 0 empty empty empty 17 7 0 10 -262144
-1 -1;
#X obj 1699 1423 tabread notes;
#X floatatom 1699 1447 5 0 0 0 - - -;
#X obj 1797 1399 tabread notes;
#X floatatom 1797 1423 5 0 0 0 - - -;
#X obj 1699 1399 - 1;
#X obj 1797 1375 - 2;
#X msg 305 1358 6;
#X obj 70 1278 sel 0 7 1 3 5 4 6;
#X obj 569 1302 + 1;
#X floatatom 569 1350 5 0 0 0 - - -;
#X obj 629 1200 bng 15 250 50 0 empty empty empty 17 7 0 10 -262144
-1 -1;
#X obj 629 1244 tgl 15 0 empty empty empty 17 7 0 10 -262144 -1 -1
1 1;
#X floatatom 683 1214 5 0 0 0 - - -;
#X obj 692 1235 metro;
#X obj 714 1264 bng 15 250 50 0 empty empty empty 17 7 0 10 -262144
-1 -1;
#X obj 598 1181 bng 15 250 50 0 empty empty in 17 7 0 10 -262144 -1
-1;
#X obj 629 1220 delay;
#X obj 569 1278 i -1;
#X obj 674 1183 r quaternote;
#X floatatom 649 1372 5 0 0 0 - - -;
#X obj 629 1500 i;
#X floatatom 621 1532 5 0 0 0 - - -;
#X obj 653 1343 tabread notes;
#X obj 632 1472 bng 15 250 50 0 empty empty empty 17 7 0 10 -262144
-1 -1;
#X obj 689 1501 i;
#X floatatom 681 1533 5 0 0 0 - - -;
#X obj 692 1473 bng 15 250 50 0 empty empty empty 17 7 0 10 -262144
-1 -1;
#X obj 702 1378 + 1;
#X obj 702 1402 tabread notes;
#X floatatom 702 1426 5 0 0 0 - - -;
#X obj 727 1213 / 2;
#X obj 570 1326 % 2;
#X obj 566 1384 sel 0 1;
#X obj 868 1299 + 1;
#X floatatom 868 1347 5 0 0 0 - - -;
#X obj 928 1197 bng 15 250 50 0 empty empty empty 17 7 0 10 -262144
-1 -1;
#X obj 928 1241 tgl 15 0 empty empty empty 17 7 0 10 -262144 -1 -1
0 1;
#X floatatom 982 1211 5 0 0 0 - - -;
#X obj 991 1232 metro;
#X obj 1013 1261 bng 15 250 50 0 empty empty empty 17 7 0 10 -262144
-1 -1;
#X obj 897 1178 bng 15 250 50 0 empty empty in 17 7 0 10 -262144 -1
-1;
#X obj 928 1217 delay;
#X obj 868 1275 i -1;
#X obj 973 1180 r quaternote;
#X floatatom 948 1369 5 0 0 0 - - -;
#X obj 928 1497 i;
#X floatatom 920 1529 5 0 0 0 - - -;
#X obj 952 1340 tabread notes;
#X obj 931 1469 bng 15 250 50 0 empty empty empty 17 7 0 10 -262144
-1 -1;
#X obj 988 1498 i;
#X floatatom 980 1530 5 0 0 0 - - -;
#X obj 991 1470 bng 15 250 50 0 empty empty empty 17 7 0 10 -262144
-1 -1;
#X obj 1001 1399 tabread notes;
#X floatatom 1001 1423 5 0 0 0 - - -;
#X obj 1026 1210 / 2;
#X obj 869 1323 % 2;
#X obj 865 1381 sel 0 1;
#X obj 1001 1375 - 1;
#X obj 2 935 s v2_hold;
#X obj 90 938 s v2_asc2;
#X obj 183 937 s v2_asc3;
#X obj 260 937 s v2_desc3;
#X obj 339 936 s v2_desc2;
#X obj 442 690 r v2_hold;
#X obj 628 697 r v2_asc2;
#X obj 931 686 r v2_desc2;
#X obj 1294 709 r v2_asc3;
#X obj 1714 730 r v2_desc3;
#X obj 616 1097 s v2;
#X obj 676 1098 s v2;
#X obj 915 1094 s v2;
#X obj 975 1095 s v2;
#X obj 1175 1097 s v2;
#X obj 1235 1098 s v2;
#X obj 1292 1098 s v2;
#X obj 1595 1118 s v2;
#X obj 1655 1119 s v2;
#X obj 1712 1119 s v2;
#X obj 6 1398 s v1_hold;
#X obj 95 1400 s v1_asc2;
#X obj 185 1400 s v1_asc3;
#X obj 264 1400 s v1_desc3;
#X obj 343 1399 s v1_desc2;
#X obj 446 1153 r v1_hold;
#X obj 632 1160 r v1_asc2;
#X obj 620 1560 s v1;
#X obj 680 1561 s v1;
#X obj 935 1149 r v1_desc2;
#X obj 919 1557 s v1;
#X obj 979 1558 s v1;
#X obj 1298 1172 r v1_asc3;
#X obj 1179 1560 s v1;
#X obj 1239 1561 s v1;
#X obj 1296 1561 s v1;
#X obj 1718 1193 r v1_desc3;
#X obj 1600 1581 s v1;
#X obj 1659 1582 s v1;
#X obj 1716 1582 s v1;
#X obj 1445 1901 +~;
#X obj 1445 1925 cos~;
#X floatatom 1445 1815 5 0 0 0 - - -;
#X obj 1499 1966 *~;
#X obj 1446 1848 phasor~;
#X obj 1607 1785 phasor~;
#X floatatom 1615 1763 5 0 0 0 - - -;
#X floatatom 1396 1713 5 0 0 0 - - -;
#X obj 1537 1707 mtof;
#X obj 1394 1808 *~;
#X obj 1379 1900 +~;
#X obj 1595 1704 line~;
#X obj 1643 1629 bng 15 250 50 0 empty empty empty 17 7 0 10 -262144
-1 -1;
#X obj 1395 1747 phasor~;
#X obj 1535 1668 + 12;
#X obj 1608 1834 *~;
#X obj 1394 1832 +~;
#X obj 908 2122 dac~;
#X obj 1379 1924 cos~;
#X obj 1379 1948 +~;
#X obj 1535 1644 r v3;
#X obj 891 1893 +~;
#X obj 891 1917 cos~;
#X floatatom 891 1807 5 0 0 0 - - -;
#X obj 945 1958 *~;
#X obj 892 1840 phasor~;
#X obj 1053 1777 phasor~;
#X floatatom 1061 1755 5 0 0 0 - - -;
#X floatatom 842 1705 5 0 0 0 - - -;
#X obj 983 1699 mtof;
#X obj 840 1800 *~;
#X obj 825 1892 +~;
#X obj 1041 1696 line~;
#X obj 1089 1621 bng 15 250 50 0 empty empty empty 17 7 0 10 -262144
-1 -1;
#X obj 841 1739 phasor~;
#X msg 1147 1658 0 200;
#X obj 1054 1826 *~;
#X obj 1054 1802 *~ 0.75;
#X obj 840 1764 *~ 0.2;
#X obj 840 1824 +~;
#X obj 825 1916 cos~;
#X obj 825 1940 +~;
#X obj 981 1660 + 0;
#X msg 1082 1656 1 100;
#X obj 981 1636 r v2;
#X obj 1698 1635 delay 50;
#X obj 1145 1627 delay 150;
#X obj 1608 1811 *~ 1.5;
#X obj 1394 1772 *~ 0.75;
#X obj 410 1923 +~;
#X obj 410 1947 cos~;
#X floatatom 410 1837 5 0 0 0 - - -;
#X obj 464 1988 *~;
#X obj 411 1870 phasor~;
#X obj 572 1807 phasor~;
#X floatatom 580 1785 5 0 0 0 - - -;
#X floatatom 361 1735 5 0 0 0 - - -;
#X obj 502 1729 mtof;
#X obj 359 1830 *~;
#X obj 344 1922 +~;
#X obj 560 1726 line~;
#X obj 608 1651 bng 15 250 50 0 empty empty empty 17 7 0 10 -262144
-1 -1;
#X obj 360 1769 phasor~;
#X obj 573 1856 *~;
#X obj 359 1854 +~;
#X obj 344 1946 cos~;
#X obj 344 1970 +~;
#X msg 666 1688 0 250;
#X obj 500 1690 - 12;
#X obj 500 1666 r v1;
#X msg 1701 1666 0 200;
#X obj 1396 1688 * 1.015;
#X msg 1636 1664 1 50;
#X obj 359 1794 *~ 0.75;
#X obj 992 2032 *~ 0.125;
#X msg 600 1686 1 200;
#X obj 573 1832 *~ 0.1;
#X obj 665 1657 delay 150;
#X obj 920 2027 *~ 0.175;
#X text 552 105 b7 is characteristic sound of mixolydian \, so it's
root b7 and their octaves are repeated for higher probability;
#X text 747 52 C Mixolydian;
#X obj 87 424 bng 15 250 50 0 empty empty empty 17 7 0 10 -262144 -1
-1;
#X obj 79 329 sel 0 7 1 3 5 4 6 8;
#X msg 55 475 8;
#X obj 38 281 random 9;
#X obj 1572 412 % 4;
#X obj 1568 470 sel 0 1 2 3;
#X obj 1550 562 bng 15 250 50 0 empty empty empty 17 7 0 10 -262144
-1 -1;
#X obj 1550 585 i;
#X floatatom 1549 616 5 0 0 0 - - -;
#X obj 1546 646 s v3;
#X obj 1564 884 % 4;
#X obj 1559 942 sel 0 1 2 3;
#X obj 1535 1060 i;
#X floatatom 1527 1092 5 0 0 0 - - -;
#X obj 1538 1032 bng 15 250 50 0 empty empty empty 17 7 0 10 -262144
-1 -1;
#X obj 1526 1120 s v2;
#X obj 1567 1347 % 4;
#X obj 1563 1405 sel 0 1 2 3;
#X obj 1567 1515 i;
#X floatatom 1559 1547 5 0 0 0 - - -;
#X obj 1570 1487 bng 15 250 50 0 empty empty empty 17 7 0 10 -262144
-1 -1;
#X obj 1559 1575 s v1;
#X obj 1818 311 / 4;
#X obj 1809 783 / 4;
#X obj 1813 1246 / 4;
#X obj 322 350 bng 15 250 50 0 empty empty empty 17 7 0 10 -262144
-1 -1;
#X msg 302 38 \; notes 0 60 62 66 65 67 69 70 72 81;
#X msg 396 444 8;
#X msg 361 885 2;
#X msg 347 787 8;
#X obj 295 791 bng 15 250 50 0 empty empty empty 17 7 0 10 -262144
-1 -1;
#X obj 378 860 bng 15 250 50 0 empty empty empty 17 7 0 10 -262144
-1 -1;
#X obj 67 815 sel 0 7 1 3 5 4 6 8 2;
#X obj 29 753 random 9;
#X obj 628 1959 lop~ 4800;
#X obj 1120 1984 hip~ 400;
#X obj 965 1993 hip~ 200;
#X obj 813 2024 *~ 0.25;
#X obj 1615 1739 * 2;
#X obj 842 1680 * 3;
#X obj 580 1761 * 0.5;
#X obj 1061 1731 * 1;
#X obj 362 1710 * 1;
#X connect 0 0 2 0;
#X connect 0 0 8 0;
#X connect 0 0 572 0;
#X connect 0 0 7 0;
#X connect 1 0 2 1;
#X connect 1 0 4 0;
#X connect 2 0 3 0;
#X connect 3 0 8 0;
#X connect 3 0 6 0;
#X connect 8 0 1 0;
#X connect 9 0 547 0;
#X connect 10 0 14 0;
#X connect 11 0 15 0;
#X connect 12 0 20 0;
#X connect 13 0 549 0;
#X connect 14 0 16 0;
#X connect 15 0 16 0;
#X connect 18 0 21 0;
#X connect 19 0 22 0;
#X connect 20 0 17 0;
#X connect 21 0 17 0;
#X connect 22 0 17 0;
#X connect 23 0 45 0;
#X connect 24 0 46 0;
#X connect 25 0 31 0;
#X connect 26 0 28 0;
#X connect 27 0 31 1;
#X connect 27 0 63 0;
#X connect 28 0 29 0;
#X connect 29 0 32 0;
#X connect 30 0 25 0;
#X connect 30 0 26 0;
#X connect 31 0 26 0;
#X connect 32 0 23 0;
#X connect 33 0 27 0;
#X connect 34 0 35 1;
#X connect 35 0 36 0;
#X connect 36 0 47 0;
#X connect 37 0 34 0;
#X connect 38 0 35 0;
#X connect 39 0 40 0;
#X connect 40 0 48 0;
#X connect 41 0 39 0;
#X connect 42 0 43 0;
#X connect 43 0 49 0;
#X connect 44 0 42 0;
#X connect 45 0 24 0;
#X connect 45 0 32 1;
#X connect 46 0 38 0;
#X connect 46 1 41 0;
#X connect 46 2 44 0;
#X connect 50 0 52 0;
#X connect 50 0 55 0;
#X connect 51 0 53 1;
#X connect 52 0 51 0;
#X connect 53 0 54 0;
#X connect 54 0 56 0;
#X connect 55 0 53 0;
#X connect 58 0 59 0;
#X connect 59 0 57 0;
#X connect 60 0 103 0;
#X connect 63 0 28 1;
#X connect 64 0 30 0;
#X connect 64 0 37 0;
#X connect 64 0 65 0;
#X connect 64 0 70 0;
#X connect 65 0 66 0;
#X connect 66 0 67 0;
#X connect 67 0 39 1;
#X connect 68 0 69 0;
#X connect 69 0 42 1;
#X connect 70 0 68 0;
#X connect 71 0 550 0;
#X connect 72 0 551 0;
#X connect 73 0 79 0;
#X connect 74 0 76 0;
#X connect 75 0 79 1;
#X connect 75 0 568 0;
#X connect 76 0 77 0;
#X connect 77 0 80 0;
#X connect 78 0 73 0;
#X connect 78 0 74 0;
#X connect 79 0 74 0;
#X connect 80 0 71 0;
#X connect 81 0 75 0;
#X connect 82 0 83 1;
#X connect 82 0 553 1;
#X connect 83 0 84 0;
#X connect 84 0 93 0;
#X connect 85 0 82 0;
#X connect 86 0 83 0;
#X connect 87 0 88 0;
#X connect 88 0 94 0;
#X connect 89 0 87 0;
#X connect 90 0 91 0;
#X connect 91 0 95 0;
#X connect 92 0 90 0;
#X connect 96 0 97 0;
#X connect 97 0 87 1;
#X connect 98 0 99 0;
#X connect 99 0 90 1;
#X connect 100 0 78 0;
#X connect 100 0 85 0;
#X connect 100 0 101 0;
#X connect 100 0 102 0;
#X connect 101 0 96 0;
#X connect 102 0 98 0;
#X connect 103 0 61 0;
#X connect 103 0 62 0;
#X connect 104 0 129 0;
#X connect 105 0 130 0;
#X connect 106 0 112 0;
#X connect 107 0 109 0;
#X connect 108 0 112 1;
#X connect 108 0 128 0;
#X connect 109 0 110 0;
#X connect 110 0 113 0;
#X connect 111 0 106 0;
#X connect 111 0 107 0;
#X connect 112 0 107 0;
#X connect 113 0 104 0;
#X connect 114 0 108 0;
#X connect 115 0 116 1;
#X connect 116 0 117 0;
#X connect 117 0 123 0;
#X connect 118 0 115 0;
#X connect 119 0 116 0;
#X connect 120 0 121 0;
#X connect 121 0 124 0;
#X connect 122 0 120 0;
#X connect 125 0 126 0;
#X connect 126 0 127 0;
#X connect 127 0 120 1;
#X connect 128 0 109 1;
#X connect 129 0 105 0;
#X connect 129 0 113 1;
#X connect 130 0 119 0;
#X connect 130 1 122 0;
#X connect 131 0 155 0;
#X connect 132 0 156 0;
#X connect 133 0 139 0;
#X connect 134 0 136 0;
#X connect 135 0 139 1;
#X connect 135 0 154 0;
#X connect 136 0 137 0;
#X connect 137 0 140 0;
#X connect 138 0 133 0;
#X connect 138 0 134 0;
#X connect 139 0 134 0;
#X connect 140 0 131 0;
#X connect 141 0 135 0;
#X connect 142 0 143 1;
#X connect 143 0 144 0;
#X connect 144 0 150 0;
#X connect 145 0 142 0;
#X connect 146 0 143 0;
#X connect 147 0 148 0;
#X connect 148 0 151 0;
#X connect 149 0 147 0;
#X connect 152 0 153 0;
#X connect 153 0 147 1;
#X connect 154 0 136 1;
#X connect 155 0 132 0;
#X connect 155 0 140 1;
#X connect 156 0 146 0;
#X connect 156 1 149 0;
#X connect 157 0 111 0;
#X connect 157 0 118 0;
#X connect 157 0 125 0;
#X connect 158 0 138 0;
#X connect 158 0 145 0;
#X connect 158 0 159 0;
#X connect 159 0 152 0;
#X connect 160 0 578 0;
#X connect 161 0 165 0;
#X connect 162 0 166 0;
#X connect 163 0 169 0;
#X connect 164 0 579 0;
#X connect 165 0 425 0;
#X connect 166 0 425 0;
#X connect 167 0 170 0;
#X connect 168 0 171 0;
#X connect 169 0 426 0;
#X connect 170 0 426 0;
#X connect 171 0 426 0;
#X connect 172 0 194 0;
#X connect 173 0 195 0;
#X connect 174 0 180 0;
#X connect 175 0 177 0;
#X connect 176 0 180 1;
#X connect 176 0 205 0;
#X connect 177 0 178 0;
#X connect 178 0 181 0;
#X connect 179 0 174 0;
#X connect 179 0 175 0;
#X connect 180 0 175 0;
#X connect 181 0 172 0;
#X connect 182 0 176 0;
#X connect 183 0 184 1;
#X connect 184 0 185 0;
#X connect 185 0 439 0;
#X connect 186 0 183 0;
#X connect 187 0 184 0;
#X connect 188 0 189 0;
#X connect 189 0 440 0;
#X connect 190 0 188 0;
#X connect 191 0 192 0;
#X connect 192 0 441 0;
#X connect 193 0 191 0;
#X connect 194 0 173 0;
#X connect 194 0 181 1;
#X connect 195 0 187 0;
#X connect 195 1 190 0;
#X connect 195 2 193 0;
#X connect 196 0 198 1;
#X connect 197 0 196 0;
#X connect 198 0 199 0;
#X connect 199 0 201 0;
#X connect 200 0 198 0;
#X connect 202 0 203 0;
#X connect 203 0 427 0;
#X connect 204 0 240 0;
#X connect 205 0 177 1;
#X connect 206 0 207 0;
#X connect 207 0 208 0;
#X connect 208 0 188 1;
#X connect 209 0 210 0;
#X connect 210 0 191 1;
#X connect 211 0 209 0;
#X connect 212 0 556 0;
#X connect 213 0 557 0;
#X connect 214 0 220 0;
#X connect 215 0 217 0;
#X connect 216 0 220 1;
#X connect 216 0 569 0;
#X connect 217 0 218 0;
#X connect 218 0 221 0;
#X connect 219 0 214 0;
#X connect 219 0 215 0;
#X connect 220 0 215 0;
#X connect 221 0 212 0;
#X connect 222 0 216 0;
#X connect 223 0 224 1;
#X connect 223 0 558 1;
#X connect 224 0 225 0;
#X connect 225 0 442 0;
#X connect 226 0 223 0;
#X connect 227 0 224 0;
#X connect 228 0 229 0;
#X connect 229 0 443 0;
#X connect 230 0 228 0;
#X connect 231 0 232 0;
#X connect 232 0 444 0;
#X connect 233 0 231 0;
#X connect 234 0 235 0;
#X connect 235 0 228 1;
#X connect 236 0 237 0;
#X connect 237 0 231 1;
#X connect 238 0 234 0;
#X connect 239 0 236 0;
#X connect 240 0 428 0;
#X connect 241 0 264 0;
#X connect 242 0 265 0;
#X connect 243 0 249 0;
#X connect 244 0 246 0;
#X connect 245 0 249 1;
#X connect 245 0 263 0;
#X connect 246 0 247 0;
#X connect 247 0 250 0;
#X connect 248 0 243 0;
#X connect 248 0 244 0;
#X connect 249 0 244 0;
#X connect 250 0 241 0;
#X connect 251 0 245 0;
#X connect 252 0 253 1;
#X connect 253 0 254 0;
#X connect 254 0 435 0;
#X connect 255 0 252 0;
#X connect 256 0 253 0;
#X connect 257 0 258 0;
#X connect 258 0 436 0;
#X connect 259 0 257 0;
#X connect 260 0 261 0;
#X connect 261 0 262 0;
#X connect 262 0 257 1;
#X connect 263 0 246 1;
#X connect 264 0 242 0;
#X connect 264 0 250 1;
#X connect 265 0 256 0;
#X connect 265 1 259 0;
#X connect 266 0 288 0;
#X connect 267 0 289 0;
#X connect 268 0 274 0;
#X connect 269 0 271 0;
#X connect 270 0 274 1;
#X connect 270 0 287 0;
#X connect 271 0 272 0;
#X connect 272 0 275 0;
#X connect 273 0 268 0;
#X connect 273 0 269 0;
#X connect 274 0 269 0;
#X connect 275 0 266 0;
#X connect 276 0 270 0;
#X connect 277 0 278 1;
#X connect 278 0 279 0;
#X connect 279 0 437 0;
#X connect 280 0 277 0;
#X connect 281 0 278 0;
#X connect 282 0 283 0;
#X connect 283 0 438 0;
#X connect 284 0 282 0;
#X connect 285 0 286 0;
#X connect 286 0 282 1;
#X connect 287 0 271 1;
#X connect 288 0 267 0;
#X connect 288 0 275 1;
#X connect 289 0 281 0;
#X connect 289 1 284 0;
#X connect 290 0 285 0;
#X connect 291 0 292 0;
#X connect 292 0 374 0;
#X connect 293 0 297 0;
#X connect 294 0 298 0;
#X connect 295 0 301 0;
#X connect 296 0 291 0;
#X connect 297 0 445 0;
#X connect 298 0 445 0;
#X connect 299 0 302 0;
#X connect 300 0 303 0;
#X connect 301 0 446 0;
#X connect 302 0 446 0;
#X connect 303 0 446 0;
#X connect 304 0 326 0;
#X connect 305 0 327 0;
#X connect 306 0 312 0;
#X connect 307 0 309 0;
#X connect 308 0 312 1;
#X connect 308 0 338 0;
#X connect 309 0 310 0;
#X connect 310 0 313 0;
#X connect 311 0 306 0;
#X connect 311 0 307 0;
#X connect 312 0 307 0;
#X connect 313 0 304 0;
#X connect 314 0 308 0;
#X connect 315 0 316 1;
#X connect 316 0 317 0;
#X connect 317 0 458 0;
#X connect 318 0 315 0;
#X connect 319 0 316 0;
#X connect 320 0 321 0;
#X connect 321 0 459 0;
#X connect 322 0 320 0;
#X connect 323 0 324 0;
#X connect 324 0 460 0;
#X connect 325 0 323 0;
#X connect 326 0 305 0;
#X connect 326 0 313 1;
#X connect 327 0 319 0;
#X connect 327 1 322 0;
#X connect 327 2 325 0;
#X connect 328 0 330 1;
#X connect 329 0 328 0;
#X connect 330 0 331 0;
#X connect 331 0 333 0;
#X connect 332 0 330 0;
#X connect 334 0 335 0;
#X connect 335 0 447 0;
#X connect 336 0 373 0;
#X connect 337 0 449 0;
#X connect 338 0 309 1;
#X connect 339 0 340 0;
#X connect 340 0 341 0;
#X connect 341 0 320 1;
#X connect 342 0 343 0;
#X connect 343 0 323 1;
#X connect 344 0 342 0;
#X connect 345 0 562 0;
#X connect 346 0 563 0;
#X connect 347 0 353 0;
#X connect 348 0 350 0;
#X connect 349 0 353 1;
#X connect 349 0 570 0;
#X connect 350 0 351 0;
#X connect 351 0 354 0;
#X connect 352 0 347 0;
#X connect 352 0 348 0;
#X connect 353 0 348 0;
#X connect 354 0 345 0;
#X connect 355 0 349 0;
#X connect 356 0 357 1;
#X connect 356 0 564 1;
#X connect 357 0 358 0;
#X connect 358 0 462 0;
#X connect 359 0 356 0;
#X connect 360 0 357 0;
#X connect 361 0 362 0;
#X connect 362 0 463 0;
#X connect 363 0 361 0;
#X connect 364 0 365 0;
#X connect 365 0 464 0;
#X connect 366 0 364 0;
#X connect 367 0 368 0;
#X connect 368 0 361 1;
#X connect 369 0 370 0;
#X connect 370 0 364 1;
#X connect 371 0 367 0;
#X connect 372 0 369 0;
#X connect 373 0 448 0;
#X connect 374 0 293 0;
#X connect 374 1 294 0;
#X connect 374 2 295 0;
#X connect 374 3 299 0;
#X connect 374 4 300 0;
#X connect 374 5 334 0;
#X connect 374 6 336 0;
#X connect 374 7 337 0;
#X connect 375 0 398 0;
#X connect 376 0 399 0;
#X connect 377 0 383 0;
#X connect 378 0 380 0;
#X connect 379 0 383 1;
#X connect 379 0 397 0;
#X connect 380 0 381 0;
#X connect 381 0 384 0;
#X connect 382 0 377 0;
#X connect 382 0 378 0;
#X connect 383 0 378 0;
#X connect 384 0 375 0;
#X connect 385 0 379 0;
#X connect 386 0 387 1;
#X connect 387 0 388 0;
#X connect 388 0 452 0;
#X connect 389 0 386 0;
#X connect 390 0 387 0;
#X connect 391 0 392 0;
#X connect 392 0 453 0;
#X connect 393 0 391 0;
#X connect 394 0 395 0;
#X connect 395 0 396 0;
#X connect 396 0 391 1;
#X connect 397 0 380 1;
#X connect 398 0 376 0;
#X connect 398 0 384 1;
#X connect 399 0 390 0;
#X connect 399 1 393 0;
#X connect 400 0 422 0;
#X connect 401 0 423 0;
#X connect 402 0 408 0;
#X connect 403 0 405 0;
#X connect 404 0 408 1;
#X connect 404 0 421 0;
#X connect 405 0 406 0;
#X connect 406 0 409 0;
#X connect 407 0 402 0;
#X connect 407 0 403 0;
#X connect 408 0 403 0;
#X connect 409 0 400 0;
#X connect 410 0 404 0;
#X connect 411 0 412 1;
#X connect 412 0 413 0;
#X connect 413 0 455 0;
#X connect 414 0 411 0;
#X connect 415 0 412 0;
#X connect 416 0 417 0;
#X connect 417 0 456 0;
#X connect 418 0 416 0;
#X connect 419 0 420 0;
#X connect 420 0 416 1;
#X connect 421 0 405 1;
#X connect 422 0 401 0;
#X connect 422 0 409 1;
#X connect 423 0 415 0;
#X connect 423 1 418 0;
#X connect 424 0 419 0;
#X connect 430 0 197 0;
#X connect 430 0 200 0;
#X connect 431 0 248 0;
#X connect 431 0 255 0;
#X connect 431 0 260 0;
#X connect 432 0 273 0;
#X connect 432 0 280 0;
#X connect 432 0 290 0;
#X connect 433 0 179 0;
#X connect 433 0 186 0;
#X connect 433 0 206 0;
#X connect 433 0 211 0;
#X connect 434 0 219 0;
#X connect 434 0 226 0;
#X connect 434 0 238 0;
#X connect 434 0 239 0;
#X connect 450 0 329 0;
#X connect 450 0 332 0;
#X connect 451 0 382 0;
#X connect 451 0 389 0;
#X connect 451 0 394 0;
#X connect 454 0 407 0;
#X connect 454 0 414 0;
#X connect 454 0 424 0;
#X connect 457 0 311 0;
#X connect 457 0 318 0;
#X connect 457 0 339 0;
#X connect 457 0 344 0;
#X connect 461 0 352 0;
#X connect 461 0 359 0;
#X connect 461 0 371 0;
#X connect 461 0 372 0;
#X connect 465 0 466 0;
#X connect 466 0 484 1;
#X connect 467 0 469 0;
#X connect 468 0 581 0;
#X connect 469 0 465 0;
#X connect 470 0 512 0;
#X connect 471 0 470 0;
#X connect 472 0 478 0;
#X connect 473 0 467 0;
#X connect 473 0 536 0;
#X connect 473 0 584 0;
#X connect 474 0 481 0;
#X connect 475 0 483 0;
#X connect 476 0 468 1;
#X connect 476 0 474 1;
#X connect 476 0 480 1;
#X connect 477 0 537 0;
#X connect 477 0 510 0;
#X connect 478 0 513 0;
#X connect 479 0 473 0;
#X connect 480 0 475 1;
#X connect 480 0 465 1;
#X connect 481 0 475 0;
#X connect 483 0 484 0;
#X connect 484 0 468 0;
#X connect 485 0 477 0;
#X connect 485 0 479 0;
#X connect 486 0 487 0;
#X connect 487 0 506 1;
#X connect 488 0 490 0;
#X connect 489 0 582 0;
#X connect 490 0 486 0;
#X connect 491 0 502 0;
#X connect 492 0 491 0;
#X connect 493 0 499 0;
#X connect 494 0 488 0;
#X connect 494 0 585 0;
#X connect 494 0 587 0;
#X connect 495 0 504 0;
#X connect 496 0 505 0;
#X connect 497 0 489 1;
#X connect 497 0 495 1;
#X connect 497 0 501 1;
#X connect 498 0 508 0;
#X connect 498 0 511 0;
#X connect 499 0 503 0;
#X connect 500 0 497 0;
#X connect 501 0 496 1;
#X connect 501 0 486 1;
#X connect 502 0 501 0;
#X connect 503 0 495 0;
#X connect 504 0 496 0;
#X connect 505 0 506 0;
#X connect 506 0 489 0;
#X connect 507 0 494 0;
#X connect 508 0 497 0;
#X connect 509 0 498 0;
#X connect 509 0 507 0;
#X connect 510 0 535 0;
#X connect 511 0 500 0;
#X connect 512 0 480 0;
#X connect 513 0 474 0;
#X connect 514 0 515 0;
#X connect 515 0 531 1;
#X connect 516 0 518 0;
#X connect 517 0 580 0;
#X connect 518 0 514 0;
#X connect 519 0 541 0;
#X connect 520 0 519 0;
#X connect 521 0 527 0;
#X connect 522 0 516 0;
#X connect 522 0 586 0;
#X connect 522 0 588 0;
#X connect 523 0 529 0;
#X connect 524 0 530 0;
#X connect 525 0 517 1;
#X connect 525 0 523 1;
#X connect 525 0 528 1;
#X connect 526 0 540 0;
#X connect 526 0 542 0;
#X connect 527 0 538 0;
#X connect 528 0 524 1;
#X connect 528 0 514 1;
#X connect 529 0 524 0;
#X connect 530 0 531 0;
#X connect 531 0 517 0;
#X connect 532 0 525 0;
#X connect 533 0 522 0;
#X connect 534 0 526 0;
#X connect 534 0 533 0;
#X connect 535 0 476 0;
#X connect 536 0 472 0;
#X connect 537 0 476 0;
#X connect 538 0 523 0;
#X connect 539 0 482 0;
#X connect 539 0 482 1;
#X connect 540 0 525 0;
#X connect 541 0 528 0;
#X connect 542 0 532 0;
#X connect 543 0 482 0;
#X connect 543 0 482 1;
#X connect 546 0 548 0;
#X connect 547 0 10 0;
#X connect 547 1 11 0;
#X connect 547 2 12 0;
#X connect 547 3 18 0;
#X connect 547 4 19 0;
#X connect 547 5 58 0;
#X connect 547 6 60 0;
#X connect 547 7 571 0;
#X connect 547 8 546 0;
#X connect 548 0 16 0;
#X connect 549 0 9 0;
#X connect 550 0 72 0;
#X connect 550 0 80 1;
#X connect 551 0 86 0;
#X connect 551 1 89 0;
#X connect 551 2 92 0;
#X connect 551 3 552 0;
#X connect 552 0 553 0;
#X connect 553 0 554 0;
#X connect 554 0 555 0;
#X connect 556 0 213 0;
#X connect 556 0 221 1;
#X connect 557 0 227 0;
#X connect 557 1 230 0;
#X connect 557 2 233 0;
#X connect 557 3 560 0;
#X connect 558 0 559 0;
#X connect 559 0 561 0;
#X connect 560 0 558 0;
#X connect 562 0 346 0;
#X connect 562 0 354 1;
#X connect 563 0 360 0;
#X connect 563 1 363 0;
#X connect 563 2 366 0;
#X connect 563 3 566 0;
#X connect 564 0 565 0;
#X connect 565 0 567 0;
#X connect 566 0 564 0;
#X connect 568 0 76 1;
#X connect 569 0 217 1;
#X connect 570 0 350 1;
#X connect 571 0 573 0;
#X connect 573 0 62 0;
#X connect 574 0 429 0;
#X connect 575 0 429 0;
#X connect 575 0 428 0;
#X connect 576 0 575 0;
#X connect 577 0 574 0;
#X connect 578 0 161 0;
#X connect 578 1 162 0;
#X connect 578 2 163 0;
#X connect 578 3 167 0;
#X connect 578 4 168 0;
#X connect 578 5 202 0;
#X connect 578 6 204 0;
#X connect 578 7 577 0;
#X connect 578 8 576 0;
#X connect 578 9 576 0;
#X connect 579 0 160 0;
#X connect 580 0 583 0;
#X connect 581 0 539 0;
#X connect 582 0 543 0;
#X connect 583 0 482 0;
#X connect 583 0 482 1;
#X connect 584 0 471 0;
#X connect 585 0 493 0;
#X connect 586 0 520 0;
#X connect 587 0 492 0;
#X connect 588 0 521 0;
